{
.appVersion = "1286";
DisplayStrings = (
"STRONG' BOLD \012ROWDY PRO/trademark \012Rowdy Rathod RATHOD\012\012AWBCDEFGHIJKLMN\012OPQRSTUVWXYZ\012abcdefghijklmnopqrstuvwxyz\012#0123456789\012¶&/a.alt/fi/fl/f_f/f_f_i/f_f_l/f_ij/f_f_ij \012jaiksworld@gmail.com\012You & Sadpqbi\01223%\012¦«/guilsinglleft +/guilsinglright »=/minus ×÷/radical <//>/backslash %.,?!¿¡/ellipsis \012ÁÆ/OE ÇÐÞØ/Schwa/Germandbls/Nhookleft/Eng \012äæ/oe çðþoø/schwa/idotless/jdotless/kgreenlandic ß/nhookleft/eng µ/mu \012§/.notdef |¦/dagger/daggerdbl [{()}] @/circle ©'*/trademark ®\012/lozenge/summation/product/integral/Delta/pi/Omega/partialdiff/literSign \012/divisionslash/fraction  ¾-/endash/emdash _¬\012$¢/florin/rupeeIndian ¥£/euro ¤/lira/naira/franc/won/peso/cedi/guarani/colonmonetary/ruble/peseta/dong/manat/kip/liraTurkish \012\012\"':;^_`~¨©ª¬®¯°±²³´µ¶·¸¹º/four.dnom ¼½¾¿\012ÀÁÂÃÄÅÆÈÉËÌÍÎÐÑÒÓÔÕÖØÙÚÛÜÝÞßàáâãäåæçèéê/acutecomb íî ï ðñòóôõöøùúûüýþ/ydieresis/idotless/circumflex/ring/tilde/quoteleft/quoteright/quotesinglbase/quotedblleft/quotedblright/quotedblbase  /bullet/ellipsis \012\012THE QUICK BROWN FOX JUMPS OVER THE LAZY DOG\012the quick brown fox jumps over the lazy dog\012\012Spacing\012HOVK onvai\012nanbncndnenfngnhninjnknlnmnnonpnqnrnsntnunvnwnxnynzn\012HAHBHCHDHEHFHGHHIHJHKHLHMHNHOHPHQHRHSHTHUHVHWHXHYHZH0102030405060708090\012",

glyphs = (
{
color = 1;
glyphname = A;
layers = (
{
anchors = (
{
name = bottom;
position = "{390, 0}";
},
{
name = ogonek;
position = "{704, 10}";
},
{
name = top;
position = "{392, 710}";
}
);
layerId = "083550D2-F2E8-44E3-BE3D-E8BDF41EDFC4";
paths = (
{
closed = 1;
nodes = (
"198 0 LINE",
"241 160 LINE",
"532 160 LINE",
"582 0 LINE",
"759 0 LINE",
"759 117 LINE",
"682 259 LINE",
"521 707 LINE",
"262 707 LINE",
"132 326 LINE",
"58 296 LINE",
"58 169 LINE",
"10 0 LINE"
);
},
{
closed = 1;
nodes = (
"380 543 LINE",
"401 543 LINE",
"477 314 LINE",
"307 314 LINE"
);
}
);
width = 769;
},
{
anchors = (
{
name = bottom;
position = "{418, 50}";
},
{
name = ogonek;
position = "{725, 9}";
},
{
name = top;
position = "{415, 710}";
}
);
layerId = "1A280FA7-9E72-4FC3-84C1-49B7BD56B269";
paths = (
{
closed = 1;
nodes = (
"240 0 LINE",
"283 149 LINE",
"554 149 LINE",
"604 0 LINE",
"821 0 LINE",
"821 117 LINE",
"744 259 LINE",
"573 707 LINE",
"272 707 LINE",
"132 326 LINE",
"58 296 LINE",
"58 169 LINE",
"10 0 LINE"
);
},
{
closed = 1;
nodes = (
"412 523 LINE",
"433 523 LINE",
"499 324 LINE",
"349 324 LINE"
);
}
);
width = 831;
},
{
associatedMasterId = "083550D2-F2E8-44E3-BE3D-E8BDF41EDFC4";
layerId = "0AAF2CB4-2EBD-42C4-BAB4-4CEC92C737FB";
width = 600;
},
{
anchors = (
{
name = bottom;
position = "{352, 50}";
},
{
name = ogonek;
position = "{682, 10}";
},
{
name = top;
position = "{349, 708}";
}
);
layerId = "CA5CD7F6-F0E6-40F5-9716-481B35A0BC32";
paths = (
{
closed = 1;
nodes = (
"156 0 LINE",
"209 180 LINE",
"500 180 LINE",
"560 0 LINE",
"697 0 LINE",
"697 117 LINE",
"620 259 LINE",
"459 707 LINE",
"262 707 LINE",
"132 316 LINE",
"68 286 LINE",
"68 189 LINE",
"10 0 LINE"
);
},
{
closed = 1;
nodes = (
"348 575 LINE",
"369 575 LINE",
"455 304 LINE",
"265 304 LINE"
);
}
);
width = 707;
},
{
associatedMasterId = "CA5CD7F6-F0E6-40F5-9716-481B35A0BC32";
layerId = "FB78EF16-4CC4-4124-A2B3-B572133361B3";
width = 600;
}
);
unicode = 0041;
},
{
color = 1;
glyphname = AE;
layers = (
{
anchors = (
{
name = bottom;
position = "{558, 0}";
},
{
name = top;
position = "{558, 710}";
}
);
components = (
{
name = E;
transform = "{1, 0, 0, 1, 400, 0}";
}
);
layerId = "083550D2-F2E8-44E3-BE3D-E8BDF41EDFC4";
paths = (
{
closed = 1;
nodes = (
"198 0 LINE",
"241 160 LINE",
"512 160 LINE",
"512 304 LINE",
"307 324 LINE",
"364 547 LINE",
"512 547 LINE",
"512 707 LINE",
"330 707 LINE",
"221 727 LINE",
"122 336 LINE",
"58 296 LINE",
"58 169 LINE",
"10 0 LINE"
);
}
);
width = 1088;
},
{
anchors = (
{
name = bottom;
position = "{548, 0}";
},
{
name = top;
position = "{548, 710}";
}
);
components = (
{
name = E;
transform = "{1, 0, 0, 1, 390, 0}";
}
);
layerId = "1A280FA7-9E72-4FC3-84C1-49B7BD56B269";
paths = (
{
closed = 1;
nodes = (
"240 0 LINE",
"283 160 LINE",
"512 160 LINE",
"512 334 LINE",
"349 354 LINE",
"396 547 LINE",
"512 547 LINE",
"512 707 LINE",
"370 707 LINE",
"221 727 LINE",
"122 336 LINE",
"58 296 LINE",
"58 169 LINE",
"10 0 LINE"
);
}
);
width = 1098;
},
{
associatedMasterId = "083550D2-F2E8-44E3-BE3D-E8BDF41EDFC4";
layerId = "0AAF2CB4-2EBD-42C4-BAB4-4CEC92C737FB";
width = 600;
},
{
anchors = (
{
name = bottom;
position = "{558, 0}";
},
{
name = top;
position = "{558, 710}";
}
);
components = (
{
name = E;
transform = "{1, 0, 0, 1, 380, 0}";
}
);
layerId = "CA5CD7F6-F0E6-40F5-9716-481B35A0BC32";
paths = (
{
closed = 1;
nodes = (
"156 0 LINE",
"209 180 LINE",
"481 180 LINE",
"481 304 LINE",
"265 304 LINE",
"348 586 LINE",
"481 586 LINE",
"481 707 LINE",
"366 707 LINE",
"262 727 LINE",
"132 316 LINE",
"58 296 LINE",
"68 189 LINE",
"10 0 LINE"
);
}
);
width = 1007;
},
{
associatedMasterId = "CA5CD7F6-F0E6-40F5-9716-481B35A0BC32";
layerId = "88B8E799-5A63-49E9-9541-634D69D7319E";
width = 600;
}
);
leftMetricsKey = A;
rightMetricsKey = E;
unicode = 00C6;
},
{
color = 1;
glyphname = B;
layers = (
{
layerId = "083550D2-F2E8-44E3-BE3D-E8BDF41EDFC4";
paths = (
{
closed = 1;
nodes = (
"490 0 LINE SMOOTH",
"652 0 OFFCURVE",
"739 66 OFFCURVE",
"739 212 CURVE SMOOTH",
"739 295 OFFCURVE",
"697 357 OFFCURVE",
"607 386 CURVE",
"647 414 OFFCURVE",
"669 467 OFFCURVE",
"669 530 CURVE SMOOTH",
"669 655 OFFCURVE",
"571 708 OFFCURVE",
"420 708 CURVE SMOOTH",
"80 708 LINE",
"60 648 LINE",
"80 548 LINE",
"80 0 LINE"
);
},
{
closed = 1;
nodes = (
"260 284 LINE",
"470 284 LINE SMOOTH",
"517 284 OFFCURVE",
"542 256 OFFCURVE",
"542 221 CURVE SMOOTH",
"542 190 OFFCURVE",
"531 160 OFFCURVE",
"460 160 CURVE SMOOTH",
"260 160 LINE"
);
},
{
closed = 1;
nodes = (
"260 548 LINE",
"408 548 LINE SMOOTH",
"448 548 OFFCURVE",
"482 535 OFFCURVE",
"482 491 CURVE SMOOTH",
"482 456 OFFCURVE",
"463 433 OFFCURVE",
"418 433 CURVE SMOOTH",
"260 433 LINE"
);
}
);
width = 779;
},
{
layerId = "1A280FA7-9E72-4FC3-84C1-49B7BD56B269";
paths = (
{
closed = 1;
nodes = (
"520 0 LINE SMOOTH",
"701 0 OFFCURVE",
"779 82 OFFCURVE",
"779 222 CURVE SMOOTH",
"779 325 OFFCURVE",
"714 380 OFFCURVE",
"647 396 CURVE",
"683 425 OFFCURVE",
"709 464 OFFCURVE",
"709 530 CURVE SMOOTH",
"709 650 OFFCURVE",
"611 708 OFFCURVE",
"460 708 CURVE SMOOTH",
"80 708 LINE",
"60 648 LINE",
"80 548 LINE",
"80 0 LINE"
);
},
{
closed = 1;
nodes = (
"300 284 LINE",
"480 284 LINE SMOOTH",
"522 284 OFFCURVE",
"542 268 OFFCURVE",
"542 236 CURVE SMOOTH",
"542 208 OFFCURVE",
"523 190 OFFCURVE",
"470 190 CURVE SMOOTH",
"300 190 LINE"
);
},
{
closed = 1;
nodes = (
"300 518 LINE",
"408 518 LINE SMOOTH",
"448 518 OFFCURVE",
"482 506 OFFCURVE",
"482 476 CURVE SMOOTH",
"482 446 OFFCURVE",
"463 433 OFFCURVE",
"418 433 CURVE SMOOTH",
"300 433 LINE"
);
}
);
width = 819;
},
{
associatedMasterId = "083550D2-F2E8-44E3-BE3D-E8BDF41EDFC4";
layerId = "0AAF2CB4-2EBD-42C4-BAB4-4CEC92C737FB";
width = 600;
},
{
layerId = "CA5CD7F6-F0E6-40F5-9716-481B35A0BC32";
paths = (
{
closed = 1;
nodes = (
"410 0 LINE SMOOTH",
"577 0 OFFCURVE",
"659 64 OFFCURVE",
"659 212 CURVE SMOOTH",
"659 309 OFFCURVE",
"614 365 OFFCURVE",
"530 395 CURVE",
"573 427 OFFCURVE",
"589 477 OFFCURVE",
"589 530 CURVE SMOOTH",
"589 660 OFFCURVE",
"491 708 OFFCURVE",
"340 708 CURVE SMOOTH",
"80 708 LINE",
"60 648 LINE",
"80 548 LINE",
"80 0 LINE"
);
},
{
closed = 1;
nodes = (
"220 304 LINE",
"390 304 LINE SMOOTH",
"469 304 OFFCURVE",
"502 275 OFFCURVE",
"502 221 CURVE SMOOTH",
"502 163 OFFCURVE",
"471 130 OFFCURVE",
"400 130 CURVE SMOOTH",
"220 130 LINE"
);
},
{
closed = 1;
nodes = (
"220 578 LINE",
"358 578 LINE SMOOTH",
"425 578 OFFCURVE",
"442 546 OFFCURVE",
"442 497 CURVE SMOOTH",
"442 449 OFFCURVE",
"414 423 OFFCURVE",
"358 423 CURVE SMOOTH",
"220 423 LINE"
);
}
);
width = 699;
},
{
associatedMasterId = "CA5CD7F6-F0E6-40F5-9716-481B35A0BC32";
layerId = "96032563-2FD3-42F5-8F0B-50A3AD4B56BE";
width = 600;
}
);
leftMetricsKey = H;
unicode = 0042;
},
{
color = 1;
glyphname = C;
layers = (
{
anchors = (
{
name = bottom;
position = "{385, 0}";
},
{
name = top;
position = "{375, 710}";
}
);
layerId = "083550D2-F2E8-44E3-BE3D-E8BDF41EDFC4";
paths = (
{
closed = 1;
nodes = (
"542 -10 OFFCURVE",
"613 21 OFFCURVE",
"660 50 CURVE",
"660 218 LINE",
"604 192 OFFCURVE",
"545 159 OFFCURVE",
"430 159 CURVE SMOOTH",
"320 159 OFFCURVE",
"240 215 OFFCURVE",
"240 354 CURVE SMOOTH",
"240 483 OFFCURVE",
"314 544 OFFCURVE",
"409 544 CURVE",
"580 456 LINE",
"670 601 LINE",
"559 692 LINE",
"529 705 OFFCURVE",
"457 718 OFFCURVE",
"389 718 CURVE SMOOTH",
"230 718 OFFCURVE",
"50 629 OFFCURVE",
"50 354 CURVE SMOOTH",
"50 58 OFFCURVE",
"228 -10 OFFCURVE",
"409 -10 CURVE SMOOTH"
);
}
);
width = 710;
},
{
anchors = (
{
name = bottom;
position = "{415, 0}";
},
{
name = top;
position = "{411, 718}";
}
);
layerId = "1A280FA7-9E72-4FC3-84C1-49B7BD56B269";
paths = (
{
closed = 1;
nodes = (
"552 -10 OFFCURVE",
"640 29 OFFCURVE",
"681 50 CURVE",
"681 250 LINE",
"645 230 OFFCURVE",
"553 191 OFFCURVE",
"451 191 CURVE SMOOTH",
"344 191 OFFCURVE",
"280 221 OFFCURVE",
"280 354 CURVE SMOOTH",
"280 457 OFFCURVE",
"342 514 OFFCURVE",
"410 514 CURVE",
"601 426 LINE",
"701 591 LINE",
"580 692 LINE",
"550 705 OFFCURVE",
"478 718 OFFCURVE",
"410 718 CURVE SMOOTH",
"218 718 OFFCURVE",
"50 619 OFFCURVE",
"50 354 CURVE SMOOTH",
"50 61 OFFCURVE",
"226 -10 OFFCURVE",
"410 -10 CURVE SMOOTH"
);
}
);
width = 741;
},
{
associatedMasterId = "083550D2-F2E8-44E3-BE3D-E8BDF41EDFC4";
layerId = "0AAF2CB4-2EBD-42C4-BAB4-4CEC92C737FB";
width = 600;
},
{
anchors = (
{
name = bottom;
position = "{375, 0}";
},
{
name = top;
position = "{364, 717}";
}
);
layerId = "CA5CD7F6-F0E6-40F5-9716-481B35A0BC32";
paths = (
{
closed = 1;
nodes = (
"516 -10 OFFCURVE",
"590 24 OFFCURVE",
"627 50 CURVE",
"627 186 LINE",
"596 166 OFFCURVE",
"527 128 OFFCURVE",
"408 128 CURVE SMOOTH",
"289 128 OFFCURVE",
"198 200 OFFCURVE",
"198 354 CURVE SMOOTH",
"198 488 OFFCURVE",
"285 574 OFFCURVE",
"397 574 CURVE",
"568 486 LINE",
"638 591 LINE",
"527 692 LINE",
"497 705 OFFCURVE",
"437 718 OFFCURVE",
"377 718 CURVE SMOOTH",
"189 718 OFFCURVE",
"50 571 OFFCURVE",
"50 354 CURVE SMOOTH",
"50 67 OFFCURVE",
"229 -10 OFFCURVE",
"387 -10 CURVE SMOOTH"
);
}
);
width = 678;
},
{
associatedMasterId = "CA5CD7F6-F0E6-40F5-9716-481B35A0BC32";
layerId = "F7114C36-C09F-4B3A-BED6-CC2AC47003C4";
width = 600;
}
);
leftMetricsKey = O;
unicode = 0043;
},
{
color = 1;
glyphname = D;
layers = (
{
anchors = (
{
name = bottom;
position = "{343, 0}";
},
{
name = center;
position = "{203, 360}";
},
{
name = top;
position = "{343, 710}";
}
);
layerId = "083550D2-F2E8-44E3-BE3D-E8BDF41EDFC4";
paths = (
{
closed = 1;
nodes = (
"378 0 LINE SMOOTH",
"565 0 OFFCURVE",
"749 65 OFFCURVE",
"749 359 CURVE SMOOTH",
"749 653 OFFCURVE",
"569 708 OFFCURVE",
"378 708 CURVE SMOOTH",
"80 708 LINE",
"60 647 LINE",
"80 547 LINE",
"80 0 LINE"
);
},
{
closed = 1;
nodes = (
"262 548 LINE",
"378 548 LINE SMOOTH",
"494 548 OFFCURVE",
"560 500 OFFCURVE",
"560 359 CURVE SMOOTH",
"560 218 OFFCURVE",
"495 160 OFFCURVE",
"378 160 CURVE SMOOTH",
"262 160 LINE"
);
}
);
width = 799;
},
{
anchors = (
{
name = bottom;
position = "{403, 0}";
},
{
name = center;
position = "{213, 348}";
},
{
name = top;
position = "{403, 710}";
}
);
layerId = "1A280FA7-9E72-4FC3-84C1-49B7BD56B269";
paths = (
{
closed = 1;
nodes = (
"419 0 LINE SMOOTH",
"605 0 OFFCURVE",
"790 65 OFFCURVE",
"790 359 CURVE SMOOTH",
"790 653 OFFCURVE",
"609 708 OFFCURVE",
"419 708 CURVE SMOOTH",
"80 708 LINE",
"60 647 LINE",
"80 547 LINE",
"80 0 LINE"
);
},
{
closed = 1;
nodes = (
"302 518 LINE",
"378 518 LINE SMOOTH",
"494 518 OFFCURVE",
"560 500 OFFCURVE",
"560 359 CURVE SMOOTH",
"560 218 OFFCURVE",
"495 190 OFFCURVE",
"378 190 CURVE SMOOTH",
"302 190 LINE"
);
}
);
width = 840;
},
{
associatedMasterId = "083550D2-F2E8-44E3-BE3D-E8BDF41EDFC4";
layerId = "0AAF2CB4-2EBD-42C4-BAB4-4CEC92C737FB";
width = 600;
},
{
anchors = (
{
name = bottom;
position = "{373, 0}";
},
{
name = center;
position = "{163, 360}";
},
{
name = top;
position = "{333, 710}";
}
);
layerId = "CA5CD7F6-F0E6-40F5-9716-481B35A0BC32";
paths = (
{
closed = 1;
nodes = (
"298 0 LINE SMOOTH",
"485 0 OFFCURVE",
"669 65 OFFCURVE",
"669 359 CURVE SMOOTH",
"669 653 OFFCURVE",
"489 708 OFFCURVE",
"298 708 CURVE SMOOTH",
"80 708 LINE",
"60 647 LINE",
"80 547 LINE",
"80 0 LINE"
);
},
{
closed = 1;
nodes = (
"222 578 LINE",
"328 578 LINE SMOOTH",
"465 578 OFFCURVE",
"520 500 OFFCURVE",
"520 359 CURVE SMOOTH",
"520 218 OFFCURVE",
"466 130 OFFCURVE",
"328 130 CURVE SMOOTH",
"222 130 LINE"
);
}
);
width = 719;
},
{
associatedMasterId = "CA5CD7F6-F0E6-40F5-9716-481B35A0BC32";
layerId = "4365D739-F4F6-486E-9C79-6A4B13E086DA";
width = 600;
}
);
leftMetricsKey = H;
rightMetricsKey = O;
unicode = 0044;
},
{
color = 1;
glyphname = E;
layers = (
{
anchors = (
{
name = bottom;
position = "{364, 0}";
},
{
name = ogonek;
position = "{662, 10}";
},
{
name = top;
position = "{344, 710}";
},
{
name = topleft;
position = "{90, 710}";
}
);
layerId = "083550D2-F2E8-44E3-BE3D-E8BDF41EDFC4";
paths = (
{
closed = 1;
nodes = (
"619 0 LINE",
"678 64 LINE",
"559 160 LINE",
"260 160 LINE",
"260 293 LINE",
"411 283 LINE",
"529 283 LINE",
"529 438 LINE",
"260 438 LINE",
"260 548 LINE",
"469 548 LINE",
"559 538 LINE",
"625 678 LINE",
"575 708 LINE",
"80 708 LINE",
"80 160 LINE",
"60 60 LINE",
"80 0 LINE"
);
}
);
width = 688;
},
{
anchors = (
{
name = bottom;
position = "{354, 0}";
},
{
name = ogonek;
position = "{662, 10}";
},
{
name = top;
position = "{374, 710}";
},
{
name = topleft;
position = "{90, 710}";
}
);
layerId = "1A280FA7-9E72-4FC3-84C1-49B7BD56B269";
paths = (
{
closed = 1;
nodes = (
"639 0 LINE",
"698 64 LINE",
"579 190 LINE",
"302 190 LINE",
"302 283 LINE",
"411 273 LINE",
"549 273 LINE",
"549 438 LINE",
"302 438 LINE",
"302 518 LINE",
"489 518 LINE",
"579 508 LINE",
"645 678 LINE",
"595 708 LINE",
"80 708 LINE",
"80 160 LINE",
"60 60 LINE",
"80 0 LINE"
);
}
);
width = 708;
},
{
associatedMasterId = "083550D2-F2E8-44E3-BE3D-E8BDF41EDFC4";
layerId = "0AAF2CB4-2EBD-42C4-BAB4-4CEC92C737FB";
width = 600;
},
{
anchors = (
{
name = bottom;
position = "{354, 0}";
},
{
name = ogonek;
position = "{619, 10}";
},
{
name = top;
position = "{344, 710}";
},
{
name = topleft;
position = "{90, 600}";
}
);
layerId = "CA5CD7F6-F0E6-40F5-9716-481B35A0BC32";
paths = (
{
closed = 1;
nodes = (
"558 0 LINE",
"617 64 LINE",
"538 130 LINE",
"218 130 LINE",
"218 308 LINE",
"390 298 LINE",
"488 298 LINE",
"488 423 LINE",
"218 423 LINE",
"218 578 LINE",
"428 578 LINE",
"528 568 LINE",
"584 678 LINE",
"534 708 LINE",
"80 708 LINE",
"80 160 LINE",
"60 60 LINE",
"80 0 LINE"
);
}
);
width = 627;
},
{
associatedMasterId = "CA5CD7F6-F0E6-40F5-9716-481B35A0BC32";
layerId = "7129ED4C-FDAB-4DC5-B2C9-5FD78A86C0DC";
width = 600;
}
);
leftMetricsKey = H;
unicode = 0045;
},
{
color = 1;
glyphname = F;
layers = (
{
layerId = "083550D2-F2E8-44E3-BE3D-E8BDF41EDFC4";
paths = (
{
closed = 1;
nodes = (
"260 0 LINE",
"271 59 LINE",
"260 159 LINE",
"260 293 LINE",
"408 283 LINE",
"529 283 LINE",
"529 438 LINE",
"260 438 LINE",
"250 548 LINE",
"469 548 LINE",
"559 538 LINE",
"625 678 LINE",
"575 708 LINE",
"80 708 LINE",
"60 648 LINE",
"80 546 LINE",
"80 0 LINE"
);
}
);
width = 635;
},
{
layerId = "1A280FA7-9E72-4FC3-84C1-49B7BD56B269";
paths = (
{
closed = 1;
nodes = (
"300 0 LINE",
"311 59 LINE",
"300 159 LINE",
"300 283 LINE",
"408 273 LINE",
"549 273 LINE",
"549 438 LINE",
"300 438 LINE",
"290 518 LINE",
"489 518 LINE",
"579 508 LINE",
"645 678 LINE",
"595 708 LINE",
"80 708 LINE",
"60 648 LINE",
"80 546 LINE",
"80 0 LINE"
);
}
);
width = 655;
},
{
associatedMasterId = "083550D2-F2E8-44E3-BE3D-E8BDF41EDFC4";
layerId = "0AAF2CB4-2EBD-42C4-BAB4-4CEC92C737FB";
width = 600;
},
{
layerId = "CA5CD7F6-F0E6-40F5-9716-481B35A0BC32";
paths = (
{
closed = 1;
nodes = (
"220 0 LINE",
"231 59 LINE",
"220 159 LINE",
"220 308 LINE",
"408 298 LINE",
"489 298 LINE",
"489 423 LINE",
"220 423 LINE",
"210 578 LINE",
"449 578 LINE",
"539 568 LINE",
"585 678 LINE",
"535 708 LINE",
"80 708 LINE",
"60 648 LINE",
"80 546 LINE",
"80 0 LINE"
);
}
);
width = 595;
},
{
associatedMasterId = "CA5CD7F6-F0E6-40F5-9716-481B35A0BC32";
layerId = "C693AC7C-033B-46DA-A39E-404DB6FDEC5F";
width = 600;
}
);
leftMetricsKey = H;
unicode = 0046;
},
{
color = 1;
glyphname = G;
layers = (
{
anchors = (
{
name = bottom;
position = "{449, -10}";
},
{
name = top;
position = "{429, 720}";
}
);
layerId = "083550D2-F2E8-44E3-BE3D-E8BDF41EDFC4";
paths = (
{
closed = 1;
nodes = (
"587 -10 OFFCURVE",
"697 24 OFFCURVE",
"719 32 CURVE",
"719 242 LINE",
"741 325 LINE",
"730 385 LINE",
"412 385 LINE",
"412 237 LINE",
"539 237 LINE",
"539 161 LINE",
"520 157 OFFCURVE",
"489 149 OFFCURVE",
"429 149 CURVE SMOOTH",
"312 149 OFFCURVE",
"240 202 OFFCURVE",
"240 353 CURVE SMOOTH",
"240 492 OFFCURVE",
"321 544 OFFCURVE",
"418 544 CURVE",
"639 466 LINE",
"709 621 LINE",
"573 700 LINE",
"529 710 OFFCURVE",
"484 718 OFFCURVE",
"419 718 CURVE SMOOTH",
"240 718 OFFCURVE",
"50 640 OFFCURVE",
"50 354 CURVE SMOOTH",
"50 58 OFFCURVE",
"224 -10 OFFCURVE",
"429 -10 CURVE SMOOTH"
);
}
);
width = 801;
},
{
anchors = (
{
name = bottom;
position = "{429, 0}";
},
{
name = top;
position = "{417, 719}";
}
);
layerId = "1A280FA7-9E72-4FC3-84C1-49B7BD56B269";
paths = (
{
closed = 1;
nodes = (
"608 -10 OFFCURVE",
"717 24 OFFCURVE",
"739 32 CURVE",
"739 242 LINE",
"761 345 LINE",
"750 405 LINE",
"432 405 LINE",
"432 247 LINE",
"519 247 LINE",
"519 192 LINE",
"502 185 OFFCURVE",
"477 180 OFFCURVE",
"439 180 CURVE SMOOTH",
"338 180 OFFCURVE",
"280 225 OFFCURVE",
"280 353 CURVE SMOOTH",
"280 479 OFFCURVE",
"352 512 OFFCURVE",
"438 512 CURVE",
"659 445 LINE",
"729 621 LINE",
"593 700 LINE",
"549 710 OFFCURVE",
"494 718 OFFCURVE",
"429 718 CURVE SMOOTH",
"232 718 OFFCURVE",
"50 647 OFFCURVE",
"50 354 CURVE SMOOTH",
"50 58 OFFCURVE",
"218 -10 OFFCURVE",
"450 -10 CURVE SMOOTH"
);
}
);
width = 821;
},
{
associatedMasterId = "083550D2-F2E8-44E3-BE3D-E8BDF41EDFC4";
layerId = "0AAF2CB4-2EBD-42C4-BAB4-4CEC92C737FB";
width = 600;
},
{
anchors = (
{
name = bottom;
position = "{379, 0}";
},
{
name = top;
position = "{359, 730}";
}
);
layerId = "CA5CD7F6-F0E6-40F5-9716-481B35A0BC32";
paths = (
{
closed = 1;
nodes = (
"557 -10 OFFCURVE",
"616 24 OFFCURVE",
"638 32 CURVE",
"638 272 LINE",
"660 325 LINE",
"649 385 LINE",
"371 385 LINE",
"371 257 LINE",
"498 257 LINE",
"498 129 LINE",
"489 126 OFFCURVE",
"468 117 OFFCURVE",
"408 117 CURVE SMOOTH",
"283 117 OFFCURVE",
"199 192 OFFCURVE",
"199 353 CURVE SMOOTH",
"199 497 OFFCURVE",
"285 575 OFFCURVE",
"398 575 CURVE",
"598 497 LINE",
"658 611 LINE",
"522 700 LINE",
"478 710 OFFCURVE",
"445 718 OFFCURVE",
"388 718 CURVE SMOOTH",
"223 718 OFFCURVE",
"50 603 OFFCURVE",
"50 354 CURVE SMOOTH",
"50 72 OFFCURVE",
"206 -10 OFFCURVE",
"399 -10 CURVE SMOOTH"
);
}
);
width = 720;
},
{
associatedMasterId = "CA5CD7F6-F0E6-40F5-9716-481B35A0BC32";
layerId = "84A5E705-AA0E-4E61-8ACD-457F4D2A3415";
width = 600;
}
);
leftMetricsKey = O;
unicode = 0047;
},
{
color = 1;
glyphname = H;
layers = (
{
anchors = (
{
name = bottom;
position = "{345, 0}";
},
{
name = center;
position = "{371, 560}";
},
{
name = top;
position = "{378, 710}";
},
{
name = topleft;
position = "{0, 710}";
}
);
layerId = "083550D2-F2E8-44E3-BE3D-E8BDF41EDFC4";
paths = (
{
closed = 1;
nodes = (
"260 0 LINE",
"250 204 LINE",
"250 264 LINE",
"499 264 LINE",
"499 0 LINE",
"689 0 LINE",
"689 263 LINE",
"679 332 LINE",
"679 708 LINE",
"499 708 LINE",
"499 437 LINE",
"250 437 LINE",
"250 708 LINE",
"70 708 LINE",
"60 647 LINE",
"70 547 LINE",
"70 0 LINE"
);
}
);
width = 749;
},
{
anchors = (
{
name = bottom;
position = "{385, 0}";
},
{
name = center;
position = "{385, 580}";
},
{
name = top;
position = "{395, 707}";
},
{
name = topleft;
position = "{10, 600}";
}
);
layerId = "1A280FA7-9E72-4FC3-84C1-49B7BD56B269";
paths = (
{
closed = 1;
nodes = (
"300 0 LINE",
"290 184 LINE",
"290 254 LINE",
"499 254 LINE",
"499 0 LINE",
"729 0 LINE",
"729 263 LINE",
"719 332 LINE",
"719 708 LINE",
"499 708 LINE",
"499 437 LINE",
"290 437 LINE",
"290 708 LINE",
"70 708 LINE",
"60 647 LINE",
"70 547 LINE",
"70 0 LINE"
);
}
);
width = 789;
},
{
associatedMasterId = "083550D2-F2E8-44E3-BE3D-E8BDF41EDFC4";
layerId = "0AAF2CB4-2EBD-42C4-BAB4-4CEC92C737FB";
width = 600;
},
{
anchors = (
{
name = bottom;
position = "{356, 0}";
},
{
name = center;
position = "{356, 550}";
},
{
name = top;
position = "{356, 708}";
},
{
name = topleft;
position = "{21, 600}";
}
);
layerId = "CA5CD7F6-F0E6-40F5-9716-481B35A0BC32";
paths = (
{
closed = 1;
nodes = (
"220 0 LINE",
"210 204 LINE",
"210 285 LINE",
"499 285 LINE",
"499 0 LINE",
"649 0 LINE",
"649 263 LINE",
"639 332 LINE",
"639 708 LINE",
"499 708 LINE",
"499 416 LINE",
"210 416 LINE",
"210 708 LINE",
"70 708 LINE",
"60 647 LINE",
"70 547 LINE",
"70 0 LINE"
);
}
);
width = 709;
},
{
associatedMasterId = "CA5CD7F6-F0E6-40F5-9716-481B35A0BC32";
layerId = "5B43ADC3-E4AF-467B-9F09-48D3D33435B7";
width = 600;
}
);
unicode = 0048;
},
{
color = 1;
glyphname = I;
layers = (
{
anchors = (
{
name = bottom;
position = "{157, 0}";
},
{
name = ogonek;
position = "{167, 10}";
},
{
name = top;
position = "{147, 710}";
},
{
name = topleft;
position = "{40, 710}";
}
);
layerId = "083550D2-F2E8-44E3-BE3D-E8BDF41EDFC4";
paths = (
{
closed = 1;
nodes = (
"251 0 LINE",
"251 708 LINE",
"70 708 LINE",
"60 648 LINE",
"70 548 LINE",
"70 0 LINE"
);
}
);
width = 311;
},
{
anchors = (
{
name = bottom;
position = "{177, 0}";
},
{
name = ogonek;
position = "{247, 20}";
},
{
name = top;
position = "{177, 708}";
},
{
name = topleft;
position = "{-10, 600}";
}
);
layerId = "1A280FA7-9E72-4FC3-84C1-49B7BD56B269";
paths = (
{
closed = 1;
nodes = (
"291 0 LINE",
"291 708 LINE",
"70 708 LINE",
"60 648 LINE",
"70 548 LINE",
"70 0 LINE"
);
}
);
width = 351;
},
{
associatedMasterId = "083550D2-F2E8-44E3-BE3D-E8BDF41EDFC4";
layerId = "0AAF2CB4-2EBD-42C4-BAB4-4CEC92C737FB";
width = 600;
},
{
anchors = (
{
name = bottom;
position = "{146, 0}";
},
{
name = ogonek;
position = "{196, 20}";
},
{
name = top;
position = "{136, 710}";
},
{
name = topleft;
position = "{29, 600}";
}
);
layerId = "CA5CD7F6-F0E6-40F5-9716-481B35A0BC32";
paths = (
{
closed = 1;
nodes = (
"210 0 LINE",
"210 708 LINE",
"70 708 LINE",
"60 648 LINE",
"70 548 LINE",
"70 0 LINE"
);
}
);
width = 270;
},
{
associatedMasterId = "CA5CD7F6-F0E6-40F5-9716-481B35A0BC32";
layerId = "6EA050EC-D9A5-4622-8025-6B43D5C307DB";
width = 600;
}
);
leftMetricsKey = H;
rightMetricsKey = H;
unicode = 0049;
},
{
color = 1;
glyphname = J;
layers = (
{
anchors = (
{
name = bottom;
position = "{220, 0}";
},
{
name = top;
position = "{364, 710}";
}
);
layerId = "083550D2-F2E8-44E3-BE3D-E8BDF41EDFC4";
paths = (
{
closed = 1;
nodes = (
"439 -10 OFFCURVE",
"550 88 OFFCURVE",
"550 267 CURVE",
"549 708 LINE",
"360 708 LINE",
"349 648 LINE",
"371 548 LINE",
"371 299 LINE SMOOTH",
"371 198 OFFCURVE",
"337 148 OFFCURVE",
"255 148 CURVE",
"70 212 LINE",
"10 60 LINE",
"140 0 LINE",
"168 -6 OFFCURVE",
"202 -10 OFFCURVE",
"241 -10 CURVE SMOOTH"
);
}
);
width = 620;
},
{
anchors = (
{
name = bottom;
position = "{300, 0}";
},
{
name = top;
position = "{440, 718}";
}
);
layerId = "1A280FA7-9E72-4FC3-84C1-49B7BD56B269";
paths = (
{
closed = 1;
nodes = (
"459 -10 OFFCURVE",
"570 88 OFFCURVE",
"570 267 CURVE",
"569 708 LINE",
"338 708 LINE",
"328 648 LINE",
"349 548 LINE",
"349 299 LINE SMOOTH",
"349 208 OFFCURVE",
"327 178 OFFCURVE",
"275 178 CURVE",
"70 242 LINE",
"10 70 LINE",
"160 0 LINE",
"188 -6 OFFCURVE",
"222 -10 OFFCURVE",
"261 -10 CURVE SMOOTH"
);
}
);
width = 640;
},
{
associatedMasterId = "083550D2-F2E8-44E3-BE3D-E8BDF41EDFC4";
layerId = "0AAF2CB4-2EBD-42C4-BAB4-4CEC92C737FB";
width = 600;
},
{
anchors = (
{
name = bottom;
position = "{210, 0}";
},
{
name = top;
position = "{435, 710}";
}
);
layerId = "CA5CD7F6-F0E6-40F5-9716-481B35A0BC32";
paths = (
{
closed = 1;
nodes = (
"400 -10 OFFCURVE",
"490 97 OFFCURVE",
"490 247 CURVE",
"489 708 LINE",
"342 708 LINE",
"331 648 LINE",
"352 548 LINE",
"352 299 LINE SMOOTH",
"352 171 OFFCURVE",
"313 118 OFFCURVE",
"215 118 CURVE",
"70 182 LINE",
"10 70 LINE",
"120 0 LINE",
"148 -6 OFFCURVE",
"202 -10 OFFCURVE",
"241 -10 CURVE SMOOTH"
);
}
);
width = 560;
},
{
associatedMasterId = "CA5CD7F6-F0E6-40F5-9716-481B35A0BC32";
layerId = "1C3C4F4D-A4EB-4044-8DE0-C6D03D151569";
width = 600;
}
);
unicode = 004A;
},
{
color = 1;
glyphname = K;
layers = (
{
anchors = (
{
name = bottom;
position = "{338, 0}";
},
{
name = top;
position = "{318, 600}";
}
);
layerId = "083550D2-F2E8-44E3-BE3D-E8BDF41EDFC4";
paths = (
{
closed = 1;
nodes = (
"260 0 LINE",
"270 60 LINE",
"260 120 LINE",
"260 255 LINE",
"332 265 LINE",
"514 0 LINE",
"739 0 LINE",
"739 60 LINE",
"640 159 LINE",
"472 367 LINE",
"670 648 LINE",
"670 708 LINE",
"471 708 LINE",
"310 409 LINE",
"250 409 LINE",
"260 588 LINE",
"260 708 LINE",
"80 708 LINE",
"60 645 LINE",
"80 544 LINE",
"80 0 LINE"
);
}
);
width = 749;
},
{
anchors = (
{
name = bottom;
position = "{378, 0}";
},
{
name = top;
position = "{358, 600}";
}
);
layerId = "1A280FA7-9E72-4FC3-84C1-49B7BD56B269";
paths = (
{
closed = 1;
nodes = (
"300 0 LINE",
"310 60 LINE",
"300 120 LINE",
"300 235 LINE",
"342 245 LINE",
"514 0 LINE",
"779 0 LINE",
"779 60 LINE",
"680 159 LINE",
"512 367 LINE",
"710 648 LINE",
"710 708 LINE",
"471 708 LINE",
"320 429 LINE",
"290 429 LINE",
"300 588 LINE",
"300 708 LINE",
"80 708 LINE",
"60 645 LINE",
"80 544 LINE",
"80 0 LINE"
);
}
);
width = 789;
},
{
associatedMasterId = "083550D2-F2E8-44E3-BE3D-E8BDF41EDFC4";
layerId = "0AAF2CB4-2EBD-42C4-BAB4-4CEC92C737FB";
width = 600;
},
{
anchors = (
{
name = bottom;
position = "{318, 0}";
},
{
name = top;
position = "{298, 600}";
}
);
layerId = "CA5CD7F6-F0E6-40F5-9716-481B35A0BC32";
paths = (
{
closed = 1;
nodes = (
"220 0 LINE",
"230 60 LINE",
"220 120 LINE",
"220 275 LINE",
"312 285 LINE",
"494 0 LINE",
"679 0 LINE",
"679 60 LINE",
"580 159 LINE",
"412 367 LINE",
"610 648 LINE",
"610 708 LINE",
"451 708 LINE",
"290 399 LINE",
"210 399 LINE",
"220 588 LINE",
"220 708 LINE",
"80 708 LINE",
"60 645 LINE",
"80 544 LINE",
"80 0 LINE"
);
}
);
width = 689;
},
{
associatedMasterId = "CA5CD7F6-F0E6-40F5-9716-481B35A0BC32";
layerId = "79179E7E-3999-4BD3-84AB-6468081ADC3F";
width = 600;
}
);
leftMetricsKey = H;
unicode = 004B;
},
{
color = 1;
glyphname = L;
layers = (
{
anchors = (
{
name = bottom;
position = "{254, 0}";
},
{
name = center;
position = "{164, 370}";
},
{
name = top;
position = "{294, 710}";
},
{
name = topright;
position = "{597, 600}";
}
);
layerId = "083550D2-F2E8-44E3-BE3D-E8BDF41EDFC4";
paths = (
{
closed = 1;
nodes = (
"559 0 LINE",
"608 64 LINE",
"520 180 LINE",
"449 170 LINE",
"270 160 LINE",
"250 160 LINE",
"260 297 LINE",
"260 708 LINE",
"80 708 LINE",
"80 160 LINE",
"60 60 LINE",
"80 0 LINE"
);
}
);
width = 618;
},
{
anchors = (
{
name = bottom;
position = "{324, 0}";
},
{
name = center;
position = "{189, 380}";
},
{
name = top;
position = "{300, 708}";
},
{
name = topright;
position = "{617, 690}";
}
);
layerId = "1A280FA7-9E72-4FC3-84C1-49B7BD56B269";
paths = (
{
closed = 1;
nodes = (
"599 0 LINE",
"648 64 LINE",
"560 210 LINE",
"489 200 LINE",
"310 190 LINE",
"290 190 LINE",
"300 327 LINE",
"300 708 LINE",
"80 708 LINE",
"80 160 LINE",
"60 60 LINE",
"80 0 LINE"
);
}
);
width = 658;
},
{
anchors = (
{
name = bottom;
position = "{324, 0}";
},
{
name = center;
position = "{150, 390}";
},
{
name = top;
position = "{304, 710}";
},
{
name = topright;
position = "{617, 600}";
}
);
layerId = "CA5CD7F6-F0E6-40F5-9716-481B35A0BC32";
paths = (
{
closed = 1;
nodes = (
"539 0 LINE",
"588 64 LINE",
"520 150 LINE",
"449 140 LINE",
"230 130 LINE",
"210 130 LINE",
"220 297 LINE",
"220 708 LINE",
"80 708 LINE",
"80 160 LINE",
"60 60 LINE",
"80 0 LINE"
);
}
);
width = 598;
}
);
leftMetricsKey = H;
unicode = 004C;
},
{
color = 1;
glyphname = M;
layers = (
{
layerId = "083550D2-F2E8-44E3-BE3D-E8BDF41EDFC4";
paths = (
{
closed = 1;
nodes = (
"272 0 LINE",
"262 283 LINE",
"262 364 LINE",
"272 364 LINE",
"410 100 LINE",
"530 100 LINE",
"620 268 LINE",
"660 364 LINE",
"671 364 LINE",
"671 85 LINE",
"668 0 LINE",
"849 0 LINE",
"849 551 LINE",
"859 647 LINE",
"849 707 LINE",
"650 707 LINE",
"488 327 LINE",
"468 327 LINE",
"272 707 LINE",
"81 707 LINE",
"60 647 LINE",
"80 547 LINE",
"80 0 LINE"
);
}
);
width = 919;
},
{
layerId = "1A280FA7-9E72-4FC3-84C1-49B7BD56B269";
paths = (
{
closed = 1;
nodes = (
"314 0 LINE",
"304 283 LINE",
"304 364 LINE",
"314 364 LINE",
"432 100 LINE",
"592 100 LINE",
"664 259 LINE",
"702 364 LINE",
"713 364 LINE",
"713 85 LINE",
"710 0 LINE",
"931 0 LINE",
"931 551 LINE",
"941 647 LINE",
"931 707 LINE",
"692 707 LINE",
"530 357 LINE",
"510 357 LINE",
"314 707 LINE",
"81 707 LINE",
"60 647 LINE",
"80 547 LINE",
"80 0 LINE"
);
}
);
width = 1001;
},
{
associatedMasterId = "083550D2-F2E8-44E3-BE3D-E8BDF41EDFC4";
layerId = "0AAF2CB4-2EBD-42C4-BAB4-4CEC92C737FB";
width = 600;
},
{
layerId = "CA5CD7F6-F0E6-40F5-9716-481B35A0BC32";
paths = (
{
closed = 1;
nodes = (
"230 0 LINE",
"220 363 LINE",
"220 444 LINE",
"230 444 LINE",
"390 100 LINE",
"510 100 LINE",
"626 361 LINE",
"660 444 LINE",
"671 444 LINE",
"671 85 LINE",
"668 0 LINE",
"809 0 LINE",
"809 551 LINE",
"819 647 LINE",
"809 707 LINE",
"650 707 LINE",
"468 287 LINE",
"448 287 LINE",
"232 707 LINE",
"81 707 LINE",
"60 647 LINE",
"80 547 LINE",
"80 0 LINE"
);
}
);
width = 879;
},
{
associatedMasterId = "CA5CD7F6-F0E6-40F5-9716-481B35A0BC32";
layerId = "FC758BEA-8862-433A-959B-54801E6FFFB2";
width = 600;
}
);
leftMetricsKey = H;
rightMetricsKey = H;
unicode = 004D;
},
{
color = 1;
glyphname = N;
layers = (
{
anchors = (
{
name = bottom;
position = "{395, 0}";
},
{
name = top;
position = "{385, 710}";
}
);
layerId = "083550D2-F2E8-44E3-BE3D-E8BDF41EDFC4";
paths = (
{
closed = 1;
nodes = (
"272 0 LINE",
"262 292 LINE",
"262 352 LINE",
"272 352 LINE",
"523 0 LINE",
"680 0 LINE",
"680 547 LINE",
"690 647 LINE",
"690 707 LINE",
"501 707 LINE",
"501 352 LINE",
"491 352 LINE",
"443 435 LINE",
"241 707 LINE",
"80 707 LINE",
"60 647 LINE",
"80 547 LINE",
"80 0 LINE"
);
}
);
width = 750;
},
{
anchors = (
{
name = bottom;
position = "{425, 0}";
},
{
name = top;
position = "{435, 700}";
}
);
layerId = "1A280FA7-9E72-4FC3-84C1-49B7BD56B269";
paths = (
{
closed = 1;
nodes = (
"312 0 LINE",
"302 282 LINE",
"302 342 LINE",
"312 342 LINE",
"563 0 LINE",
"762 0 LINE",
"762 547 LINE",
"772 647 LINE",
"772 707 LINE",
"541 707 LINE",
"541 372 LINE",
"531 372 LINE",
"483 455 LINE",
"281 707 LINE",
"80 707 LINE",
"60 647 LINE",
"80 547 LINE",
"80 0 LINE"
);
}
);
width = 832;
},
{
anchors = (
{
name = bottom;
position = "{375, 0}";
},
{
name = top;
position = "{375, 710}";
}
);
layerId = "CA5CD7F6-F0E6-40F5-9716-481B35A0BC32";
paths = (
{
closed = 1;
nodes = (
"230 0 LINE",
"220 372 LINE",
"220 432 LINE",
"230 432 LINE",
"523 0 LINE",
"638 0 LINE",
"638 547 LINE",
"648 647 LINE",
"648 707 LINE",
"501 707 LINE",
"501 272 LINE",
"491 272 LINE",
"443 355 LINE",
"201 707 LINE",
"80 707 LINE",
"60 647 LINE",
"80 547 LINE",
"80 0 LINE"
);
}
);
width = 708;
}
);
leftMetricsKey = H;
rightMetricsKey = H;
unicode = 004E;
},
{
color = 1;
glyphname = Eng;
layers = (
{
layerId = "083550D2-F2E8-44E3-BE3D-E8BDF41EDFC4";
paths = (
{
closed = 1;
nodes = (
"272 0 LINE",
"262 292 LINE",
"262 352 LINE",
"272 352 LINE",
"523 0 LINE",
"680 0 LINE",
"680 547 LINE",
"690 647 LINE",
"690 707 LINE",
"501 707 LINE",
"501 352 LINE",
"491 352 LINE",
"443 435 LINE",
"241 707 LINE",
"80 707 LINE",
"60 647 LINE",
"80 547 LINE",
"80 0 LINE"
);
},
{
closed = 1;
nodes = (
"578 -245 OFFCURVE",
"680 -186 OFFCURVE",
"680 -54 CURVE SMOOTH",
"680 81 LINE",
"447 107 LINE",
"471 74 OFFCURVE",
"501 15 OFFCURVE",
"501 -21 CURVE SMOOTH",
"501 -67 OFFCURVE",
"492 -82 OFFCURVE",
"458 -82 CURVE",
"370 -58 LINE",
"330 -207 LINE",
"459 -245 LINE"
);
}
);
width = 750;
},
{
layerId = "1A280FA7-9E72-4FC3-84C1-49B7BD56B269";
paths = (
{
closed = 1;
nodes = (
"312 0 LINE",
"302 282 LINE",
"302 342 LINE",
"312 342 LINE",
"563 0 LINE",
"762 0 LINE",
"762 547 LINE",
"772 647 LINE",
"772 707 LINE",
"541 707 LINE",
"541 372 LINE",
"531 372 LINE",
"483 455 LINE",
"281 707 LINE",
"80 707 LINE",
"60 647 LINE",
"80 547 LINE",
"80 0 LINE"
);
},
{
closed = 1;
nodes = (
"669 -245 OFFCURVE",
"762 -171 OFFCURVE",
"762 -23 CURVE SMOOTH",
"762 81 LINE",
"487 104 LINE",
"511 71 OFFCURVE",
"541 36 OFFCURVE",
"541 0 CURVE SMOOTH",
"541 -33 OFFCURVE",
"525 -50 OFFCURVE",
"498 -50 CURVE",
"410 -37 LINE",
"370 -207 LINE",
"539 -245 LINE"
);
}
);
width = 832;
},
{
layerId = "CA5CD7F6-F0E6-40F5-9716-481B35A0BC32";
paths = (
{
closed = 1;
nodes = (
"230 1 LINE",
"220 373 LINE",
"220 433 LINE",
"230 433 LINE",
"523 1 LINE",
"638 1 LINE",
"638 548 LINE",
"648 648 LINE",
"648 708 LINE",
"501 708 LINE",
"501 273 LINE",
"491 273 LINE",
"443 356 LINE",
"201 708 LINE",
"80 708 LINE",
"60 648 LINE",
"80 548 LINE",
"80 1 LINE"
);
},
{
closed = 1;
nodes = (
"578 -244 OFFCURVE",
"638 -185 OFFCURVE",
"638 -53 CURVE SMOOTH",
"638 82 LINE",
"465 87 LINE",
"489 48 OFFCURVE",
"501 8 OFFCURVE",
"501 -50 CURVE SMOOTH",
"501 -97 OFFCURVE",
"481 -112 OFFCURVE",
"447 -112 CURVE",
"359 -88 LINE",
"330 -206 LINE",
"459 -244 LINE"
);
}
);
width = 708;
}
);
leftMetricsKey = N;
rightMetricsKey = N;
unicode = 014A;
},
{
color = 1;
glyphname = Nhookleft;
layers = (
{
layerId = "083550D2-F2E8-44E3-BE3D-E8BDF41EDFC4";
paths = (
{
closed = 1;
nodes = (
"283 0 LINE",
"283 352 LINE",
"293 352 LINE",
"544 0 LINE",
"701 0 LINE",
"701 547 LINE",
"711 647 LINE",
"711 707 LINE",
"522 707 LINE",
"522 352 LINE",
"512 352 LINE",
"464 435 LINE",
"262 707 LINE",
"101 707 LINE",
"81 647 LINE",
"101 547 LINE",
"101 0 LINE"
);
},
{
closed = 1;
nodes = (
"178 -245 OFFCURVE",
"283 -186 OFFCURVE",
"283 -54 CURVE SMOOTH",
"283 81 LINE",
"101 81 LINE",
"101 -21 LINE SMOOTH",
"101 -67 OFFCURVE",
"92 -82 OFFCURVE",
"58 -82 CURVE",
"-30 -58 LINE",
"-70 -207 LINE",
"59 -245 LINE"
);
}
);
width = 771;
},
{
layerId = "1A280FA7-9E72-4FC3-84C1-49B7BD56B269";
paths = (
{
closed = 1;
nodes = (
"332 0 LINE",
"332 342 LINE",
"342 342 LINE",
"593 0 LINE",
"792 0 LINE",
"792 547 LINE",
"802 647 LINE",
"802 707 LINE",
"571 707 LINE",
"571 372 LINE",
"561 372 LINE",
"513 455 LINE",
"311 707 LINE",
"110 707 LINE",
"90 647 LINE",
"110 547 LINE",
"110 0 LINE"
);
},
{
closed = 1;
nodes = (
"225 -245 OFFCURVE",
"331 -183 OFFCURVE",
"331 -54 CURVE SMOOTH",
"331 81 LINE",
"111 81 LINE",
"111 11 LINE SMOOTH",
"111 -36 OFFCURVE",
"102 -50 OFFCURVE",
"68 -50 CURVE",
"-20 -26 LINE",
"-70 -207 LINE",
"90 -245 LINE"
);
}
);
width = 862;
},
{
layerId = "CA5CD7F6-F0E6-40F5-9716-481B35A0BC32";
paths = (
{
closed = 1;
nodes = (
"241 1 LINE",
"241 433 LINE",
"251 433 LINE",
"544 1 LINE",
"659 1 LINE",
"659 548 LINE",
"669 648 LINE",
"669 708 LINE",
"522 708 LINE",
"522 273 LINE",
"512 273 LINE",
"464 356 LINE",
"222 708 LINE",
"101 708 LINE",
"81 648 LINE",
"101 548 LINE",
"101 1 LINE"
);
},
{
closed = 1;
nodes = (
"178 -244 OFFCURVE",
"241 -185 OFFCURVE",
"241 -53 CURVE SMOOTH",
"241 82 LINE",
"101 82 LINE",
"101 -51 LINE SMOOTH",
"101 -98 OFFCURVE",
"92 -112 OFFCURVE",
"58 -112 CURVE",
"-40 -88 LINE",
"-70 -206 LINE",
"59 -244 LINE"
);
}
);
width = 729;
}
);
leftMetricsKey = j;
rightMetricsKey = N;
unicode = 019D;
},
{
color = 1;
glyphname = O;
layers = (
{
anchors = (
{
name = bottom;
position = "{398, -10}";
},
{
name = center;
position = "{388, 350}";
},
{
name = ogonek;
position = "{492, 10}";
},
{
name = top;
position = "{389, 710}";
},
{
name = topleft;
position = "{60, 600}";
},
{
name = topright;
position = "{736, 580}";
}
);
layerId = "083550D2-F2E8-44E3-BE3D-E8BDF41EDFC4";
paths = (
{
closed = 1;
nodes = (
"559 -10 OFFCURVE",
"728 60 OFFCURVE",
"728 354 CURVE SMOOTH",
"728 648 OFFCURVE",
"559 718 OFFCURVE",
"389 718 CURVE SMOOTH",
"219 718 OFFCURVE",
"50 650 OFFCURVE",
"50 354 CURVE SMOOTH",
"50 58 OFFCURVE",
"219 -10 OFFCURVE",
"389 -10 CURVE SMOOTH"
);
},
{
closed = 1;
nodes = (
"291 160 OFFCURVE",
"240 215 OFFCURVE",
"240 354 CURVE SMOOTH",
"240 493 OFFCURVE",
"291 548 OFFCURVE",
"389 548 CURVE SMOOTH",
"487 548 OFFCURVE",
"539 495 OFFCURVE",
"539 354 CURVE SMOOTH",
"539 213 OFFCURVE",
"487 160 OFFCURVE",
"389 160 CURVE SMOOTH"
);
}
);
width = 778;
},
{
anchors = (
{
name = bottom;
position = "{409, 0}";
},
{
name = center;
position = "{410, 361}";
},
{
name = ogonek;
position = "{502, 10}";
},
{
name = top;
position = "{410, 728}";
},
{
name = topleft;
position = "{40, 600}";
},
{
name = topright;
position = "{786, 590}";
}
);
layerId = "1A280FA7-9E72-4FC3-84C1-49B7BD56B269";
paths = (
{
closed = 1;
nodes = (
"580 -10 OFFCURVE",
"770 60 OFFCURVE",
"770 354 CURVE SMOOTH",
"770 648 OFFCURVE",
"580 718 OFFCURVE",
"410 718 CURVE SMOOTH",
"240 718 OFFCURVE",
"50 650 OFFCURVE",
"50 354 CURVE SMOOTH",
"50 58 OFFCURVE",
"240 -10 OFFCURVE",
"410 -10 CURVE SMOOTH"
);
},
{
closed = 1;
nodes = (
"323 190 OFFCURVE",
"280 242 OFFCURVE",
"280 354 CURVE SMOOTH",
"280 464 OFFCURVE",
"323 518 OFFCURVE",
"410 518 CURVE SMOOTH",
"497 518 OFFCURVE",
"541 466 OFFCURVE",
"541 354 CURVE SMOOTH",
"541 240 OFFCURVE",
"497 190 OFFCURVE",
"410 190 CURVE SMOOTH"
);
}
);
width = 820;
},
{
anchors = (
{
name = bottom;
position = "{348, 0}";
},
{
name = center;
position = "{358, 360}";
},
{
name = ogonek;
position = "{502, 30}";
},
{
name = top;
position = "{348, 730}";
},
{
name = topleft;
position = "{40, 600}";
},
{
name = topright;
position = "{656, 580}";
}
);
layerId = "CA5CD7F6-F0E6-40F5-9716-481B35A0BC32";
paths = (
{
closed = 1;
nodes = (
"506 -10 OFFCURVE",
"648 60 OFFCURVE",
"648 354 CURVE SMOOTH",
"648 648 OFFCURVE",
"506 718 OFFCURVE",
"349 718 CURVE SMOOTH",
"199 718 OFFCURVE",
"50 650 OFFCURVE",
"50 354 CURVE SMOOTH",
"50 58 OFFCURVE",
"199 -10 OFFCURVE",
"349 -10 CURVE SMOOTH"
);
},
{
closed = 1;
nodes = (
"224 130 OFFCURVE",
"200 215 OFFCURVE",
"200 354 CURVE SMOOTH",
"200 493 OFFCURVE",
"224 578 OFFCURVE",
"349 578 CURVE SMOOTH",
"474 578 OFFCURVE",
"499 495 OFFCURVE",
"499 354 CURVE SMOOTH",
"499 213 OFFCURVE",
"474 130 OFFCURVE",
"349 130 CURVE SMOOTH"
);
}
);
width = 698;
}
);
unicode = 004F;
},
{
color = 1;
glyphname = OE;
layers = (
{
components = (
{
name = E;
transform = "{1, 0, 0, 1, 470, 0}";
}
);
layerId = "083550D2-F2E8-44E3-BE3D-E8BDF41EDFC4";
paths = (
{
closed = 1;
nodes = (
"522 -10 OFFCURVE",
"668 98 OFFCURVE",
"668 354 CURVE SMOOTH",
"668 608 OFFCURVE",
"529 718 OFFCURVE",
"368 718 CURVE SMOOTH",
"219 718 OFFCURVE",
"50 650 OFFCURVE",
"50 354 CURVE SMOOTH",
"50 58 OFFCURVE",
"219 -10 OFFCURVE",
"368 -10 CURVE SMOOTH"
);
},
{
closed = 1;
nodes = (
"291 160 OFFCURVE",
"240 215 OFFCURVE",
"240 354 CURVE SMOOTH",
"240 493 OFFCURVE",
"291 548 OFFCURVE",
"389 548 CURVE SMOOTH",
"458 548 OFFCURVE",
"539 495 OFFCURVE",
"539 354 CURVE SMOOTH",
"539 213 OFFCURVE",
"458 160 OFFCURVE",
"389 160 CURVE SMOOTH"
);
}
);
width = 1158;
},
{
components = (
{
name = E;
transform = "{1, 0, 0, 1, 460, 0}";
}
);
layerId = "1A280FA7-9E72-4FC3-84C1-49B7BD56B269";
paths = (
{
closed = 1;
nodes = (
"527 -10 OFFCURVE",
"660 92 OFFCURVE",
"660 354 CURVE SMOOTH",
"660 606 OFFCURVE",
"527 718 OFFCURVE",
"369 718 CURVE SMOOTH",
"231 718 OFFCURVE",
"50 650 OFFCURVE",
"50 354 CURVE SMOOTH",
"50 58 OFFCURVE",
"231 -10 OFFCURVE",
"369 -10 CURVE SMOOTH"
);
},
{
closed = 1;
nodes = (
"322 190 OFFCURVE",
"280 242 OFFCURVE",
"280 354 CURVE SMOOTH",
"280 464 OFFCURVE",
"322 518 OFFCURVE",
"410 518 CURVE SMOOTH",
"497 518 OFFCURVE",
"541 466 OFFCURVE",
"541 354 CURVE SMOOTH",
"541 240 OFFCURVE",
"497 190 OFFCURVE",
"410 190 CURVE SMOOTH"
);
}
);
width = 1168;
},
{
associatedMasterId = "083550D2-F2E8-44E3-BE3D-E8BDF41EDFC4";
layerId = "0AAF2CB4-2EBD-42C4-BAB4-4CEC92C737FB";
width = 600;
},
{
components = (
{
name = E;
transform = "{1, 0, 0, 1, 420, 0}";
}
);
layerId = "CA5CD7F6-F0E6-40F5-9716-481B35A0BC32";
paths = (
{
closed = 1;
nodes = (
"505 -10 OFFCURVE",
"607 113 OFFCURVE",
"607 354 CURVE SMOOTH",
"607 590 OFFCURVE",
"505 718 OFFCURVE",
"349 718 CURVE SMOOTH",
"199 718 OFFCURVE",
"50 650 OFFCURVE",
"50 354 CURVE SMOOTH",
"50 58 OFFCURVE",
"199 -10 OFFCURVE",
"349 -10 CURVE SMOOTH"
);
},
{
closed = 1;
nodes = (
"224 130 OFFCURVE",
"200 215 OFFCURVE",
"200 354 CURVE SMOOTH",
"200 493 OFFCURVE",
"224 578 OFFCURVE",
"349 578 CURVE SMOOTH",
"473 578 OFFCURVE",
"499 495 OFFCURVE",
"499 354 CURVE SMOOTH",
"499 213 OFFCURVE",
"473 130 OFFCURVE",
"349 130 CURVE SMOOTH"
);
}
);
width = 1047;
},
{
associatedMasterId = "CA5CD7F6-F0E6-40F5-9716-481B35A0BC32";
layerId = "3AE67AF9-1C87-4966-928E-941A822C7742";
width = 600;
}
);
leftMetricsKey = O;
rightMetricsKey = E;
unicode = 0152;
},
{
color = 1;
glyphname = P;
layers = (
{
layerId = "083550D2-F2E8-44E3-BE3D-E8BDF41EDFC4";
paths = (
{
closed = 1;
nodes = (
"260 0 LINE",
"270 61 LINE",
"260 161 LINE",
"260 213 LINE",
"370 213 LINE SMOOTH",
"538 213 OFFCURVE",
"659 274 OFFCURVE",
"659 462 CURVE SMOOTH",
"659 650 OFFCURVE",
"545 708 OFFCURVE",
"400 708 CURVE SMOOTH",
"80 708 LINE",
"60 648 LINE",
"80 547 LINE",
"80 0 LINE"
);
},
{
closed = 1;
nodes = (
"250 548 LINE",
"354 548 LINE SMOOTH",
"424 548 OFFCURVE",
"472 536 OFFCURVE",
"472 462 CURVE SMOOTH",
"472 391 OFFCURVE",
"427 370 OFFCURVE",
"358 370 CURVE SMOOTH",
"260 370 LINE"
);
}
);
width = 709;
},
{
layerId = "1A280FA7-9E72-4FC3-84C1-49B7BD56B269";
paths = (
{
closed = 1;
nodes = (
"300 0 LINE",
"310 61 LINE",
"300 161 LINE",
"300 183 LINE",
"410 183 LINE SMOOTH",
"594 183 OFFCURVE",
"699 259 OFFCURVE",
"699 447 CURVE SMOOTH",
"699 635 OFFCURVE",
"601 708 OFFCURVE",
"440 708 CURVE SMOOTH",
"80 708 LINE",
"60 648 LINE",
"80 547 LINE",
"80 0 LINE"
);
},
{
closed = 1;
nodes = (
"290 518 LINE",
"354 518 LINE SMOOTH",
"424 518 OFFCURVE",
"472 516 OFFCURVE",
"472 442 CURVE SMOOTH",
"472 371 OFFCURVE",
"427 370 OFFCURVE",
"358 370 CURVE SMOOTH",
"300 370 LINE"
);
}
);
width = 749;
},
{
associatedMasterId = "083550D2-F2E8-44E3-BE3D-E8BDF41EDFC4";
layerId = "0AAF2CB4-2EBD-42C4-BAB4-4CEC92C737FB";
width = 600;
},
{
layerId = "CA5CD7F6-F0E6-40F5-9716-481B35A0BC32";
paths = (
{
closed = 1;
nodes = (
"220 0 LINE",
"230 61 LINE",
"220 161 LINE",
"220 213 LINE",
"290 213 LINE SMOOTH",
"458 213 OFFCURVE",
"579 274 OFFCURVE",
"579 462 CURVE SMOOTH",
"579 650 OFFCURVE",
"465 708 OFFCURVE",
"320 708 CURVE SMOOTH",
"80 708 LINE",
"60 648 LINE",
"80 547 LINE",
"80 0 LINE"
);
},
{
closed = 1;
nodes = (
"210 578 LINE",
"314 578 LINE SMOOTH",
"403 578 OFFCURVE",
"432 536 OFFCURVE",
"432 462 CURVE SMOOTH",
"432 391 OFFCURVE",
"406 340 OFFCURVE",
"318 340 CURVE SMOOTH",
"220 340 LINE"
);
}
);
width = 629;
},
{
associatedMasterId = "CA5CD7F6-F0E6-40F5-9716-481B35A0BC32";
layerId = "FAD15C8D-83A4-4393-AF95-F431071D27BE";
width = 600;
}
);
leftMetricsKey = H;
rightMetricsKey = O;
unicode = 0050;
},
{
color = 1;
glyphname = Thorn;
layers = (
{
layerId = "083550D2-F2E8-44E3-BE3D-E8BDF41EDFC4";
paths = (
{
closed = 1;
nodes = (
"240 0 LINE",
"240 113 LINE",
"320 113 LINE SMOOTH",
"488 113 OFFCURVE",
"609 174 OFFCURVE",
"609 362 CURVE SMOOTH",
"609 550 OFFCURVE",
"495 608 OFFCURVE",
"350 608 CURVE SMOOTH",
"240 608 LINE",
"240 708 LINE",
"60 708 LINE",
"60 0 LINE"
);
},
{
closed = 1;
nodes = (
"240 448 LINE",
"304 448 LINE SMOOTH",
"374 448 OFFCURVE",
"422 436 OFFCURVE",
"422 362 CURVE SMOOTH",
"422 291 OFFCURVE",
"377 270 OFFCURVE",
"308 270 CURVE SMOOTH",
"240 270 LINE"
);
}
);
width = 659;
},
{
layerId = "1A280FA7-9E72-4FC3-84C1-49B7BD56B269";
paths = (
{
closed = 1;
nodes = (
"280 0 LINE",
"280 113 LINE",
"340 113 LINE SMOOTH",
"508 113 OFFCURVE",
"629 174 OFFCURVE",
"629 362 CURVE SMOOTH",
"629 550 OFFCURVE",
"515 608 OFFCURVE",
"370 608 CURVE SMOOTH",
"280 608 LINE",
"280 708 LINE",
"60 708 LINE",
"60 0 LINE"
);
},
{
closed = 1;
nodes = (
"280 418 LINE",
"304 418 LINE SMOOTH",
"374 418 OFFCURVE",
"402 409 OFFCURVE",
"402 362 CURVE SMOOTH",
"402 316 OFFCURVE",
"377 301 OFFCURVE",
"308 301 CURVE SMOOTH",
"280 301 LINE"
);
}
);
width = 679;
},
{
associatedMasterId = "083550D2-F2E8-44E3-BE3D-E8BDF41EDFC4";
layerId = "0AAF2CB4-2EBD-42C4-BAB4-4CEC92C737FB";
width = 600;
},
{
layerId = "CA5CD7F6-F0E6-40F5-9716-481B35A0BC32";
paths = (
{
closed = 1;
nodes = (
"200 0 LINE",
"200 113 LINE",
"300 113 LINE SMOOTH",
"468 113 OFFCURVE",
"589 174 OFFCURVE",
"589 362 CURVE SMOOTH",
"589 550 OFFCURVE",
"475 608 OFFCURVE",
"330 608 CURVE SMOOTH",
"200 608 LINE",
"200 708 LINE",
"60 708 LINE",
"60 0 LINE"
);
},
{
closed = 1;
nodes = (
"200 478 LINE",
"304 478 LINE SMOOTH",
"414 478 OFFCURVE",
"442 436 OFFCURVE",
"442 362 CURVE SMOOTH",
"442 291 OFFCURVE",
"417 240 OFFCURVE",
"308 240 CURVE SMOOTH",
"200 240 LINE"
);
}
);
width = 639;
},
{
associatedMasterId = "CA5CD7F6-F0E6-40F5-9716-481B35A0BC32";
layerId = "4DB6E579-EE3D-4F23-B2E4-1413C9EA4867";
width = 600;
}
);
leftMetricsKey = H;
rightMetricsKey = P;
unicode = 00DE;
},
{
color = 1;
glyphname = Q;
layers = (
{
layerId = "083550D2-F2E8-44E3-BE3D-E8BDF41EDFC4";
paths = (
{
closed = 1;
nodes = (
"492 39 OFFCURVE",
"595 46 OFFCURVE",
"660 118 CURVE SMOOTH",
"702 164 OFFCURVE",
"728 238 OFFCURVE",
"728 353 CURVE SMOOTH",
"728 647 OFFCURVE",
"559 717 OFFCURVE",
"389 717 CURVE SMOOTH",
"219 717 OFFCURVE",
"50 649 OFFCURVE",
"50 353 CURVE SMOOTH",
"50 57 OFFCURVE",
"219 39 OFFCURVE",
"389 39 CURVE SMOOTH"
);
},
{
closed = 1;
nodes = (
"797 -22 LINE",
"660 39 LINE",
"582 59 LINE",
"562 129 LINE",
"110 129 LINE",
"130 0 LINE",
"271 0 LINE SMOOTH",
"336 0 OFFCURVE",
"368 -9 OFFCURVE",
"415 -31 CURVE SMOOTH",
"462 -53 OFFCURVE",
"707 -174 OFFCURVE",
"707 -174 CURVE"
);
},
{
closed = 1;
nodes = (
"277 181 OFFCURVE",
"240 258 OFFCURVE",
"240 353 CURVE SMOOTH",
"240 492 OFFCURVE",
"291 547 OFFCURVE",
"389 547 CURVE SMOOTH",
"487 547 OFFCURVE",
"539 494 OFFCURVE",
"539 353 CURVE SMOOTH",
"539 226 OFFCURVE",
"494 159 OFFCURVE",
"388 159 CURVE SMOOTH",
"309 159 LINE"
);
}
);
width = 767;
},
{
layerId = "1A280FA7-9E72-4FC3-84C1-49B7BD56B269";
paths = (
{
closed = 1;
nodes = (
"877 -22 LINE",
"700 49 LINE",
"622 59 LINE",
"620 64 LINE",
"651 76 OFFCURVE",
"687 109 OFFCURVE",
"709 135 CURVE SMOOTH",
"751 185 OFFCURVE",
"770 238 OFFCURVE",
"770 353 CURVE SMOOTH",
"770 647 OFFCURVE",
"599 717 OFFCURVE",
"429 717 CURVE SMOOTH",
"259 717 OFFCURVE",
"50 649 OFFCURVE",
"50 353 CURVE SMOOTH",
"50 244 OFFCURVE",
"73 173 OFFCURVE",
"110 126 CURVE",
"130 0 LINE",
"311 0 LINE SMOOTH",
"376 0 OFFCURVE",
"408 -9 OFFCURVE",
"455 -31 CURVE SMOOTH",
"502 -53 OFFCURVE",
"787 -184 OFFCURVE",
"787 -184 CURVE"
);
},
{
closed = 1;
nodes = (
"316 201 OFFCURVE",
"280 258 OFFCURVE",
"280 353 CURVE SMOOTH",
"280 471 OFFCURVE",
"321 517 OFFCURVE",
"419 517 CURVE SMOOTH",
"504 517 OFFCURVE",
"539 457 OFFCURVE",
"539 353 CURVE SMOOTH",
"539 251 OFFCURVE",
"511 189 OFFCURVE",
"418 189 CURVE SMOOTH",
"329 189 LINE"
);
}
);
width = 847;
},
{
associatedMasterId = "083550D2-F2E8-44E3-BE3D-E8BDF41EDFC4";
layerId = "0AAF2CB4-2EBD-42C4-BAB4-4CEC92C737FB";
width = 600;
},
{
layerId = "CA5CD7F6-F0E6-40F5-9716-481B35A0BC32";
paths = (
{
closed = 1;
nodes = (
"727 -42 LINE",
"620 9 LINE",
"479 49 LINE",
"477 54 LINE",
"508 66 OFFCURVE",
"553 96 OFFCURVE",
"576 121 CURVE SMOOTH",
"618 167 OFFCURVE",
"648 238 OFFCURVE",
"648 353 CURVE SMOOTH",
"648 647 OFFCURVE",
"506 717 OFFCURVE",
"349 717 CURVE SMOOTH",
"199 717 OFFCURVE",
"50 649 OFFCURVE",
"50 353 CURVE SMOOTH",
"50 244 OFFCURVE",
"73 173 OFFCURVE",
"110 126 CURVE",
"130 0 LINE",
"211 0 LINE SMOOTH",
"287 0 OFFCURVE",
"327 -11 OFFCURVE",
"375 -31 CURVE SMOOTH",
"429 -54 OFFCURVE",
"657 -154 OFFCURVE",
"657 -154 CURVE"
);
},
{
closed = 1;
nodes = (
"237 151 OFFCURVE",
"200 258 OFFCURVE",
"200 353 CURVE SMOOTH",
"200 492 OFFCURVE",
"251 577 OFFCURVE",
"349 577 CURVE SMOOTH",
"447 577 OFFCURVE",
"499 494 OFFCURVE",
"499 353 CURVE SMOOTH",
"499 226 OFFCURVE",
"454 129 OFFCURVE",
"348 129 CURVE SMOOTH",
"269 129 LINE"
);
}
);
width = 697;
},
{
associatedMasterId = "CA5CD7F6-F0E6-40F5-9716-481B35A0BC32";
layerId = "C4799BC8-BB31-492D-80A1-2436631FED15";
width = 600;
}
);
leftMetricsKey = O;
unicode = 0051;
},
{
color = 1;
glyphname = R;
layers = (
{
anchors = (
{
name = bottom;
position = "{363, 0}";
},
{
name = top;
position = "{353, 710}";
}
);
layerId = "083550D2-F2E8-44E3-BE3D-E8BDF41EDFC4";
paths = (
{
closed = 1;
nodes = (
"260 0 LINE",
"270 61 LINE",
"260 161 LINE",
"260 213 LINE",
"370 213 LINE SMOOTH",
"538 213 OFFCURVE",
"659 274 OFFCURVE",
"659 462 CURVE SMOOTH",
"659 650 OFFCURVE",
"545 708 OFFCURVE",
"400 708 CURVE SMOOTH",
"80 708 LINE",
"60 648 LINE",
"80 547 LINE",
"80 0 LINE"
);
},
{
closed = 1;
nodes = (
"708 0 LINE",
"708 60 LINE",
"651 111 LINE",
"552 235 LINE",
"435 364 LINE",
"188 213 LINE",
"343 213 LINE",
"483 0 LINE"
);
},
{
closed = 1;
nodes = (
"250 548 LINE",
"354 548 LINE SMOOTH",
"424 548 OFFCURVE",
"472 536 OFFCURVE",
"472 462 CURVE SMOOTH",
"472 391 OFFCURVE",
"427 370 OFFCURVE",
"358 370 CURVE SMOOTH",
"260 370 LINE"
);
}
);
width = 718;
},
{
anchors = (
{
name = bottom;
position = "{383, 0}";
},
{
name = top;
position = "{369, 708}";
}
);
layerId = "1A280FA7-9E72-4FC3-84C1-49B7BD56B269";
paths = (
{
closed = 1;
nodes = (
"300 0 LINE",
"310 61 LINE",
"300 161 LINE",
"300 183 LINE",
"410 183 LINE SMOOTH",
"594 183 OFFCURVE",
"699 259 OFFCURVE",
"699 447 CURVE SMOOTH",
"699 635 OFFCURVE",
"601 708 OFFCURVE",
"440 708 CURVE SMOOTH",
"80 708 LINE",
"60 648 LINE",
"80 547 LINE",
"80 0 LINE"
);
},
{
closed = 1;
nodes = (
"728 0 LINE",
"728 60 LINE",
"671 111 LINE",
"602 205 LINE",
"445 334 LINE",
"198 183 LINE",
"353 183 LINE",
"463 0 LINE"
);
},
{
closed = 1;
nodes = (
"290 518 LINE",
"354 518 LINE SMOOTH",
"424 518 OFFCURVE",
"472 516 OFFCURVE",
"472 442 CURVE SMOOTH",
"472 371 OFFCURVE",
"427 370 OFFCURVE",
"358 370 CURVE SMOOTH",
"300 370 LINE"
);
}
);
width = 738;
},
{
associatedMasterId = "083550D2-F2E8-44E3-BE3D-E8BDF41EDFC4";
layerId = "0AAF2CB4-2EBD-42C4-BAB4-4CEC92C737FB";
width = 600;
},
{
anchors = (
{
name = bottom;
position = "{323, 0}";
},
{
name = top;
position = "{323, 710}";
}
);
layerId = "CA5CD7F6-F0E6-40F5-9716-481B35A0BC32";
paths = (
{
closed = 1;
nodes = (
"220 0 LINE",
"230 61 LINE",
"220 161 LINE",
"220 213 LINE",
"290 213 LINE SMOOTH",
"458 213 OFFCURVE",
"579 274 OFFCURVE",
"579 462 CURVE SMOOTH",
"579 650 OFFCURVE",
"465 708 OFFCURVE",
"320 708 CURVE SMOOTH",
"80 708 LINE",
"60 648 LINE",
"80 547 LINE",
"80 0 LINE"
);
},
{
closed = 1;
nodes = (
"628 0 LINE",
"628 60 LINE",
"571 111 LINE",
"482 215 LINE",
"385 304 LINE",
"148 213 LINE",
"303 213 LINE",
"443 0 LINE"
);
},
{
closed = 1;
nodes = (
"210 578 LINE",
"314 578 LINE SMOOTH",
"403 578 OFFCURVE",
"432 536 OFFCURVE",
"432 462 CURVE SMOOTH",
"432 391 OFFCURVE",
"406 340 OFFCURVE",
"318 340 CURVE SMOOTH",
"220 340 LINE"
);
}
);
width = 638;
},
{
associatedMasterId = "CA5CD7F6-F0E6-40F5-9716-481B35A0BC32";
layerId = "1E78BD80-2859-4164-AE05-3D9C519AC5D6";
width = 600;
}
);
leftMetricsKey = H;
rightMetricsKey = K;
unicode = 0052;
},
{
color = 1;
glyphname = S;
layers = (
{
anchors = (
{
name = bottom;
position = "{358, 0}";
},
{
name = top;
position = "{358, 720}";
}
);
layerId = "083550D2-F2E8-44E3-BE3D-E8BDF41EDFC4";
paths = (
{
closed = 1;
nodes = (
"515 -10 OFFCURVE",
"618 75 OFFCURVE",
"618 203 CURVE SMOOTH",
"618 307 OFFCURVE",
"576 377 OFFCURVE",
"368 431 CURVE SMOOTH",
"285 453 OFFCURVE",
"240 468 OFFCURVE",
"240 511 CURVE SMOOTH",
"240 543 OFFCURVE",
"263 559 OFFCURVE",
"300 559 CURVE",
"557 504 LINE",
"596 626 LINE",
"483 709 LINE",
"454 714 OFFCURVE",
"398 718 OFFCURVE",
"356 718 CURVE SMOOTH",
"143 718 OFFCURVE",
"50 622 OFFCURVE",
"50 498 CURVE SMOOTH",
"50 378 OFFCURVE",
"126 330 OFFCURVE",
"258 289 CURVE SMOOTH",
"371 254 OFFCURVE",
"422 237 OFFCURVE",
"422 202 CURVE SMOOTH",
"422 170 OFFCURVE",
"399 159 OFFCURVE",
"351 159 CURVE SMOOTH",
"232 159 OFFCURVE",
"132 197 OFFCURVE",
"68 233 CURVE",
"68 54 LINE",
"104 23 OFFCURVE",
"199 -10 OFFCURVE",
"310 -10 CURVE SMOOTH"
);
}
);
width = 668;
},
{
anchors = (
{
name = bottom;
position = "{348, 0}";
},
{
name = top;
position = "{338, 710}";
}
);
layerId = "1A280FA7-9E72-4FC3-84C1-49B7BD56B269";
paths = (
{
closed = 1;
nodes = (
"535 -10 OFFCURVE",
"638 80 OFFCURVE",
"638 213 CURVE SMOOTH",
"638 323 OFFCURVE",
"581 380 OFFCURVE",
"398 441 CURVE SMOOTH",
"332 463 OFFCURVE",
"280 479 OFFCURVE",
"280 507 CURVE SMOOTH",
"280 525 OFFCURVE",
"293 539 OFFCURVE",
"320 539 CURVE",
"576 474 LINE",
"626 626 LINE",
"503 709 LINE",
"474 714 OFFCURVE",
"418 718 OFFCURVE",
"376 718 CURVE SMOOTH",
"163 718 OFFCURVE",
"50 627 OFFCURVE",
"50 488 CURVE SMOOTH",
"50 368 OFFCURVE",
"126 330 OFFCURVE",
"258 289 CURVE SMOOTH",
"371 254 OFFCURVE",
"402 244 OFFCURVE",
"402 217 CURVE SMOOTH",
"402 199 OFFCURVE",
"381 189 OFFCURVE",
"341 189 CURVE SMOOTH",
"253 189 OFFCURVE",
"144 220 OFFCURVE",
"68 263 CURVE",
"68 54 LINE",
"104 23 OFFCURVE",
"219 -10 OFFCURVE",
"330 -10 CURVE SMOOTH"
);
}
);
width = 688;
},
{
associatedMasterId = "083550D2-F2E8-44E3-BE3D-E8BDF41EDFC4";
layerId = "0AAF2CB4-2EBD-42C4-BAB4-4CEC92C737FB";
width = 600;
},
{
anchors = (
{
name = bottom;
position = "{328, 0}";
},
{
name = top;
position = "{288, 710}";
}
);
layerId = "CA5CD7F6-F0E6-40F5-9716-481B35A0BC32";
paths = (
{
closed = 1;
nodes = (
"474 -10 OFFCURVE",
"538 87 OFFCURVE",
"538 203 CURVE SMOOTH",
"538 299 OFFCURVE",
"483 369 OFFCURVE",
"328 420 CURVE SMOOTH",
"246 447 OFFCURVE",
"200 468 OFFCURVE",
"200 522 CURVE SMOOTH",
"200 564 OFFCURVE",
"235 589 OFFCURVE",
"283 589 CURVE",
"466 524 LINE",
"516 626 LINE",
"403 709 LINE",
"374 714 OFFCURVE",
"328 718 OFFCURVE",
"286 718 CURVE SMOOTH",
"121 718 OFFCURVE",
"50 618 OFFCURVE",
"50 508 CURVE SMOOTH",
"50 404 OFFCURVE",
"111 347 OFFCURVE",
"218 309 CURVE SMOOTH",
"329 269 OFFCURVE",
"382 251 OFFCURVE",
"382 195 CURVE SMOOTH",
"382 154 OFFCURVE",
"352 128 OFFCURVE",
"291 128 CURVE SMOOTH",
"196 128 OFFCURVE",
"114 165 OFFCURVE",
"68 192 CURVE",
"68 54 LINE",
"104 23 OFFCURVE",
"177 -10 OFFCURVE",
"280 -10 CURVE SMOOTH"
);
}
);
width = 588;
},
{
associatedMasterId = "CA5CD7F6-F0E6-40F5-9716-481B35A0BC32";
layerId = "A72EE2E6-73F4-4993-B340-5C1A7D0E2EFE";
width = 600;
}
);
unicode = 0053;
},
{
color = 1;
glyphname = Germandbls;
layers = (
{
layerId = "083550D2-F2E8-44E3-BE3D-E8BDF41EDFC4";
paths = (
{
closed = 1;
nodes = (
"625 -10 OFFCURVE",
"676 82 OFFCURVE",
"676 174 CURVE SMOOTH",
"676 244 OFFCURVE",
"658 289 OFFCURVE",
"586 356 CURVE SMOOTH",
"534 404 OFFCURVE",
"488 435 OFFCURVE",
"481 461 CURVE",
"586 589 LINE",
"556 681 LINE",
"538 692 OFFCURVE",
"481 719 OFFCURVE",
"354 719 CURVE SMOOTH",
"192 719 OFFCURVE",
"60 660 OFFCURVE",
"60 454 CURVE SMOOTH",
"60 0 LINE",
"238 0 LINE",
"238 397 LINE SMOOTH",
"238 511 OFFCURVE",
"263 561 OFFCURVE",
"346 561 CURVE SMOOTH",
"399 561 LINE",
"404 551 LINE",
"362 525 OFFCURVE",
"333 486 OFFCURVE",
"333 426 CURVE SMOOTH",
"333 384 OFFCURVE",
"360 340 OFFCURVE",
"411 299 CURVE SMOOTH",
"458 262 OFFCURVE",
"494 237 OFFCURVE",
"494 196 CURVE SMOOTH",
"494 162 OFFCURVE",
"466 143 OFFCURVE",
"426 143 CURVE",
"338 183 LINE",
"278 61 LINE",
"381 0 LINE",
"405 -6 OFFCURVE",
"432 -10 OFFCURVE",
"464 -10 CURVE SMOOTH"
);
}
);
width = 726;
},
{
layerId = "1A280FA7-9E72-4FC3-84C1-49B7BD56B269";
paths = (
{
closed = 1;
nodes = (
"625 -10 OFFCURVE",
"696 82 OFFCURVE",
"696 174 CURVE SMOOTH",
"696 244 OFFCURVE",
"678 299 OFFCURVE",
"606 366 CURVE SMOOTH",
"554 414 OFFCURVE",
"518 445 OFFCURVE",
"511 471 CURVE",
"606 559 LINE",
"576 681 LINE",
"558 692 OFFCURVE",
"481 719 OFFCURVE",
"354 719 CURVE SMOOTH",
"192 719 OFFCURVE",
"60 660 OFFCURVE",
"60 454 CURVE SMOOTH",
"60 0 LINE",
"278 0 LINE",
"278 397 LINE SMOOTH",
"278 500 OFFCURVE",
"299 531 OFFCURVE",
"366 531 CURVE SMOOTH",
"399 531 LINE",
"404 521 LINE",
"367 498 OFFCURVE",
"343 463 OFFCURVE",
"343 425 CURVE SMOOTH",
"343 386 OFFCURVE",
"363 344 OFFCURVE",
"411 299 CURVE SMOOTH",
"461 252 OFFCURVE",
"474 241 OFFCURVE",
"474 211 CURVE SMOOTH",
"474 190 OFFCURVE",
"457 173 OFFCURVE",
"436 173 CURVE",
"348 203 LINE",
"298 91 LINE",
"381 0 LINE",
"405 -6 OFFCURVE",
"432 -10 OFFCURVE",
"464 -10 CURVE SMOOTH"
);
}
);
width = 746;
},
{
layerId = "CA5CD7F6-F0E6-40F5-9716-481B35A0BC32";
paths = (
{
closed = 1;
nodes = (
"566 -10 OFFCURVE",
"646 66 OFFCURVE",
"646 174 CURVE SMOOTH",
"646 240 OFFCURVE",
"617 299 OFFCURVE",
"556 356 CURVE SMOOTH",
"504 404 OFFCURVE",
"458 445 OFFCURVE",
"451 471 CURVE",
"576 619 LINE",
"556 681 LINE",
"538 692 OFFCURVE",
"481 719 OFFCURVE",
"354 719 CURVE SMOOTH",
"192 719 OFFCURVE",
"60 660 OFFCURVE",
"60 454 CURVE SMOOTH",
"60 0 LINE",
"198 0 LINE",
"198 397 LINE SMOOTH",
"198 537 OFFCURVE",
"236 591 OFFCURVE",
"346 591 CURVE SMOOTH",
"399 591 LINE",
"404 581 LINE",
"357 552 OFFCURVE",
"333 509 OFFCURVE",
"333 456 CURVE SMOOTH",
"333 393 OFFCURVE",
"380 340 OFFCURVE",
"431 299 CURVE SMOOTH",
"478 262 OFFCURVE",
"504 217 OFFCURVE",
"504 176 CURVE SMOOTH",
"504 137 OFFCURVE",
"466 113 OFFCURVE",
"426 113 CURVE",
"328 163 LINE",
"278 61 LINE",
"381 0 LINE",
"405 -6 OFFCURVE",
"432 -10 OFFCURVE",
"464 -10 CURVE SMOOTH"
);
}
);
width = 696;
}
);
leftMetricsKey = H;
rightMetricsKey = O;
unicode = 1E9E;
},
{
color = 1;
glyphname = Schwa;
layers = (
{
layerId = "083550D2-F2E8-44E3-BE3D-E8BDF41EDFC4";
paths = (
{
closed = 1;
nodes = (
"528 -10 OFFCURVE",
"654 111 OFFCURVE",
"654 355 CURVE SMOOTH",
"654 567 OFFCURVE",
"557 709 OFFCURVE",
"334 709 CURVE SMOOTH",
"177 709 OFFCURVE",
"82 669 OFFCURVE",
"65 652 CURVE",
"65 511 LINE",
"84 524 OFFCURVE",
"203 562 OFFCURVE",
"313 562 CURVE SMOOTH",
"424 562 OFFCURVE",
"464 501 OFFCURVE",
"464 388 CURVE",
"30 388 LINE",
"30 304 LINE SMOOTH",
"30 119 OFFCURVE",
"120 -10 OFFCURVE",
"337 -10 CURVE SMOOTH"
);
},
{
closed = 1;
nodes = (
"247 148 OFFCURVE",
"207 187 OFFCURVE",
"207 258 CURVE SMOOTH",
"207 272 LINE",
"464 272 LINE",
"464 205 OFFCURVE",
"425 148 OFFCURVE",
"337 148 CURVE SMOOTH"
);
}
);
width = 694;
},
{
layerId = "1A280FA7-9E72-4FC3-84C1-49B7BD56B269";
paths = (
{
closed = 1;
nodes = (
"548 -10 OFFCURVE",
"674 111 OFFCURVE",
"674 355 CURVE SMOOTH",
"674 567 OFFCURVE",
"577 709 OFFCURVE",
"354 709 CURVE SMOOTH",
"197 709 OFFCURVE",
"102 669 OFFCURVE",
"85 652 CURVE",
"85 480 LINE",
"104 493 OFFCURVE",
"202 531 OFFCURVE",
"312 531 CURVE SMOOTH",
"421 531 OFFCURVE",
"444 484 OFFCURVE",
"444 398 CURVE",
"30 398 LINE",
"30 304 LINE SMOOTH",
"30 119 OFFCURVE",
"140 -10 OFFCURVE",
"357 -10 CURVE SMOOTH"
);
},
{
closed = 1;
nodes = (
"277 178 OFFCURVE",
"247 210 OFFCURVE",
"247 258 CURVE SMOOTH",
"247 272 LINE",
"444 272 LINE",
"444 210 OFFCURVE",
"418 178 OFFCURVE",
"336 178 CURVE SMOOTH"
);
}
);
width = 714;
},
{
layerId = "CA5CD7F6-F0E6-40F5-9716-481B35A0BC32";
paths = (
{
closed = 1;
nodes = (
"449 -10 OFFCURVE",
"572 84 OFFCURVE",
"572 365 CURVE SMOOTH",
"572 585 OFFCURVE",
"512 709 OFFCURVE",
"282 709 CURVE SMOOTH",
"156 709 OFFCURVE",
"78 663 OFFCURVE",
"65 652 CURVE",
"65 543 LINE",
"84 556 OFFCURVE",
"151 594 OFFCURVE",
"282 594 CURVE SMOOTH",
"414 594 OFFCURVE",
"423 479 OFFCURVE",
"423 378 CURVE",
"30 378 LINE",
"30 304 LINE SMOOTH",
"30 119 OFFCURVE",
"94 -10 OFFCURVE",
"297 -10 CURVE SMOOTH"
);
},
{
closed = 1;
nodes = (
"206 118 OFFCURVE",
"166 187 OFFCURVE",
"166 278 CURVE SMOOTH",
"166 292 LINE",
"423 292 LINE",
"423 205 OFFCURVE",
"385 118 OFFCURVE",
"297 118 CURVE SMOOTH"
);
}
);
width = 612;
}
);
leftMetricsKey = a;
rightMetricsKey = a;
unicode = 018F;
},
{
color = 1;
glyphname = T;
layers = (
{
anchors = (
{
name = bottom;
position = "{315, 0}";
},
{
name = center;
position = "{329, 340}";
},
{
name = top;
position = "{329, 710}";
}
);
layerId = "083550D2-F2E8-44E3-BE3D-E8BDF41EDFC4";
paths = (
{
closed = 1;
nodes = (
"410 0 LINE",
"421 60 LINE",
"410 160 LINE",
"410 548 LINE",
"615 538 LINE",
"615 708 LINE",
"30 708 LINE",
"30 538 LINE",
"230 548 LINE",
"230 0 LINE"
);
}
);
width = 645;
},
{
anchors = (
{
name = bottom;
position = "{339, 10}";
},
{
name = center;
position = "{339, 340}";
},
{
name = top;
position = "{339, 710}";
}
);
layerId = "1A280FA7-9E72-4FC3-84C1-49B7BD56B269";
paths = (
{
closed = 1;
nodes = (
"450 0 LINE",
"461 60 LINE",
"450 160 LINE",
"450 517 LINE",
"655 507 LINE",
"655 708 LINE",
"30 708 LINE",
"30 507 LINE",
"230 517 LINE",
"230 0 LINE"
);
}
);
width = 685;
},
{
associatedMasterId = "083550D2-F2E8-44E3-BE3D-E8BDF41EDFC4";
layerId = "0AAF2CB4-2EBD-42C4-BAB4-4CEC92C737FB";
width = 600;
},
{
anchors = (
{
name = bottom;
position = "{299, 0}";
},
{
name = center;
position = "{299, 360}";
},
{
name = top;
position = "{299, 710}";
}
);
layerId = "CA5CD7F6-F0E6-40F5-9716-481B35A0BC32";
paths = (
{
closed = 1;
nodes = (
"370 0 LINE",
"381 60 LINE",
"370 160 LINE",
"370 580 LINE",
"595 570 LINE",
"595 708 LINE",
"10 708 LINE",
"10 570 LINE",
"230 580 LINE",
"230 0 LINE"
);
}
);
width = 605;
},
{
associatedMasterId = "CA5CD7F6-F0E6-40F5-9716-481B35A0BC32";
layerId = "9B8BD212-B9C5-4D01-9579-805C80756A03";
width = 600;
}
);
unicode = 0054;
},
{
color = 1;
glyphname = U;
layers = (
{
anchors = (
{
name = bottom;
position = "{388, -10}";
},
{
name = ogonek;
position = "{481, 0}";
},
{
name = top;
position = "{368, 710}";
},
{
name = topright;
position = "{716, 706}";
}
);
layerId = "083550D2-F2E8-44E3-BE3D-E8BDF41EDFC4";
paths = (
{
closed = 1;
nodes = (
"579 -10 OFFCURVE",
"678 83 OFFCURVE",
"678 287 CURVE SMOOTH",
"678 708 LINE",
"499 708 LINE",
"499 307 LINE SMOOTH",
"499 205 OFFCURVE",
"464 150 OFFCURVE",
"369 150 CURVE SMOOTH",
"274 150 OFFCURVE",
"242 214 OFFCURVE",
"242 307 CURVE SMOOTH",
"242 708 LINE",
"60 708 LINE",
"61 648 LINE",
"60 547 LINE",
"60 287 LINE SMOOTH",
"60 79 OFFCURVE",
"163 -10 OFFCURVE",
"369 -10 CURVE SMOOTH"
);
}
);
width = 738;
},
{
anchors = (
{
name = bottom;
position = "{388, -4}";
},
{
name = ogonek;
position = "{451, 10}";
},
{
name = top;
position = "{391, 708}";
},
{
name = topright;
position = "{775, 709}";
}
);
layerId = "1A280FA7-9E72-4FC3-84C1-49B7BD56B269";
paths = (
{
closed = 1;
nodes = (
"626 -10 OFFCURVE",
"718 83 OFFCURVE",
"718 287 CURVE SMOOTH",
"718 708 LINE",
"499 708 LINE",
"499 337 LINE SMOOTH",
"499 235 OFFCURVE",
"486 180 OFFCURVE",
"391 180 CURVE SMOOTH",
"296 180 OFFCURVE",
"284 244 OFFCURVE",
"284 337 CURVE SMOOTH",
"284 708 LINE",
"60 708 LINE",
"61 648 LINE",
"60 547 LINE",
"60 287 LINE SMOOTH",
"60 79 OFFCURVE",
"155 -10 OFFCURVE",
"389 -10 CURVE SMOOTH"
);
}
);
width = 778;
},
{
associatedMasterId = "083550D2-F2E8-44E3-BE3D-E8BDF41EDFC4";
layerId = "0AAF2CB4-2EBD-42C4-BAB4-4CEC92C737FB";
width = 600;
},
{
anchors = (
{
name = bottom;
position = "{328, -12}";
},
{
name = ogonek;
position = "{451, 10}";
},
{
name = top;
position = "{338, 710}";
},
{
name = topright;
position = "{645, 716}";
}
);
layerId = "CA5CD7F6-F0E6-40F5-9716-481B35A0BC32";
paths = (
{
closed = 1;
nodes = (
"539 -10 OFFCURVE",
"598 99 OFFCURVE",
"598 287 CURVE SMOOTH",
"598 708 LINE",
"459 708 LINE",
"459 277 LINE SMOOTH",
"459 175 OFFCURVE",
"424 120 OFFCURVE",
"329 120 CURVE SMOOTH",
"234 120 OFFCURVE",
"202 184 OFFCURVE",
"202 277 CURVE SMOOTH",
"202 708 LINE",
"60 708 LINE",
"61 648 LINE",
"60 547 LINE",
"60 287 LINE SMOOTH",
"60 95 OFFCURVE",
"123 -10 OFFCURVE",
"329 -10 CURVE SMOOTH"
);
}
);
width = 658;
},
{
associatedMasterId = "CA5CD7F6-F0E6-40F5-9716-481B35A0BC32";
layerId = "FBEDC220-7916-40C5-BAC7-0AA4FF19FA6C";
width = 600;
}
);
unicode = 0055;
},
{
color = 1;
glyphname = V;
layers = (
{
layerId = "083550D2-F2E8-44E3-BE3D-E8BDF41EDFC4";
paths = (
{
closed = 1;
nodes = (
"489 0 LINE",
"668 549 LINE",
"698 648 LINE",
"698 708 LINE",
"510 708 LINE",
"371 182 LINE",
"351 182 LINE",
"210 708 LINE",
"20 708 LINE",
"20 648 LINE",
"50 549 LINE",
"230 0 LINE"
);
}
);
width = 718;
},
{
layerId = "1A280FA7-9E72-4FC3-84C1-49B7BD56B269";
paths = (
{
closed = 1;
nodes = (
"531 0 LINE",
"710 549 LINE",
"740 648 LINE",
"740 708 LINE",
"511 708 LINE",
"392 202 LINE",
"372 202 LINE",
"252 708 LINE",
"20 708 LINE",
"20 648 LINE",
"50 549 LINE",
"230 0 LINE"
);
}
);
width = 760;
},
{
associatedMasterId = "083550D2-F2E8-44E3-BE3D-E8BDF41EDFC4";
layerId = "0AAF2CB4-2EBD-42C4-BAB4-4CEC92C737FB";
width = 600;
},
{
layerId = "CA5CD7F6-F0E6-40F5-9716-481B35A0BC32";
paths = (
{
closed = 1;
nodes = (
"405 0 LINE",
"584 549 LINE",
"614 648 LINE",
"614 708 LINE",
"468 708 LINE",
"329 152 LINE",
"309 152 LINE",
"168 708 LINE",
"20 708 LINE",
"20 648 LINE",
"50 549 LINE",
"230 0 LINE"
);
}
);
width = 634;
},
{
associatedMasterId = "CA5CD7F6-F0E6-40F5-9716-481B35A0BC32";
layerId = "28E31C3A-9171-4CFB-93E0-C674C1A6D786";
width = 600;
}
);
unicode = 0056;
},
{
color = 1;
glyphname = W;
layers = (
{
anchors = (
{
name = bottom;
position = "{586, 0}";
},
{
name = top;
position = "{588, 710}";
}
);
layerId = "083550D2-F2E8-44E3-BE3D-E8BDF41EDFC4";
paths = (
{
closed = 1;
nodes = (
"469 0 LINE",
"551 401 LINE",
"568 522 LINE",
"589 522 LINE",
"692 0 LINE",
"951 0 LINE",
"1109 549 LINE",
"1139 648 LINE",
"1139 708 LINE",
"951 708 LINE",
"827 192 LINE",
"807 192 LINE",
"791 319 LINE",
"713 708 LINE",
"450 708 LINE",
"355 192 LINE",
"335 192 LINE",
"210 708 LINE",
"20 708 LINE",
"20 648 LINE",
"50 549 LINE",
"210 0 LINE"
);
}
);
width = 1159;
},
{
anchors = (
{
name = bottom;
position = "{608, 0}";
},
{
name = top;
position = "{606, 708}";
}
);
layerId = "1A280FA7-9E72-4FC3-84C1-49B7BD56B269";
paths = (
{
closed = 1;
nodes = (
"510 0 LINE",
"572 381 LINE",
"589 492 LINE",
"610 492 LINE",
"693 0 LINE",
"991 0 LINE",
"1150 549 LINE",
"1180 648 LINE",
"1180 708 LINE",
"952 708 LINE",
"848 222 LINE",
"828 222 LINE",
"812 339 LINE",
"764 708 LINE",
"441 708 LINE",
"376 222 LINE",
"356 222 LINE",
"252 708 LINE",
"20 708 LINE",
"20 648 LINE",
"50 549 LINE",
"210 0 LINE"
);
}
);
width = 1200;
},
{
associatedMasterId = "083550D2-F2E8-44E3-BE3D-E8BDF41EDFC4";
layerId = "0AAF2CB4-2EBD-42C4-BAB4-4CEC92C737FB";
width = 600;
},
{
anchors = (
{
name = bottom;
position = "{568, 0}";
},
{
name = top;
position = "{538, 710}";
}
);
layerId = "CA5CD7F6-F0E6-40F5-9716-481B35A0BC32";
paths = (
{
closed = 1;
nodes = (
"428 0 LINE",
"506 409 LINE",
"527 552 LINE",
"548 552 LINE",
"652 0 LINE",
"850 0 LINE",
"1028 549 LINE",
"1058 648 LINE",
"1058 708 LINE",
"910 708 LINE",
"766 172 LINE",
"746 172 LINE",
"726 299 LINE",
"642 708 LINE",
"440 708 LINE",
"334 172 LINE",
"314 172 LINE",
"169 708 LINE",
"20 708 LINE",
"20 648 LINE",
"50 549 LINE",
"230 0 LINE"
);
}
);
width = 1078;
},
{
associatedMasterId = "CA5CD7F6-F0E6-40F5-9716-481B35A0BC32";
layerId = "6E521F11-4495-4D41-9F10-88C9E35EE6F2";
width = 600;
}
);
leftMetricsKey = V;
rightMetricsKey = V;
unicode = 0057;
},
{
color = 1;
glyphname = X;
layers = (
{
layerId = "083550D2-F2E8-44E3-BE3D-E8BDF41EDFC4";
paths = (
{
closed = 1;
nodes = (
"232 0 LINE",
"360 254 LINE",
"380 254 LINE",
"503 0 LINE",
"709 0 LINE",
"709 60 LINE",
"536 356 LINE",
"719 708 LINE",
"499 708 LINE",
"380 442 LINE",
"360 442 LINE",
"240 708 LINE",
"30 708 LINE",
"30 648 LINE",
"201 359 LINE",
"20 0 LINE"
);
}
);
width = 739;
},
{
layerId = "1A280FA7-9E72-4FC3-84C1-49B7BD56B269";
paths = (
{
closed = 1;
nodes = (
"273 0 LINE",
"381 239 LINE",
"401 239 LINE",
"504 0 LINE",
"750 0 LINE",
"750 60 LINE",
"577 356 LINE",
"760 708 LINE",
"500 708 LINE",
"401 457 LINE",
"381 457 LINE",
"281 708 LINE",
"30 708 LINE",
"30 648 LINE",
"202 359 LINE",
"20 0 LINE"
);
}
);
width = 780;
},
{
associatedMasterId = "083550D2-F2E8-44E3-BE3D-E8BDF41EDFC4";
layerId = "0AAF2CB4-2EBD-42C4-BAB4-4CEC92C737FB";
width = 600;
},
{
layerId = "CA5CD7F6-F0E6-40F5-9716-481B35A0BC32";
paths = (
{
closed = 1;
nodes = (
"191 0 LINE",
"319 284 LINE",
"339 284 LINE",
"462 0 LINE",
"628 0 LINE",
"628 60 LINE",
"455 356 LINE",
"638 708 LINE",
"458 708 LINE",
"339 412 LINE",
"319 412 LINE",
"199 708 LINE",
"30 708 LINE",
"30 648 LINE",
"201 359 LINE",
"20 0 LINE"
);
}
);
width = 658;
},
{
associatedMasterId = "CA5CD7F6-F0E6-40F5-9716-481B35A0BC32";
layerId = "C22D7463-A6D5-4982-BCB1-467ED8BE9AE5";
width = 600;
}
);
leftMetricsKey = V;
rightMetricsKey = V;
unicode = 0058;
},
{
color = 1;
glyphname = Y;
layers = (
{
anchors = (
{
name = bottom;
position = "{361, 0}";
},
{
name = top;
position = "{361, 700}";
},
{
name = topleft;
position = "{50, 600}";
}
);
layerId = "083550D2-F2E8-44E3-BE3D-E8BDF41EDFC4";
paths = (
{
closed = 1;
nodes = (
"450 0 LINE",
"450 193 LINE",
"444 294 LINE",
"699 648 LINE",
"699 708 LINE",
"489 708 LINE",
"370 482 LINE",
"350 482 LINE",
"230 708 LINE",
"20 708 LINE",
"20 648 LINE",
"268 300 LINE",
"268 0 LINE"
);
}
);
width = 719;
},
{
anchors = (
{
name = bottom;
position = "{391, 0}";
},
{
name = top;
position = "{380, 708}";
},
{
name = topleft;
position = "{30, 600}";
}
);
layerId = "1A280FA7-9E72-4FC3-84C1-49B7BD56B269";
paths = (
{
closed = 1;
nodes = (
"491 0 LINE",
"491 183 LINE",
"485 284 LINE",
"740 648 LINE",
"740 708 LINE",
"490 708 LINE",
"391 502 LINE",
"371 502 LINE",
"271 708 LINE",
"20 708 LINE",
"20 648 LINE",
"268 290 LINE",
"268 0 LINE"
);
}
);
width = 760;
},
{
associatedMasterId = "083550D2-F2E8-44E3-BE3D-E8BDF41EDFC4";
layerId = "0AAF2CB4-2EBD-42C4-BAB4-4CEC92C737FB";
width = 600;
},
{
anchors = (
{
name = bottom;
position = "{316, 0}";
},
{
name = top;
position = "{321, 708}";
},
{
name = topleft;
position = "{30, 600}";
}
);
layerId = "CA5CD7F6-F0E6-40F5-9716-481B35A0BC32";
paths = (
{
closed = 1;
nodes = (
"388 0 LINE",
"388 193 LINE",
"382 294 LINE",
"617 648 LINE",
"617 708 LINE",
"447 708 LINE",
"328 452 LINE",
"308 452 LINE",
"188 708 LINE",
"20 708 LINE",
"20 648 LINE",
"247 300 LINE",
"247 0 LINE"
);
}
);
width = 637;
},
{
associatedMasterId = "CA5CD7F6-F0E6-40F5-9716-481B35A0BC32";
layerId = "A6B36F3E-39F7-4EFC-BCB9-28E8A14FA912";
width = 600;
}
);
leftMetricsKey = V;
rightMetricsKey = V;
unicode = 0059;
},
{
color = 1;
glyphname = Z;
layers = (
{
anchors = (
{
name = bottom;
position = "{353, 0}";
},
{
name = top;
position = "{333, 708}";
}
);
layerId = "083550D2-F2E8-44E3-BE3D-E8BDF41EDFC4";
paths = (
{
closed = 1;
nodes = (
"628 0 LINE",
"628 179 LINE",
"346 159 LINE",
"315 159 LINE",
"626 590 LINE",
"626 708 LINE",
"51 708 LINE",
"51 549 LINE",
"382 549 LINE",
"20 60 LINE",
"51 0 LINE"
);
}
);
width = 658;
},
{
anchors = (
{
name = bottom;
position = "{333, 0}";
},
{
name = top;
position = "{333, 708}";
}
);
layerId = "1A280FA7-9E72-4FC3-84C1-49B7BD56B269";
paths = (
{
closed = 1;
nodes = (
"628 0 LINE",
"628 209 LINE",
"396 189 LINE",
"365 189 LINE",
"626 590 LINE",
"626 708 LINE",
"51 708 LINE",
"51 519 LINE",
"332 519 LINE",
"20 60 LINE",
"51 0 LINE"
);
}
);
width = 658;
},
{
associatedMasterId = "083550D2-F2E8-44E3-BE3D-E8BDF41EDFC4";
layerId = "0AAF2CB4-2EBD-42C4-BAB4-4CEC92C737FB";
width = 600;
},
{
anchors = (
{
name = bottom;
position = "{343, 0}";
},
{
name = top;
position = "{323, 708}";
}
);
layerId = "CA5CD7F6-F0E6-40F5-9716-481B35A0BC32";
paths = (
{
closed = 1;
nodes = (
"586 0 LINE",
"586 149 LINE",
"264 129 LINE",
"233 129 LINE",
"544 590 LINE",
"544 708 LINE",
"51 708 LINE",
"51 579 LINE",
"382 579 LINE",
"20 60 LINE",
"51 0 LINE"
);
}
);
width = 616;
},
{
associatedMasterId = "CA5CD7F6-F0E6-40F5-9716-481B35A0BC32";
layerId = "77DE080D-4F13-4B9D-ACE1-2D8FECF180E0";
width = 600;
}
);
unicode = 005A;
},
{
color = 1;
glyphname = a;
layers = (
{
anchors = (
{
name = bottom;
position = "{308, 0}";
},
{
name = ogonek;
position = "{485, 9}";
},
{
name = top;
position = "{298, 473}";
}
);
layerId = "083550D2-F2E8-44E3-BE3D-E8BDF41EDFC4";
paths = (
{
closed = 1;
nodes = (
"282 -10 OFFCURVE",
"334 37 OFFCURVE",
"350 53 CURVE",
"360 48 LINE",
"360 -1 LINE",
"531 -1 LINE",
"551 58 LINE",
"531 159 LINE",
"531 292 LINE SMOOTH",
"531 410 OFFCURVE",
"469 481 OFFCURVE",
"290 481 CURVE SMOOTH",
"178 481 OFFCURVE",
"101 465 OFFCURVE",
"60 451 CURVE",
"60 301 LINE",
"94 319 OFFCURVE",
"192 342 OFFCURVE",
"266 342 CURVE SMOOTH",
"342 342 OFFCURVE",
"350 311 OFFCURVE",
"350 251 CURVE",
"343 245 LINE",
"317 261 OFFCURVE",
"289 280 OFFCURVE",
"220 280 CURVE SMOOTH",
"112 280 OFFCURVE",
"30 232 OFFCURVE",
"30 132 CURVE SMOOTH",
"30 22 OFFCURVE",
"104 -10 OFFCURVE",
"190 -10 CURVE SMOOTH"
);
},
{
closed = 1;
nodes = (
"234 121 OFFCURVE",
"220 132 OFFCURVE",
"220 153 CURVE SMOOTH",
"220 179 OFFCURVE",
"239 191 OFFCURVE",
"274 191 CURVE SMOOTH",
"326 191 OFFCURVE",
"350 171 OFFCURVE",
"350 154 CURVE SMOOTH",
"350 135 LINE",
"338 130 OFFCURVE",
"311 121 OFFCURVE",
"275 121 CURVE SMOOTH"
);
}
);
width = 591;
},
{
anchors = (
{
name = bottom;
position = "{298, 0}";
},
{
name = ogonek;
position = "{462, 10}";
},
{
name = top;
position = "{300, 479}";
}
);
layerId = "1A280FA7-9E72-4FC3-84C1-49B7BD56B269";
paths = (
{
closed = 1;
nodes = (
"256 -10 OFFCURVE",
"309 22 OFFCURVE",
"330 53 CURVE",
"340 48 LINE",
"340 -1 LINE",
"551 -1 LINE",
"571 58 LINE",
"551 159 LINE",
"551 292 LINE SMOOTH",
"551 410 OFFCURVE",
"488 481 OFFCURVE",
"300 481 CURVE SMOOTH",
"188 481 OFFCURVE",
"91 460 OFFCURVE",
"60 451 CURVE",
"60 271 LINE",
"107 296 OFFCURVE",
"192 322 OFFCURVE",
"266 322 CURVE SMOOTH",
"322 322 OFFCURVE",
"330 301 OFFCURVE",
"330 260 CURVE",
"323 255 LINE",
"304 266 OFFCURVE",
"270 280 OFFCURVE",
"210 280 CURVE SMOOTH",
"99 280 OFFCURVE",
"30 229 OFFCURVE",
"30 132 CURVE SMOOTH",
"30 26 OFFCURVE",
"91 -10 OFFCURVE",
"180 -10 CURVE SMOOTH"
);
},
{
closed = 1;
nodes = (
"266 121 OFFCURVE",
"250 132 OFFCURVE",
"250 153 CURVE SMOOTH",
"250 181 OFFCURVE",
"273 191 OFFCURVE",
"294 191 CURVE SMOOTH",
"318 191 OFFCURVE",
"330 174 OFFCURVE",
"330 154 CURVE SMOOTH",
"330 132 LINE",
"327 130 OFFCURVE",
"313 121 OFFCURVE",
"293 121 CURVE SMOOTH"
);
}
);
width = 611;
},
{
anchors = (
{
name = bottom;
position = "{268, 0}";
},
{
name = ogonek;
position = "{483, 10}";
},
{
name = top;
position = "{268, 468}";
}
);
layerId = "CA5CD7F6-F0E6-40F5-9716-481B35A0BC32";
paths = (
{
closed = 1;
nodes = (
"285 -10 OFFCURVE",
"333 32 OFFCURVE",
"350 53 CURVE",
"360 48 LINE",
"360 -1 LINE",
"491 -1 LINE",
"511 58 LINE",
"491 159 LINE",
"491 292 LINE SMOOTH",
"491 381 OFFCURVE",
"456 481 OFFCURVE",
"290 481 CURVE SMOOTH",
"193 481 OFFCURVE",
"101 465 OFFCURVE",
"60 451 CURVE",
"60 341 LINE",
"101 353 OFFCURVE",
"175 372 OFFCURVE",
"266 372 CURVE SMOOTH",
"342 372 OFFCURVE",
"350 331 OFFCURVE",
"350 271 CURVE",
"343 265 LINE",
"330 271 OFFCURVE",
"290 290 OFFCURVE",
"210 290 CURVE SMOOTH",
"101 290 OFFCURVE",
"30 235 OFFCURVE",
"30 132 CURVE SMOOTH",
"30 34 OFFCURVE",
"101 -10 OFFCURVE",
"190 -10 CURVE SMOOTH"
);
},
{
closed = 1;
nodes = (
"204 101 OFFCURVE",
"180 116 OFFCURVE",
"180 148 CURVE SMOOTH",
"180 179 OFFCURVE",
"203 201 OFFCURVE",
"254 201 CURVE SMOOTH",
"322 201 OFFCURVE",
"350 169 OFFCURVE",
"350 144 CURVE SMOOTH",
"350 125 LINE",
"333 114 OFFCURVE",
"302 101 OFFCURVE",
"245 101 CURVE SMOOTH"
);
}
);
width = 551;
}
);
rightMetricsKey = n;
unicode = 0061;
},
{
color = 1;
glyphname = a.alt;
layers = (
{
layerId = "083550D2-F2E8-44E3-BE3D-E8BDF41EDFC4";
paths = (
{
closed = 1;
nodes = (
"304 -10 OFFCURVE",
"350 53 OFFCURVE",
"350 53 CURVE",
"360 48 LINE",
"360 -1 LINE",
"531 -1 LINE",
"551 60 LINE",
"531 160 LINE",
"531 472 LINE",
"370 472 LINE",
"350 438 LINE",
"350 438 OFFCURVE",
"314 482 OFFCURVE",
"220 482 CURVE SMOOTH",
"125 482 OFFCURVE",
"30 411 OFFCURVE",
"30 226 CURVE SMOOTH",
"30 57 OFFCURVE",
"126 -10 OFFCURVE",
"220 -10 CURVE SMOOTH"
);
},
{
closed = 1;
nodes = (
"254 131 OFFCURVE",
"220 162 OFFCURVE",
"220 236 CURVE SMOOTH",
"220 310 OFFCURVE",
"246 341 OFFCURVE",
"295 341 CURVE SMOOTH",
"328 341 OFFCURVE",
"350 321 OFFCURVE",
"350 291 CURVE SMOOTH",
"350 145 LINE",
"295 131 LINE"
);
}
);
width = 581;
},
{
layerId = "1A280FA7-9E72-4FC3-84C1-49B7BD56B269";
paths = (
{
closed = 1;
nodes = (
"304 -10 OFFCURVE",
"330 53 OFFCURVE",
"330 53 CURVE",
"340 48 LINE",
"340 -1 LINE",
"551 -1 LINE",
"571 60 LINE",
"551 160 LINE",
"551 472 LINE",
"360 472 LINE",
"350 448 LINE",
"339 455 OFFCURVE",
"295 482 OFFCURVE",
"220 482 CURVE SMOOTH",
"125 482 OFFCURVE",
"30 411 OFFCURVE",
"30 226 CURVE SMOOTH",
"30 57 OFFCURVE",
"126 -10 OFFCURVE",
"220 -10 CURVE SMOOTH"
);
},
{
closed = 1;
nodes = (
"282 155 OFFCURVE",
"250 186 OFFCURVE",
"250 246 CURVE SMOOTH",
"250 294 OFFCURVE",
"267 311 OFFCURVE",
"294 311 CURVE SMOOTH",
"315 311 OFFCURVE",
"330 291 OFFCURVE",
"330 261 CURVE SMOOTH",
"330 165 LINE",
"320 155 LINE"
);
}
);
width = 601;
},
{
layerId = "CA5CD7F6-F0E6-40F5-9716-481B35A0BC32";
paths = (
{
closed = 1;
nodes = (
"304 -10 OFFCURVE",
"350 53 OFFCURVE",
"350 53 CURVE",
"360 48 LINE",
"360 -1 LINE",
"491 -1 LINE",
"511 60 LINE",
"491 160 LINE",
"491 472 LINE",
"370 472 LINE",
"350 438 LINE",
"350 438 OFFCURVE",
"314 482 OFFCURVE",
"220 482 CURVE SMOOTH",
"125 482 OFFCURVE",
"30 411 OFFCURVE",
"30 226 CURVE SMOOTH",
"30 57 OFFCURVE",
"126 -10 OFFCURVE",
"220 -10 CURVE SMOOTH"
);
},
{
closed = 1;
nodes = (
"207 101 OFFCURVE",
"180 162 OFFCURVE",
"180 236 CURVE SMOOTH",
"180 310 OFFCURVE",
"199 371 OFFCURVE",
"275 371 CURVE SMOOTH",
"308 371 OFFCURVE",
"350 351 OFFCURVE",
"350 321 CURVE SMOOTH",
"350 115 LINE",
"275 101 LINE"
);
}
);
width = 541;
}
);
leftMetricsKey = o;
},
{
color = 1;
glyphname = ae;
layers = (
{
anchors = (
{
name = bottom;
position = "{423, 0}";
},
{
name = top;
position = "{423, 468}";
}
);
components = (
{
name = e;
transform = "{1, 0, 0, 1, 330, 0}";
}
);
layerId = "083550D2-F2E8-44E3-BE3D-E8BDF41EDFC4";
paths = (
{
closed = 1;
nodes = (
"282 -10 OFFCURVE",
"356 4 OFFCURVE",
"410 40 CURVE SMOOTH",
"472 81 OFFCURVE",
"510 134 OFFCURVE",
"510 229 CURVE SMOOTH",
"510 242 LINE SMOOTH",
"510 360 OFFCURVE",
"462 481 OFFCURVE",
"260 481 CURVE SMOOTH",
"139 481 OFFCURVE",
"60 451 OFFCURVE",
"60 451 CURVE",
"60 301 LINE",
"94 319 OFFCURVE",
"172 342 OFFCURVE",
"246 342 CURVE SMOOTH",
"334 342 OFFCURVE",
"360 303 OFFCURVE",
"360 241 CURVE",
"350 237 LINE",
"332 252 OFFCURVE",
"296 280 OFFCURVE",
"210 280 CURVE SMOOTH",
"115 280 OFFCURVE",
"30 232 OFFCURVE",
"30 132 CURVE SMOOTH",
"30 22 OFFCURVE",
"104 -10 OFFCURVE",
"190 -10 CURVE SMOOTH"
);
},
{
closed = 1;
nodes = (
"234 121 OFFCURVE",
"220 132 OFFCURVE",
"220 153 CURVE SMOOTH",
"220 179 OFFCURVE",
"239 191 OFFCURVE",
"274 191 CURVE SMOOTH",
"326 191 OFFCURVE",
"350 169 OFFCURVE",
"350 144 CURVE SMOOTH",
"350 135 LINE",
"338 130 OFFCURVE",
"311 121 OFFCURVE",
"275 121 CURVE SMOOTH"
);
}
);
width = 909;
},
{
anchors = (
{
name = bottom;
position = "{433, 0}";
},
{
name = top;
position = "{433, 468}";
}
);
components = (
{
name = e;
transform = "{1, 0, 0, 1, 310, 0}";
}
);
layerId = "1A280FA7-9E72-4FC3-84C1-49B7BD56B269";
paths = (
{
closed = 1;
nodes = (
"256 -10 OFFCURVE",
"351 2 OFFCURVE",
"412 47 CURVE SMOOTH",
"473 92 OFFCURVE",
"510 147 OFFCURVE",
"510 249 CURVE SMOOTH",
"510 272 LINE SMOOTH",
"510 363 OFFCURVE",
"462 481 OFFCURVE",
"300 481 CURVE SMOOTH",
"188 481 OFFCURVE",
"101 465 OFFCURVE",
"60 451 CURVE",
"60 271 LINE",
"94 289 OFFCURVE",
"192 312 OFFCURVE",
"266 312 CURVE SMOOTH",
"319 312 OFFCURVE",
"330 302 OFFCURVE",
"330 261 CURVE",
"323 255 LINE",
"297 271 OFFCURVE",
"268 280 OFFCURVE",
"220 280 CURVE SMOOTH",
"112 280 OFFCURVE",
"30 229 OFFCURVE",
"30 132 CURVE SMOOTH",
"30 22 OFFCURVE",
"99 -10 OFFCURVE",
"180 -10 CURVE SMOOTH"
);
},
{
closed = 1;
nodes = (
"271 121 OFFCURVE",
"260 132 OFFCURVE",
"260 153 CURVE SMOOTH",
"260 179 OFFCURVE",
"273 191 OFFCURVE",
"294 191 CURVE SMOOTH",
"318 191 OFFCURVE",
"330 174 OFFCURVE",
"330 154 CURVE SMOOTH",
"330 135 LINE",
"325 129 OFFCURVE",
"315 121 OFFCURVE",
"295 121 CURVE SMOOTH"
);
}
);
width = 909;
},
{
associatedMasterId = "083550D2-F2E8-44E3-BE3D-E8BDF41EDFC4";
layerId = "0AAF2CB4-2EBD-42C4-BAB4-4CEC92C737FB";
width = 600;
},
{
anchors = (
{
name = bottom;
position = "{383, 0}";
},
{
name = top;
position = "{383, 468}";
}
);
components = (
{
name = e;
transform = "{1, 0, 0, 1, 320, 0}";
}
);
layerId = "CA5CD7F6-F0E6-40F5-9716-481B35A0BC32";
paths = (
{
closed = 1;
nodes = (
"295 -10 OFFCURVE",
"355 17 OFFCURVE",
"405 52 CURVE SMOOTH",
"456 88 OFFCURVE",
"491 148 OFFCURVE",
"491 239 CURVE SMOOTH",
"491 272 LINE SMOOTH",
"491 361 OFFCURVE",
"446 481 OFFCURVE",
"280 481 CURVE SMOOTH",
"168 481 OFFCURVE",
"101 465 OFFCURVE",
"60 451 CURVE",
"60 341 LINE",
"118 356 OFFCURVE",
"192 372 OFFCURVE",
"266 372 CURVE SMOOTH",
"342 372 OFFCURVE",
"350 311 OFFCURVE",
"350 251 CURVE",
"343 245 LINE",
"317 261 OFFCURVE",
"279 280 OFFCURVE",
"210 280 CURVE SMOOTH",
"115 280 OFFCURVE",
"30 232 OFFCURVE",
"30 132 CURVE SMOOTH",
"30 31 OFFCURVE",
"111 -10 OFFCURVE",
"200 -10 CURVE SMOOTH"
);
},
{
closed = 1;
nodes = (
"201 91 OFFCURVE",
"180 111 OFFCURVE",
"180 143 CURVE SMOOTH",
"180 179 OFFCURVE",
"203 201 OFFCURVE",
"254 201 CURVE SMOOTH",
"314 201 OFFCURVE",
"350 170 OFFCURVE",
"350 134 CURVE SMOOTH",
"350 115 LINE",
"333 104 OFFCURVE",
"302 91 OFFCURVE",
"245 91 CURVE SMOOTH"
);
}
);
width = 829;
},
{
associatedMasterId = "CA5CD7F6-F0E6-40F5-9716-481B35A0BC32";
layerId = "3F3F918E-8D5E-47AF-871D-369546CA17FC";
width = 600;
}
);
leftMetricsKey = a;
rightMetricsKey = e;
unicode = 00E6;
},
{
color = 1;
glyphname = b;
layers = (
{
layerId = "083550D2-F2E8-44E3-BE3D-E8BDF41EDFC4";
paths = (
{
closed = 1;
nodes = (
"477 -10 OFFCURVE",
"562 60 OFFCURVE",
"562 245 CURVE SMOOTH",
"562 409 OFFCURVE",
"490 482 OFFCURVE",
"372 482 CURVE SMOOTH",
"302 482 OFFCURVE",
"267 453 OFFCURVE",
"241 428 CURVE",
"231 433 LINE",
"241 546 LINE",
"241 707 LINE",
"61 707 LINE",
"40 647 LINE",
"61 547 LINE",
"61 -1 LINE",
"241 -1 LINE",
"241 24 LINE",
"241 24 OFFCURVE",
"276 -10 OFFCURVE",
"372 -10 CURVE SMOOTH"
);
},
{
closed = 1;
nodes = (
"253 127 OFFCURVE",
"241 140 OFFCURVE",
"241 140 CURVE",
"241 319 LINE",
"297 340 LINE",
"346 340 OFFCURVE",
"372 309 OFFCURVE",
"372 237 CURVE SMOOTH",
"372 163 OFFCURVE",
"339 127 OFFCURVE",
"287 127 CURVE SMOOTH"
);
}
);
width = 592;
},
{
layerId = "1A280FA7-9E72-4FC3-84C1-49B7BD56B269";
paths = (
{
closed = 1;
nodes = (
"496 -10 OFFCURVE",
"582 60 OFFCURVE",
"582 245 CURVE SMOOTH",
"582 409 OFFCURVE",
"520 482 OFFCURVE",
"402 482 CURVE SMOOTH",
"332 482 OFFCURVE",
"307 453 OFFCURVE",
"281 428 CURVE",
"271 433 LINE",
"281 546 LINE",
"281 707 LINE",
"61 707 LINE",
"40 647 LINE",
"61 547 LINE",
"61 -1 LINE",
"281 -1 LINE",
"281 24 LINE",
"281 24 OFFCURVE",
"311 -10 OFFCURVE",
"402 -10 CURVE SMOOTH"
);
},
{
closed = 1;
nodes = (
"298 159 OFFCURVE",
"281 172 OFFCURVE",
"281 172 CURVE",
"281 298 LINE",
"291 308 LINE",
"336 308 OFFCURVE",
"362 278 OFFCURVE",
"362 227 CURVE SMOOTH",
"362 185 OFFCURVE",
"349 159 OFFCURVE",
"318 159 CURVE SMOOTH"
);
}
);
width = 612;
},
{
associatedMasterId = "083550D2-F2E8-44E3-BE3D-E8BDF41EDFC4";
layerId = "0AAF2CB4-2EBD-42C4-BAB4-4CEC92C737FB";
width = 600;
},
{
layerId = "CA5CD7F6-F0E6-40F5-9716-481B35A0BC32";
paths = (
{
closed = 1;
nodes = (
"437 0 OFFCURVE",
"522 70 OFFCURVE",
"522 255 CURVE SMOOTH",
"522 419 OFFCURVE",
"450 492 OFFCURVE",
"332 492 CURVE SMOOTH",
"262 492 OFFCURVE",
"227 463 OFFCURVE",
"201 438 CURVE",
"191 443 LINE",
"201 556 LINE",
"201 717 LINE",
"61 717 LINE",
"40 657 LINE",
"61 557 LINE",
"61 9 LINE",
"201 9 LINE",
"201 34 LINE",
"201 34 OFFCURVE",
"236 0 OFFCURVE",
"332 0 CURVE SMOOTH"
);
},
{
closed = 1;
nodes = (
"234 106 OFFCURVE",
"201 119 OFFCURVE",
"201 119 CURVE",
"201 360 LINE",
"278 381 LINE",
"355 381 OFFCURVE",
"372 319 OFFCURVE",
"372 247 CURVE SMOOTH",
"372 173 OFFCURVE",
"347 106 OFFCURVE",
"268 106 CURVE SMOOTH"
);
}
);
width = 552;
},
{
associatedMasterId = "CA5CD7F6-F0E6-40F5-9716-481B35A0BC32";
layerId = "8C17FEDB-9D26-4442-B869-0145B014F356";
width = 600;
}
);
leftMetricsKey = n;
rightMetricsKey = o;
unicode = 0062;
},
{
color = 1;
glyphname = c;
layers = (
{
anchors = (
{
name = bottom;
position = "{288, 0}";
},
{
name = top;
position = "{328, 468}";
}
);
layerId = "083550D2-F2E8-44E3-BE3D-E8BDF41EDFC4";
paths = (
{
closed = 1;
nodes = (
"384 -10 OFFCURVE",
"447 8 OFFCURVE",
"489 29 CURVE",
"489 173 LINE",
"457 155 OFFCURVE",
"397 130 OFFCURVE",
"325 130 CURVE SMOOTH",
"253 130 OFFCURVE",
"219 162 OFFCURVE",
"219 236 CURVE SMOOTH",
"219 305 OFFCURVE",
"248 342 OFFCURVE",
"305 342 CURVE",
"420 274 LINE",
"500 383 LINE",
"422 471 LINE",
"404 475 OFFCURVE",
"348 482 OFFCURVE",
"275 482 CURVE SMOOTH",
"148 482 OFFCURVE",
"30 421 OFFCURVE",
"30 236 CURVE SMOOTH",
"30 51 OFFCURVE",
"136 -10 OFFCURVE",
"275 -10 CURVE SMOOTH"
);
}
);
width = 540;
},
{
anchors = (
{
name = _center;
position = "{326, 250}";
},
{
name = bottom;
position = "{288, 0}";
},
{
name = top;
position = "{288, 468}";
}
);
layerId = "1A280FA7-9E72-4FC3-84C1-49B7BD56B269";
paths = (
{
closed = 1;
nodes = (
"376 -10 OFFCURVE",
"458 3 OFFCURVE",
"509 29 CURVE",
"509 203 LINE",
"480 189 OFFCURVE",
"417 160 OFFCURVE",
"335 160 CURVE SMOOTH",
"288 160 OFFCURVE",
"259 175 OFFCURVE",
"259 236 CURVE SMOOTH",
"259 294 OFFCURVE",
"286 312 OFFCURVE",
"315 312 CURVE",
"430 254 LINE",
"520 383 LINE",
"442 471 LINE",
"421 474 OFFCURVE",
"368 482 OFFCURVE",
"295 482 CURVE SMOOTH",
"173 482 OFFCURVE",
"30 424 OFFCURVE",
"30 236 CURVE SMOOTH",
"30 51 OFFCURVE",
"146 -10 OFFCURVE",
"295 -10 CURVE SMOOTH"
);
}
);
width = 560;
},
{
associatedMasterId = "083550D2-F2E8-44E3-BE3D-E8BDF41EDFC4";
layerId = "0AAF2CB4-2EBD-42C4-BAB4-4CEC92C737FB";
width = 600;
},
{
anchors = (
{
name = bottom;
position = "{288, 0}";
},
{
name = top;
position = "{258, 478}";
}
);
layerId = "CA5CD7F6-F0E6-40F5-9716-481B35A0BC32";
paths = (
{
closed = 1;
nodes = (
"343 -10 OFFCURVE",
"406 11 OFFCURVE",
"439 29 CURVE",
"439 143 LINE",
"423 132 OFFCURVE",
"369 100 OFFCURVE",
"295 100 CURVE SMOOTH",
"220 100 OFFCURVE",
"179 143 OFFCURVE",
"179 236 CURVE SMOOTH",
"179 324 OFFCURVE",
"218 372 OFFCURVE",
"285 372 CURVE",
"390 304 LINE",
"450 383 LINE",
"372 471 LINE",
"351 476 OFFCURVE",
"326 482 OFFCURVE",
"265 482 CURVE SMOOTH",
"134 482 OFFCURVE",
"30 421 OFFCURVE",
"30 236 CURVE SMOOTH",
"30 54 OFFCURVE",
"122 -10 OFFCURVE",
"245 -10 CURVE SMOOTH"
);
}
);
width = 490;
},
{
associatedMasterId = "CA5CD7F6-F0E6-40F5-9716-481B35A0BC32";
layerId = "1A3A5ACC-1143-4C8D-BEBA-B289F63E5C07";
width = 600;
}
);
leftMetricsKey = o;
rightMetricsKey = n;
unicode = 0063;
},
{
color = 1;
glyphname = d;
layers = (
{
anchors = (
{
name = bottom;
position = "{328, 0}";
},
{
name = center;
position = "{408, 584}";
},
{
name = top;
position = "{168, 493}";
},
{
name = topright;
position = "{565, 468}";
}
);
layerId = "083550D2-F2E8-44E3-BE3D-E8BDF41EDFC4";
paths = (
{
closed = 1;
nodes = (
"304 -10 OFFCURVE",
"350 53 OFFCURVE",
"350 53 CURVE",
"360 48 LINE",
"360 -1 LINE",
"531 -1 LINE",
"551 60 LINE",
"531 160 LINE",
"531 707 LINE",
"350 707 LINE",
"340 647 LINE",
"350 458 LINE",
"350 458 OFFCURVE",
"314 482 OFFCURVE",
"220 482 CURVE SMOOTH",
"125 482 OFFCURVE",
"30 411 OFFCURVE",
"30 226 CURVE SMOOTH",
"30 57 OFFCURVE",
"126 -10 OFFCURVE",
"220 -10 CURVE SMOOTH"
);
},
{
closed = 1;
nodes = (
"254 131 OFFCURVE",
"220 162 OFFCURVE",
"220 236 CURVE SMOOTH",
"220 310 OFFCURVE",
"246 341 OFFCURVE",
"295 341 CURVE SMOOTH",
"328 341 OFFCURVE",
"350 321 OFFCURVE",
"350 291 CURVE SMOOTH",
"350 145 LINE",
"295 131 LINE"
);
}
);
width = 601;
},
{
anchors = (
{
name = bottom;
position = "{298, 0}";
},
{
name = center;
position = "{395, 564}";
},
{
name = top;
position = "{138, 488}";
},
{
name = topright;
position = "{585, 468}";
}
);
layerId = "1A280FA7-9E72-4FC3-84C1-49B7BD56B269";
paths = (
{
closed = 1;
nodes = (
"304 -10 OFFCURVE",
"330 53 OFFCURVE",
"330 53 CURVE",
"340 48 LINE",
"340 -1 LINE",
"551 -1 LINE",
"571 60 LINE",
"551 160 LINE",
"551 707 LINE",
"330 707 LINE",
"320 647 LINE",
"330 458 LINE",
"314 467 OFFCURVE",
"279 482 OFFCURVE",
"220 482 CURVE SMOOTH",
"125 482 OFFCURVE",
"30 411 OFFCURVE",
"30 226 CURVE SMOOTH",
"30 57 OFFCURVE",
"126 -10 OFFCURVE",
"220 -10 CURVE SMOOTH"
);
},
{
closed = 1;
nodes = (
"282 155 OFFCURVE",
"250 186 OFFCURVE",
"250 246 CURVE SMOOTH",
"250 294 OFFCURVE",
"267 311 OFFCURVE",
"294 311 CURVE SMOOTH",
"315 311 OFFCURVE",
"330 291 OFFCURVE",
"330 261 CURVE SMOOTH",
"330 165 LINE",
"320 155 LINE"
);
}
);
width = 621;
},
{
associatedMasterId = "083550D2-F2E8-44E3-BE3D-E8BDF41EDFC4";
layerId = "0AAF2CB4-2EBD-42C4-BAB4-4CEC92C737FB";
width = 600;
},
{
anchors = (
{
name = bottom;
position = "{328, 0}";
},
{
name = center;
position = "{396, 574}";
},
{
name = top;
position = "{168, 488}";
},
{
name = topright;
position = "{585, 468}";
}
);
layerId = "CA5CD7F6-F0E6-40F5-9716-481B35A0BC32";
paths = (
{
closed = 1;
nodes = (
"304 -10 OFFCURVE",
"350 53 OFFCURVE",
"350 53 CURVE",
"360 48 LINE",
"360 -1 LINE",
"491 -1 LINE",
"511 60 LINE",
"491 160 LINE",
"491 707 LINE",
"350 707 LINE",
"340 647 LINE",
"350 458 LINE",
"331 467 OFFCURVE",
"296 482 OFFCURVE",
"230 482 CURVE SMOOTH",
"135 482 OFFCURVE",
"30 411 OFFCURVE",
"30 226 CURVE SMOOTH",
"30 57 OFFCURVE",
"126 -10 OFFCURVE",
"220 -10 CURVE SMOOTH"
);
},
{
closed = 1;
nodes = (
"207 101 OFFCURVE",
"180 162 OFFCURVE",
"180 236 CURVE SMOOTH",
"180 310 OFFCURVE",
"199 371 OFFCURVE",
"275 371 CURVE SMOOTH",
"324 371 OFFCURVE",
"350 351 OFFCURVE",
"350 321 CURVE SMOOTH",
"350 115 LINE",
"275 101 LINE"
);
}
);
width = 561;
},
{
associatedMasterId = "CA5CD7F6-F0E6-40F5-9716-481B35A0BC32";
layerId = "5A46FAA8-3A4F-4D09-B744-4E5A84EACDB2";
width = 600;
}
);
leftMetricsKey = o;
unicode = 0064;
},
{
color = 1;
glyphname = eth;
layers = (
{
layerId = "083550D2-F2E8-44E3-BE3D-E8BDF41EDFC4";
paths = (
{
closed = 1;
nodes = (
"439 -10 OFFCURVE",
"556 138 OFFCURVE",
"556 374 CURVE SMOOTH",
"556 603 OFFCURVE",
"411 756 OFFCURVE",
"217 756 CURVE SMOOTH",
"120 756 OFFCURVE",
"86 748 OFFCURVE",
"50 737 CURVE",
"50 626 LINE",
"125 626 LINE SMOOTH",
"299 626 OFFCURVE",
"384 556 OFFCURVE",
"384 407 CURVE",
"376 420 OFFCURVE",
"334 455 OFFCURVE",
"252 455 CURVE SMOOTH",
"114 455 OFFCURVE",
"30 376 OFFCURVE",
"30 223 CURVE SMOOTH",
"30 77 OFFCURVE",
"127 -10 OFFCURVE",
"263 -10 CURVE SMOOTH"
);
},
{
closed = 1;
nodes = (
"237 91 OFFCURVE",
"202 125 OFFCURVE",
"202 203 CURVE SMOOTH",
"202 296 OFFCURVE",
"224 355 OFFCURVE",
"290 355 CURVE SMOOTH",
"344 355 OFFCURVE",
"374 308 OFFCURVE",
"374 252 CURVE SMOOTH",
"374 155 OFFCURVE",
"334 91 OFFCURVE",
"280 91 CURVE SMOOTH"
);
},
{
closed = 1;
nodes = (
"490 696 LINE",
"435 750 LINE",
"240 554 LINE",
"295 500 LINE"
);
}
);
width = 606;
},
{
layerId = "1A280FA7-9E72-4FC3-84C1-49B7BD56B269";
paths = (
{
closed = 1;
nodes = (
"459 -10 OFFCURVE",
"576 138 OFFCURVE",
"576 374 CURVE SMOOTH",
"576 603 OFFCURVE",
"431 756 OFFCURVE",
"237 756 CURVE SMOOTH",
"140 756 OFFCURVE",
"106 748 OFFCURVE",
"70 737 CURVE",
"70 595 LINE",
"145 595 LINE SMOOTH",
"292 595 OFFCURVE",
"364 529 OFFCURVE",
"364 417 CURVE",
"356 430 OFFCURVE",
"318 455 OFFCURVE",
"252 455 CURVE SMOOTH",
"125 455 OFFCURVE",
"30 376 OFFCURVE",
"30 223 CURVE SMOOTH",
"30 77 OFFCURVE",
"147 -10 OFFCURVE",
"283 -10 CURVE SMOOTH"
);
},
{
closed = 1;
nodes = (
"255 122 OFFCURVE",
"242 160 OFFCURVE",
"242 203 CURVE SMOOTH",
"242 290 OFFCURVE",
"261 324 OFFCURVE",
"300 324 CURVE SMOOTH",
"338 324 OFFCURVE",
"354 292 OFFCURVE",
"354 252 CURVE SMOOTH",
"354 182 OFFCURVE",
"334 122 OFFCURVE",
"290 122 CURVE SMOOTH"
);
},
{
closed = 1;
nodes = (
"490 717 LINE",
"435 771 LINE",
"210 543 LINE",
"265 489 LINE"
);
}
);
width = 626;
},
{
associatedMasterId = "083550D2-F2E8-44E3-BE3D-E8BDF41EDFC4";
layerId = "0AAF2CB4-2EBD-42C4-BAB4-4CEC92C737FB";
width = 600;
},
{
layerId = "CA5CD7F6-F0E6-40F5-9716-481B35A0BC32";
paths = (
{
closed = 1;
nodes = (
"411 -10 OFFCURVE",
"496 130 OFFCURVE",
"496 374 CURVE SMOOTH",
"496 603 OFFCURVE",
"391 756 OFFCURVE",
"197 756 CURVE SMOOTH",
"100 756 OFFCURVE",
"66 748 OFFCURVE",
"30 737 CURVE",
"30 656 LINE",
"105 656 LINE SMOOTH",
"295 656 OFFCURVE",
"364 553 OFFCURVE",
"364 407 CURVE",
"356 420 OFFCURVE",
"314 455 OFFCURVE",
"232 455 CURVE SMOOTH",
"121 455 OFFCURVE",
"50 365 OFFCURVE",
"50 223 CURVE SMOOTH",
"50 77 OFFCURVE",
"117 -10 OFFCURVE",
"253 -10 CURVE SMOOTH"
);
},
{
closed = 1;
nodes = (
"217 81 OFFCURVE",
"182 125 OFFCURVE",
"182 203 CURVE SMOOTH",
"182 296 OFFCURVE",
"204 355 OFFCURVE",
"270 355 CURVE SMOOTH",
"324 355 OFFCURVE",
"354 308 OFFCURVE",
"354 252 CURVE SMOOTH",
"354 155 OFFCURVE",
"314 81 OFFCURVE",
"260 81 CURVE SMOOTH"
);
},
{
closed = 1;
nodes = (
"470 696 LINE",
"415 750 LINE",
"220 554 LINE",
"275 500 LINE"
);
}
);
width = 546;
},
{
associatedMasterId = "CA5CD7F6-F0E6-40F5-9716-481B35A0BC32";
layerId = "5BD55B05-A82C-4FC3-9BCD-D521657EC87F";
width = 600;
}
);
leftMetricsKey = d;
rightMetricsKey = d;
unicode = 00F0;
},
{
color = 1;
glyphname = e;
layers = (
{
anchors = (
{
name = bottom;
position = "{293, 0}";
},
{
name = ogonek;
position = "{440, 10}";
},
{
name = top;
position = "{293, 468}";
}
);
layerId = "083550D2-F2E8-44E3-BE3D-E8BDF41EDFC4";
paths = (
{
closed = 1;
nodes = (
"376 -10 OFFCURVE",
"459 7 OFFCURVE",
"499 29 CURVE",
"499 163 LINE",
"470 151 OFFCURVE",
"417 130 OFFCURVE",
"345 130 CURVE SMOOTH",
"253 130 OFFCURVE",
"218 167 OFFCURVE",
"209 217 CURVE",
"519 217 LINE",
"539 279 LINE",
"489 438 LINE",
"469 451 OFFCURVE",
"409 482 OFFCURVE",
"295 482 CURVE SMOOTH",
"162 482 OFFCURVE",
"30 413 OFFCURVE",
"30 236 CURVE SMOOTH",
"30 51 OFFCURVE",
"141 -10 OFFCURVE",
"295 -10 CURVE SMOOTH"
);
},
{
closed = 1;
nodes = (
"212 309 OFFCURVE",
"238 352 OFFCURVE",
"295 352 CURVE SMOOTH",
"308 352 OFFCURVE",
"330 349 OFFCURVE",
"339 344 CURVE",
"348 301 LINE",
"210 281 LINE"
);
}
);
width = 579;
},
{
anchors = (
{
name = bottom;
position = "{293, 0}";
},
{
name = ogonek;
position = "{430, 10}";
},
{
name = top;
position = "{293, 468}";
}
);
layerId = "1A280FA7-9E72-4FC3-84C1-49B7BD56B269";
paths = (
{
closed = 1;
nodes = (
"386 -10 OFFCURVE",
"479 7 OFFCURVE",
"519 29 CURVE",
"519 183 LINE",
"496 173 OFFCURVE",
"443 150 OFFCURVE",
"365 150 CURVE SMOOTH",
"282 150 OFFCURVE",
"254 179 OFFCURVE",
"249 217 CURVE",
"539 217 LINE",
"559 279 LINE",
"509 438 LINE",
"481 453 OFFCURVE",
"421 482 OFFCURVE",
"295 482 CURVE SMOOTH",
"162 482 OFFCURVE",
"30 413 OFFCURVE",
"30 236 CURVE SMOOTH",
"30 48 OFFCURVE",
"151 -10 OFFCURVE",
"305 -10 CURVE SMOOTH"
);
},
{
closed = 1;
nodes = (
"245 313 OFFCURVE",
"261 341 OFFCURVE",
"305 341 CURVE SMOOTH",
"318 341 OFFCURVE",
"330 338 OFFCURVE",
"339 333 CURVE",
"348 301 LINE",
"246 282 LINE"
);
}
);
width = 599;
},
{
anchors = (
{
name = bottom;
position = "{255, -10}";
},
{
name = ogonek;
position = "{400, 10}";
},
{
name = top;
position = "{255, 480}";
}
);
layerId = "CA5CD7F6-F0E6-40F5-9716-481B35A0BC32";
paths = (
{
closed = 1;
nodes = (
"336 -10 OFFCURVE",
"399 7 OFFCURVE",
"439 29 CURVE",
"439 133 LINE",
"422 123 OFFCURVE",
"377 100 OFFCURVE",
"305 100 CURVE SMOOTH",
"217 100 OFFCURVE",
"177 146 OFFCURVE",
"169 217 CURVE",
"449 217 LINE",
"469 279 LINE",
"419 438 LINE",
"392 457 OFFCURVE",
"344 482 OFFCURVE",
"255 482 CURVE SMOOTH",
"133 482 OFFCURVE",
"30 413 OFFCURVE",
"30 236 CURVE SMOOTH",
"30 51 OFFCURVE",
"125 -10 OFFCURVE",
"255 -10 CURVE SMOOTH"
);
},
{
closed = 1;
nodes = (
"168 333 OFFCURVE",
"201 383 OFFCURVE",
"261 383 CURVE SMOOTH",
"274 383 OFFCURVE",
"294 380 OFFCURVE",
"303 375 CURVE",
"318 301 LINE",
"168 281 LINE"
);
}
);
width = 509;
}
);
leftMetricsKey = o;
rightMetricsKey = n;
unicode = 0065;
},
{
color = 1;
glyphname = schwa;
layers = (
{
layerId = "083550D2-F2E8-44E3-BE3D-E8BDF41EDFC4";
paths = (
{
closed = 1;
nodes = (
"465 -10 OFFCURVE",
"557 84 OFFCURVE",
"557 234 CURVE SMOOTH",
"557 379 OFFCURVE",
"468 478 OFFCURVE",
"294 478 CURVE SMOOTH",
"183 478 OFFCURVE",
"83 447 OFFCURVE",
"70 438 CURVE",
"70 318 LINE",
"102 326 OFFCURVE",
"193 348 OFFCURVE",
"294 348 CURVE SMOOTH",
"353 348 OFFCURVE",
"384 316 OFFCURVE",
"384 265 CURVE",
"30 265 LINE",
"30 203 LINE SMOOTH",
"30 63 OFFCURVE",
"111 -10 OFFCURVE",
"293 -10 CURVE SMOOTH"
);
},
{
closed = 1;
nodes = (
"224 122 OFFCURVE",
"203 147 OFFCURVE",
"203 173 CURVE SMOOTH",
"203 185 LINE",
"384 185 LINE",
"384 150 OFFCURVE",
"359 122 OFFCURVE",
"293 122 CURVE SMOOTH"
);
}
);
width = 597;
},
{
layerId = "1A280FA7-9E72-4FC3-84C1-49B7BD56B269";
paths = (
{
closed = 1;
nodes = (
"486 -10 OFFCURVE",
"578 76 OFFCURVE",
"578 234 CURVE SMOOTH",
"578 379 OFFCURVE",
"489 478 OFFCURVE",
"315 478 CURVE SMOOTH",
"204 478 OFFCURVE",
"84 447 OFFCURVE",
"71 438 CURVE",
"71 297 LINE",
"115 302 OFFCURVE",
"214 316 OFFCURVE",
"315 316 CURVE SMOOTH",
"356 316 OFFCURVE",
"364 295 OFFCURVE",
"364 265 CURVE",
"30 265 LINE",
"30 203 LINE SMOOTH",
"30 55 OFFCURVE",
"132 -10 OFFCURVE",
"314 -10 CURVE SMOOTH"
);
},
{
closed = 1;
nodes = (
"259 132 OFFCURVE",
"244 147 OFFCURVE",
"244 173 CURVE SMOOTH",
"244 185 LINE",
"364 185 LINE",
"364 150 OFFCURVE",
"350 132 OFFCURVE",
"303 132 CURVE SMOOTH"
);
}
);
width = 618;
},
{
layerId = "CA5CD7F6-F0E6-40F5-9716-481B35A0BC32";
paths = (
{
closed = 1;
nodes = (
"415 -10 OFFCURVE",
"475 89 OFFCURVE",
"475 234 CURVE SMOOTH",
"475 379 OFFCURVE",
"427 478 OFFCURVE",
"253 478 CURVE SMOOTH",
"142 478 OFFCURVE",
"83 447 OFFCURVE",
"70 438 CURVE",
"70 349 LINE",
"95 357 OFFCURVE",
"157 379 OFFCURVE",
"232 379 CURVE SMOOTH",
"315 379 OFFCURVE",
"342 327 OFFCURVE",
"342 255 CURVE",
"30 255 LINE",
"30 203 LINE SMOOTH",
"30 63 OFFCURVE",
"102 -10 OFFCURVE",
"252 -10 CURVE SMOOTH"
);
},
{
closed = 1;
nodes = (
"182 92 OFFCURVE",
"161 131 OFFCURVE",
"161 173 CURVE SMOOTH",
"161 185 LINE",
"342 185 LINE",
"342 134 OFFCURVE",
"317 92 OFFCURVE",
"251 92 CURVE SMOOTH"
);
}
);
width = 515;
}
);
leftMetricsKey = o;
rightMetricsKey = a;
unicode = 0259;
},
{
color = 1;
glyphname = f;
layers = (
{
layerId = "083550D2-F2E8-44E3-BE3D-E8BDF41EDFC4";
paths = (
{
closed = 1;
nodes = (
"253 0 LINE",
"263 61 LINE",
"253 162 LINE",
"253 352 LINE",
"413 352 LINE",
"413 472 LINE",
"253 472 LINE",
"244 483 OFFCURVE",
"232 506 OFFCURVE",
"232 536 CURVE SMOOTH",
"232 576 OFFCURVE",
"253 615 OFFCURVE",
"298 615 CURVE",
"413 545 LINE",
"490 684 LINE",
"383 745 LINE",
"352 753 OFFCURVE",
"306 756 OFFCURVE",
"269 756 CURVE SMOOTH",
"150 756 OFFCURVE",
"63 677 OFFCURVE",
"63 564 CURVE SMOOTH",
"63 540 OFFCURVE",
"66 495 OFFCURVE",
"73 472 CURVE",
"20 424 LINE",
"73 324 LINE",
"73 0 LINE"
);
}
);
width = 450;
},
{
layerId = "1A280FA7-9E72-4FC3-84C1-49B7BD56B269";
paths = (
{
closed = 1;
nodes = (
"293 0 LINE",
"303 61 LINE",
"293 162 LINE",
"293 322 LINE",
"453 322 LINE",
"453 472 LINE",
"293 472 LINE",
"284 483 OFFCURVE",
"272 501 OFFCURVE",
"272 526 CURVE SMOOTH",
"272 566 OFFCURVE",
"293 585 OFFCURVE",
"338 585 CURVE",
"453 525 LINE",
"530 684 LINE",
"403 745 LINE",
"372 753 OFFCURVE",
"306 756 OFFCURVE",
"269 756 CURVE SMOOTH",
"150 756 OFFCURVE",
"63 677 OFFCURVE",
"63 564 CURVE SMOOTH",
"63 540 OFFCURVE",
"66 495 OFFCURVE",
"73 472 CURVE",
"20 424 LINE",
"73 324 LINE",
"73 0 LINE"
);
}
);
width = 490;
},
{
layerId = "CA5CD7F6-F0E6-40F5-9716-481B35A0BC32";
paths = (
{
closed = 1;
nodes = (
"213 0 LINE",
"223 61 LINE",
"213 162 LINE",
"213 382 LINE",
"373 382 LINE",
"373 472 LINE",
"213 472 LINE",
"204 483 OFFCURVE",
"192 523 OFFCURVE",
"192 556 CURVE SMOOTH",
"192 607 OFFCURVE",
"213 645 OFFCURVE",
"258 645 CURVE",
"393 585 LINE",
"440 684 LINE",
"343 745 LINE",
"312 753 OFFCURVE",
"266 756 OFFCURVE",
"229 756 CURVE SMOOTH",
"110 756 OFFCURVE",
"63 677 OFFCURVE",
"63 564 CURVE SMOOTH",
"63 540 OFFCURVE",
"66 495 OFFCURVE",
"73 472 CURVE",
"20 424 LINE",
"73 354 LINE",
"73 0 LINE"
);
}
);
width = 400;
}
);
unicode = 0066;
},
{
glyphname = f_joint;
layers = (
{
layerId = "CA5CD7F6-F0E6-40F5-9716-481B35A0BC32";
paths = (
{
closed = 1;
nodes = (
"213 0 LINE",
"223 61 LINE",
"213 162 LINE",
"213 382 LINE",
"473 382 LINE",
"473 472 LINE",
"213 472 LINE",
"204 483 OFFCURVE",
"192 523 OFFCURVE",
"192 556 CURVE SMOOTH",
"192 607 OFFCURVE",
"213 645 OFFCURVE",
"258 645 CURVE",
"473 545 LINE",
"510 614 LINE",
"343 745 LINE",
"312 753 OFFCURVE",
"266 756 OFFCURVE",
"229 756 CURVE SMOOTH",
"110 756 OFFCURVE",
"63 677 OFFCURVE",
"63 564 CURVE SMOOTH",
"63 540 OFFCURVE",
"66 495 OFFCURVE",
"73 472 CURVE",
"20 424 LINE",
"73 354 LINE",
"73 0 LINE"
);
}
);
width = 350;
},
{
layerId = "083550D2-F2E8-44E3-BE3D-E8BDF41EDFC4";
paths = (
{
closed = 1;
nodes = (
"253 0 LINE",
"263 61 LINE",
"253 162 LINE",
"253 352 LINE",
"453 352 LINE",
"453 472 LINE",
"253 472 LINE",
"244 483 OFFCURVE",
"232 506 OFFCURVE",
"232 536 CURVE SMOOTH",
"232 576 OFFCURVE",
"253 615 OFFCURVE",
"298 615 CURVE",
"453 545 LINE",
"510 644 LINE",
"383 745 LINE",
"352 753 OFFCURVE",
"306 756 OFFCURVE",
"269 756 CURVE SMOOTH",
"150 756 OFFCURVE",
"63 677 OFFCURVE",
"63 564 CURVE SMOOTH",
"63 540 OFFCURVE",
"66 495 OFFCURVE",
"73 472 CURVE",
"20 424 LINE",
"73 324 LINE",
"73 0 LINE"
);
}
);
width = 350;
},
{
layerId = "1A280FA7-9E72-4FC3-84C1-49B7BD56B269";
paths = (
{
closed = 1;
nodes = (
"293 0 LINE",
"303 61 LINE",
"293 162 LINE",
"293 322 LINE",
"453 322 LINE",
"453 472 LINE",
"293 472 LINE",
"284 483 OFFCURVE",
"272 501 OFFCURVE",
"272 526 CURVE SMOOTH",
"272 566 OFFCURVE",
"293 585 OFFCURVE",
"338 585 CURVE",
"453 535 LINE",
"520 644 LINE",
"403 745 LINE",
"372 753 OFFCURVE",
"306 756 OFFCURVE",
"269 756 CURVE SMOOTH",
"150 756 OFFCURVE",
"63 677 OFFCURVE",
"63 564 CURVE SMOOTH",
"63 540 OFFCURVE",
"66 495 OFFCURVE",
"73 472 CURVE",
"20 424 LINE",
"73 324 LINE",
"73 0 LINE"
);
}
);
width = 380;
}
);
leftMetricsKey = f;
},
{
color = 1;
glyphname = g;
layers = (
{
anchors = (
{
name = bottom;
position = "{318, 0}";
},
{
name = top;
position = "{338, 468}";
}
);
layerId = "083550D2-F2E8-44E3-BE3D-E8BDF41EDFC4";
paths = (
{
closed = 1;
nodes = (
"424 -243 OFFCURVE",
"531 -171 OFFCURVE",
"531 1 CURVE",
"530 353 LINE",
"541 413 LINE",
"531 473 LINE",
"350 473 LINE",
"350 440 LINE",
"350 440 OFFCURVE",
"314 484 OFFCURVE",
"220 484 CURVE SMOOTH",
"126 484 OFFCURVE",
"30 411 OFFCURVE",
"30 226 CURVE SMOOTH",
"30 59 OFFCURVE",
"125 -8 OFFCURVE",
"220 -8 CURVE SMOOTH",
"307 -8 OFFCURVE",
"341 16 OFFCURVE",
"360 35 CURVE",
"370 30 LINE",
"370 11 LINE SMOOTH",
"370 -61 OFFCURVE",
"325 -100 OFFCURVE",
"237 -100 CURVE",
"80 -49 LINE",
"30 -179 LINE",
"152 -238 LINE",
"179 -241 OFFCURVE",
"228 -243 OFFCURVE",
"261 -243 CURVE SMOOTH"
);
},
{
closed = 1;
nodes = (
"253 133 OFFCURVE",
"220 163 OFFCURVE",
"220 237 CURVE SMOOTH",
"220 311 OFFCURVE",
"253 343 OFFCURVE",
"305 343 CURVE SMOOTH",
"339 343 OFFCURVE",
"350 334 OFFCURVE",
"350 334 CURVE",
"350 147 LINE",
"350 147 OFFCURVE",
"328 133 OFFCURVE",
"295 133 CURVE SMOOTH"
);
}
);
width = 581;
},
{
anchors = (
{
name = bottom;
position = "{308, -240}";
},
{
name = top;
position = "{318, 478}";
}
);
layerId = "1A280FA7-9E72-4FC3-84C1-49B7BD56B269";
paths = (
{
closed = 1;
nodes = (
"444 -243 OFFCURVE",
"551 -171 OFFCURVE",
"551 1 CURVE",
"550 353 LINE",
"561 413 LINE",
"551 473 LINE",
"330 473 LINE",
"330 440 LINE",
"330 440 OFFCURVE",
"295 484 OFFCURVE",
"220 484 CURVE SMOOTH",
"126 484 OFFCURVE",
"30 411 OFFCURVE",
"30 226 CURVE SMOOTH",
"30 59 OFFCURVE",
"125 -8 OFFCURVE",
"220 -8 CURVE SMOOTH",
"296 -8 OFFCURVE",
"321 16 OFFCURVE",
"340 35 CURVE",
"350 30 LINE",
"350 11 LINE SMOOTH",
"350 -40 OFFCURVE",
"329 -70 OFFCURVE",
"257 -70 CURVE",
"80 -19 LINE",
"30 -179 LINE",
"152 -238 LINE",
"179 -241 OFFCURVE",
"248 -243 OFFCURVE",
"281 -243 CURVE SMOOTH"
);
},
{
closed = 1;
nodes = (
"291 152 OFFCURVE",
"250 170 OFFCURVE",
"250 237 CURVE SMOOTH",
"250 298 OFFCURVE",
"277 313 OFFCURVE",
"304 313 CURVE SMOOTH",
"323 313 OFFCURVE",
"330 304 OFFCURVE",
"330 304 CURVE",
"330 157 LINE"
);
}
);
width = 601;
},
{
associatedMasterId = "083550D2-F2E8-44E3-BE3D-E8BDF41EDFC4";
layerId = "0AAF2CB4-2EBD-42C4-BAB4-4CEC92C737FB";
width = 600;
},
{
anchors = (
{
name = bottom;
position = "{258, -230}";
},
{
name = top;
position = "{278, 468}";
}
);
layerId = "CA5CD7F6-F0E6-40F5-9716-481B35A0BC32";
paths = (
{
closed = 1;
nodes = (
"424 -243 OFFCURVE",
"491 -154 OFFCURVE",
"491 1 CURVE",
"490 353 LINE",
"501 413 LINE",
"491 473 LINE",
"350 473 LINE",
"350 440 LINE",
"350 440 OFFCURVE",
"314 484 OFFCURVE",
"220 484 CURVE SMOOTH",
"126 484 OFFCURVE",
"30 411 OFFCURVE",
"30 226 CURVE SMOOTH",
"30 59 OFFCURVE",
"125 -8 OFFCURVE",
"220 -8 CURVE SMOOTH",
"307 -8 OFFCURVE",
"344 21 OFFCURVE",
"360 35 CURVE",
"370 30 LINE",
"370 -10 LINE SMOOTH",
"370 -90 OFFCURVE",
"325 -131 OFFCURVE",
"237 -131 CURVE",
"80 -80 LINE",
"40 -179 LINE",
"152 -238 LINE",
"179 -241 OFFCURVE",
"228 -243 OFFCURVE",
"261 -243 CURVE SMOOTH"
);
},
{
closed = 1;
nodes = (
"198 102 OFFCURVE",
"180 163 OFFCURVE",
"180 237 CURVE SMOOTH",
"180 311 OFFCURVE",
"198 373 OFFCURVE",
"285 373 CURVE SMOOTH",
"319 373 OFFCURVE",
"350 364 OFFCURVE",
"350 364 CURVE",
"350 116 LINE",
"350 116 OFFCURVE",
"308 102 OFFCURVE",
"275 102 CURVE SMOOTH"
);
}
);
width = 541;
},
{
associatedMasterId = "CA5CD7F6-F0E6-40F5-9716-481B35A0BC32";
layerId = "F23DAC85-E1F4-41E5-A1F6-3C6652F1C9C3";
width = 600;
}
);
leftMetricsKey = o;
unicode = 0067;
},
{
color = 1;
glyphname = h;
layers = (
{
anchors = (
{
name = bottom;
position = "{318, 0}";
},
{
name = center;
position = "{178, 564}";
},
{
name = top;
position = "{138, 668}";
}
);
layerId = "083550D2-F2E8-44E3-BE3D-E8BDF41EDFC4";
paths = (
{
closed = 1;
nodes = (
"240 0 LINE",
"240 313 LINE",
"302 342 LINE",
"348 342 OFFCURVE",
"370 313 OFFCURVE",
"370 263 CURVE SMOOTH",
"370 0 LINE",
"550 0 LINE",
"571 61 LINE",
"550 159 LINE",
"550 289 LINE SMOOTH",
"550 411 OFFCURVE",
"490 483 OFFCURVE",
"370 483 CURVE SMOOTH",
"299 483 OFFCURVE",
"256 454 OFFCURVE",
"240 430 CURVE",
"230 435 LINE",
"240 546 LINE",
"240 708 LINE",
"60 708 LINE",
"40 648 LINE",
"60 548 LINE",
"60 0 LINE"
);
}
);
width = 611;
},
{
anchors = (
{
name = bottom;
position = "{288, 0}";
},
{
name = center;
position = "{178, 564}";
},
{
name = top;
position = "{158, 708}";
}
);
layerId = "1A280FA7-9E72-4FC3-84C1-49B7BD56B269";
paths = (
{
closed = 1;
nodes = (
"280 0 LINE",
"280 302 LINE",
"290 312 LINE",
"334 312 OFFCURVE",
"349 296 OFFCURVE",
"349 253 CURVE SMOOTH",
"349 0 LINE",
"570 0 LINE",
"591 61 LINE",
"570 159 LINE",
"570 289 LINE SMOOTH",
"570 411 OFFCURVE",
"530 483 OFFCURVE",
"410 483 CURVE SMOOTH",
"339 483 OFFCURVE",
"289 439 OFFCURVE",
"280 430 CURVE",
"270 435 LINE",
"280 546 LINE",
"280 708 LINE",
"60 708 LINE",
"40 648 LINE",
"60 548 LINE",
"60 0 LINE"
);
}
);
width = 631;
},
{
anchors = (
{
name = bottom;
position = "{288, 0}";
},
{
name = center;
position = "{148, 564}";
},
{
name = top;
position = "{118, 698}";
}
);
layerId = "CA5CD7F6-F0E6-40F5-9716-481B35A0BC32";
paths = (
{
closed = 1;
nodes = (
"200 0 LINE",
"200 343 LINE",
"282 372 LINE",
"328 372 OFFCURVE",
"370 343 OFFCURVE",
"370 293 CURVE SMOOTH",
"370 0 LINE",
"510 0 LINE",
"531 61 LINE",
"510 159 LINE",
"510 289 LINE SMOOTH",
"510 411 OFFCURVE",
"450 483 OFFCURVE",
"330 483 CURVE SMOOTH",
"259 483 OFFCURVE",
"216 454 OFFCURVE",
"200 430 CURVE",
"190 435 LINE",
"200 546 LINE",
"200 708 LINE",
"60 708 LINE",
"40 648 LINE",
"60 548 LINE",
"60 0 LINE"
);
}
);
width = 571;
}
);
leftMetricsKey = n;
rightMetricsKey = n;
unicode = 0068;
},
{
color = 1;
glyphname = i;
layers = (
{
anchors = (
{
name = bottom;
position = "{167, 0}";
}
);
layerId = "083550D2-F2E8-44E3-BE3D-E8BDF41EDFC4";
paths = (
{
closed = 1;
nodes = (
"257 0 LINE",
"257 472 LINE",
"76 472 LINE",
"56 411 LINE",
"77 331 LINE",
"77 0 LINE"
);
},
{
closed = 1;
nodes = (
"294 629 LINE",
"167 756 LINE",
"40 629 LINE",
"167 501 LINE"
);
}
);
width = 324;
},
{
anchors = (
{
name = bottom;
position = "{187, 0}";
}
);
layerId = "1A280FA7-9E72-4FC3-84C1-49B7BD56B269";
paths = (
{
closed = 1;
nodes = (
"297 0 LINE",
"297 472 LINE",
"76 472 LINE",
"56 411 LINE",
"77 331 LINE",
"77 0 LINE"
);
},
{
closed = 1;
nodes = (
"336 629 LINE",
"188 756 LINE",
"40 629 LINE",
"188 501 LINE"
);
}
);
width = 365;
},
{
anchors = (
{
name = bottom;
position = "{107, 0}";
}
);
layerId = "CA5CD7F6-F0E6-40F5-9716-481B35A0BC32";
paths = (
{
closed = 1;
nodes = (
"216 0 LINE",
"216 472 LINE",
"76 472 LINE",
"56 411 LINE",
"77 331 LINE",
"77 0 LINE"
);
},
{
closed = 1;
nodes = (
"253 629 LINE",
"147 736 LINE",
"40 629 LINE",
"147 522 LINE"
);
}
);
width = 283;
}
);
leftMetricsKey = n;
unicode = 0069;
},
{
color = 1;
glyphname = idotless;
layers = (
{
anchors = (
{
name = bottom;
position = "{149, 0}";
},
{
name = ogonek;
position = "{187, 10}";
},
{
name = top;
position = "{155, 478}";
}
);
layerId = "083550D2-F2E8-44E3-BE3D-E8BDF41EDFC4";
paths = (
{
closed = 1;
nodes = (
"241 0 LINE",
"241 472 LINE",
"60 472 LINE",
"40 411 LINE",
"61 331 LINE",
"61 0 LINE"
);
}
);
width = 271;
},
{
anchors = (
{
name = bottom;
position = "{169, 0}";
},
{
name = ogonek;
position = "{233, 10}";
},
{
name = top;
position = "{169, 468}";
}
);
layerId = "1A280FA7-9E72-4FC3-84C1-49B7BD56B269";
paths = (
{
closed = 1;
nodes = (
"281 0 LINE",
"281 472 LINE",
"60 472 LINE",
"40 411 LINE",
"61 331 LINE",
"61 0 LINE"
);
}
);
width = 311;
},
{
associatedMasterId = "083550D2-F2E8-44E3-BE3D-E8BDF41EDFC4";
layerId = "0AAF2CB4-2EBD-42C4-BAB4-4CEC92C737FB";
width = 600;
},
{
anchors = (
{
name = bottom;
position = "{55, 0}";
},
{
name = ogonek;
position = "{112, 10}";
},
{
name = top;
position = "{125, 468}";
}
);
layerId = "CA5CD7F6-F0E6-40F5-9716-481B35A0BC32";
paths = (
{
closed = 1;
nodes = (
"200 0 LINE",
"200 472 LINE",
"60 472 LINE",
"40 411 LINE",
"61 331 LINE",
"61 0 LINE"
);
}
);
width = 230;
},
{
associatedMasterId = "CA5CD7F6-F0E6-40F5-9716-481B35A0BC32";
layerId = "6049CB65-5985-4A62-816F-7B890CDB5E0C";
width = 600;
}
);
leftMetricsKey = i;
rightMetricsKey = i;
unicode = 0131;
},
{
color = 1;
glyphname = j;
layers = (
{
layerId = "083550D2-F2E8-44E3-BE3D-E8BDF41EDFC4";
paths = (
{
closed = 1;
nodes = (
"240 -243 OFFCURVE",
"320 -182 OFFCURVE",
"320 -42 CURVE SMOOTH",
"320 473 LINE",
"140 473 LINE",
"120 423 LINE",
"141 333 LINE",
"141 1 LINE",
"148 -50 OFFCURVE",
"154 -100 OFFCURVE",
"108 -100 CURVE",
"-20 -56 LINE",
"-70 -175 LINE",
"18 -234 LINE",
"42 -240 OFFCURVE",
"75 -243 OFFCURVE",
"99 -243 CURVE SMOOTH"
);
},
{
closed = 1;
nodes = (
"357 630 LINE",
"230 757 LINE",
"103 630 LINE",
"230 502 LINE"
);
}
);
width = 387;
},
{
layerId = "1A280FA7-9E72-4FC3-84C1-49B7BD56B269";
paths = (
{
closed = 1;
nodes = (
"261 -243 OFFCURVE",
"361 -182 OFFCURVE",
"361 -42 CURVE SMOOTH",
"361 473 LINE",
"139 473 LINE",
"119 423 LINE",
"140 333 LINE",
"140 1 LINE",
"147 -50 OFFCURVE",
"140 -70 OFFCURVE",
"107 -70 CURVE",
"-20 -26 LINE",
"-70 -175 LINE",
"18 -234 LINE",
"42 -240 OFFCURVE",
"96 -243 OFFCURVE",
"120 -243 CURVE SMOOTH"
);
},
{
closed = 1;
nodes = (
"398 630 LINE",
"250 757 LINE",
"102 630 LINE",
"250 502 LINE"
);
}
);
width = 428;
},
{
layerId = "CA5CD7F6-F0E6-40F5-9716-481B35A0BC32";
paths = (
{
closed = 1;
nodes = (
"240 -243 OFFCURVE",
"278 -182 OFFCURVE",
"278 -42 CURVE SMOOTH",
"278 473 LINE",
"140 473 LINE",
"120 423 LINE",
"141 333 LINE",
"141 -29 LINE",
"148 -80 OFFCURVE",
"154 -130 OFFCURVE",
"108 -130 CURVE",
"-30 -86 LINE",
"-70 -175 LINE",
"18 -234 LINE",
"42 -240 OFFCURVE",
"75 -243 OFFCURVE",
"99 -243 CURVE SMOOTH"
);
},
{
closed = 1;
nodes = (
"315 630 LINE",
"208 737 LINE",
"101 630 LINE",
"208 523 LINE"
);
}
);
width = 345;
}
);
rightMetricsKey = i;
unicode = 006A;
},
{
color = 1;
glyphname = jdotless;
layers = (
{
anchors = (
{
name = bottom;
position = "{136, 0}";
},
{
name = top;
position = "{227, 468}";
}
);
layerId = "083550D2-F2E8-44E3-BE3D-E8BDF41EDFC4";
paths = (
{
closed = 1;
nodes = (
"240 -243 OFFCURVE",
"320 -182 OFFCURVE",
"320 -42 CURVE SMOOTH",
"320 473 LINE",
"140 473 LINE",
"120 423 LINE",
"141 333 LINE",
"141 1 LINE",
"148 -50 OFFCURVE",
"154 -100 OFFCURVE",
"108 -100 CURVE",
"-20 -56 LINE",
"-70 -175 LINE",
"18 -234 LINE",
"42 -240 OFFCURVE",
"75 -243 OFFCURVE",
"99 -243 CURVE SMOOTH"
);
}
);
width = 350;
},
{
anchors = (
{
name = bottom;
position = "{86, 0}";
},
{
name = top;
position = "{246, 468}";
}
);
layerId = "1A280FA7-9E72-4FC3-84C1-49B7BD56B269";
paths = (
{
closed = 1;
nodes = (
"261 -243 OFFCURVE",
"361 -182 OFFCURVE",
"361 -42 CURVE SMOOTH",
"361 473 LINE",
"139 473 LINE",
"119 423 LINE",
"140 333 LINE",
"140 1 LINE",
"147 -50 OFFCURVE",
"140 -70 OFFCURVE",
"107 -70 CURVE",
"-20 -26 LINE",
"-70 -175 LINE",
"18 -234 LINE",
"42 -240 OFFCURVE",
"96 -243 OFFCURVE",
"120 -243 CURVE SMOOTH"
);
}
);
width = 391;
},
{
anchors = (
{
name = bottom;
position = "{116, 0}";
},
{
name = top;
position = "{126, 468}";
}
);
layerId = "CA5CD7F6-F0E6-40F5-9716-481B35A0BC32";
paths = (
{
closed = 1;
nodes = (
"240 -243 OFFCURVE",
"278 -182 OFFCURVE",
"278 -42 CURVE SMOOTH",
"278 473 LINE",
"140 473 LINE",
"120 423 LINE",
"141 333 LINE",
"141 -29 LINE",
"148 -80 OFFCURVE",
"154 -130 OFFCURVE",
"108 -130 CURVE",
"-30 -86 LINE",
"-70 -175 LINE",
"18 -234 LINE",
"42 -240 OFFCURVE",
"75 -243 OFFCURVE",
"99 -243 CURVE SMOOTH"
);
}
);
width = 308;
}
);
leftMetricsKey = j;
rightMetricsKey = j;
unicode = 0237;
},
{
color = 1;
glyphname = k;
layers = (
{
anchors = (
{
name = bottom;
position = "{293, 0}";
},
{
name = top;
position = "{283, 468}";
}
);
layerId = "083550D2-F2E8-44E3-BE3D-E8BDF41EDFC4";
paths = (
{
closed = 1;
nodes = (
"241 0 LINE",
"241 155 LINE",
"301 165 LINE",
"414 0 LINE",
"608 0 LINE",
"608 59 LINE",
"514 160 LINE",
"440 250 LINE",
"551 412 LINE",
"551 472 LINE",
"347 472 LINE",
"270 289 LINE",
"230 289 LINE",
"241 548 LINE",
"241 708 LINE",
"61 708 LINE",
"40 648 LINE",
"61 548 LINE",
"61 0 LINE"
);
}
);
width = 618;
},
{
anchors = (
{
name = bottom;
position = "{293, 0}";
},
{
name = top;
position = "{263, 468}";
}
);
layerId = "1A280FA7-9E72-4FC3-84C1-49B7BD56B269";
paths = (
{
closed = 1;
nodes = (
"283 0 LINE",
"283 155 LINE",
"321 165 LINE",
"414 0 LINE",
"648 0 LINE",
"648 59 LINE",
"554 160 LINE",
"480 260 LINE",
"591 412 LINE",
"591 472 LINE",
"347 472 LINE",
"291 289 LINE",
"272 289 LINE",
"283 548 LINE",
"283 708 LINE",
"61 708 LINE",
"40 648 LINE",
"61 548 LINE",
"61 0 LINE"
);
}
);
width = 658;
},
{
associatedMasterId = "083550D2-F2E8-44E3-BE3D-E8BDF41EDFC4";
layerId = "0AAF2CB4-2EBD-42C4-BAB4-4CEC92C737FB";
width = 600;
},
{
anchors = (
{
name = bottom;
position = "{253, 0}";
},
{
name = top;
position = "{233, 468}";
}
);
layerId = "CA5CD7F6-F0E6-40F5-9716-481B35A0BC32";
paths = (
{
closed = 1;
nodes = (
"201 0 LINE",
"201 175 LINE",
"282 185 LINE",
"395 0 LINE",
"548 0 LINE",
"548 59 LINE",
"454 160 LINE",
"380 250 LINE",
"491 412 LINE",
"491 472 LINE",
"328 472 LINE",
"251 279 LINE",
"190 279 LINE",
"201 548 LINE",
"201 708 LINE",
"61 708 LINE",
"40 648 LINE",
"61 548 LINE",
"61 0 LINE"
);
}
);
width = 558;
},
{
associatedMasterId = "CA5CD7F6-F0E6-40F5-9716-481B35A0BC32";
layerId = "59A0F7F5-84ED-4FEA-B653-20FBFCEEBA9F";
width = 600;
}
);
leftMetricsKey = n;
unicode = 006B;
},
{
color = 1;
glyphname = kgreenlandic;
layers = (
{
layerId = "083550D2-F2E8-44E3-BE3D-E8BDF41EDFC4";
paths = (
{
closed = 1;
nodes = (
"241 0 LINE",
"241 155 LINE",
"301 165 LINE",
"414 0 LINE",
"608 0 LINE",
"608 59 LINE",
"514 160 LINE",
"440 250 LINE",
"551 412 LINE",
"551 472 LINE",
"347 472 LINE",
"270 289 LINE",
"230 289 LINE",
"241 411 LINE",
"241 471 LINE",
"61 471 LINE",
"40 411 LINE",
"61 311 LINE",
"61 0 LINE"
);
}
);
width = 618;
},
{
layerId = "1A280FA7-9E72-4FC3-84C1-49B7BD56B269";
paths = (
{
closed = 1;
nodes = (
"283 0 LINE",
"283 155 LINE",
"321 165 LINE",
"414 0 LINE",
"648 0 LINE",
"648 59 LINE",
"554 160 LINE",
"480 260 LINE",
"591 412 LINE",
"591 472 LINE",
"347 472 LINE",
"291 289 LINE",
"272 289 LINE",
"283 408 LINE",
"283 471 LINE",
"61 471 LINE",
"40 411 LINE",
"61 311 LINE",
"61 0 LINE"
);
}
);
width = 658;
},
{
layerId = "CA5CD7F6-F0E6-40F5-9716-481B35A0BC32";
paths = (
{
closed = 1;
nodes = (
"201 0 LINE",
"201 175 LINE",
"282 185 LINE",
"395 0 LINE",
"548 0 LINE",
"548 59 LINE",
"454 160 LINE",
"380 250 LINE",
"491 412 LINE",
"491 472 LINE",
"328 472 LINE",
"251 279 LINE",
"190 279 LINE",
"201 401 LINE",
"201 471 LINE",
"61 471 LINE",
"40 411 LINE",
"61 311 LINE",
"61 0 LINE"
);
}
);
width = 558;
}
);
leftMetricsKey = k;
rightMetricsKey = k;
unicode = 0138;
},
{
color = 1;
glyphname = l;
layers = (
{
anchors = (
{
name = bottom;
position = "{131, 0}";
},
{
name = center;
position = "{151, 364}";
},
{
name = top;
position = "{151, 708}";
},
{
name = topright;
position = "{222, 468}";
}
);
layerId = "083550D2-F2E8-44E3-BE3D-E8BDF41EDFC4";
paths = (
{
closed = 1;
nodes = (
"241 0 LINE",
"241 708 LINE",
"61 708 LINE",
"40 648 LINE",
"60 548 LINE",
"61 0 LINE"
);
}
);
width = 301;
},
{
anchors = (
{
name = bottom;
position = "{187, 0}";
},
{
name = center;
position = "{167, 364}";
},
{
name = top;
position = "{167, 708}";
},
{
name = topright;
position = "{198, 468}";
}
);
layerId = "1A280FA7-9E72-4FC3-84C1-49B7BD56B269";
paths = (
{
closed = 1;
nodes = (
"281 0 LINE",
"281 708 LINE",
"61 708 LINE",
"40 648 LINE",
"61 548 LINE",
"61 0 LINE"
);
}
);
width = 341;
},
{
associatedMasterId = "083550D2-F2E8-44E3-BE3D-E8BDF41EDFC4";
layerId = "0AAF2CB4-2EBD-42C4-BAB4-4CEC92C737FB";
width = 600;
},
{
anchors = (
{
name = bottom;
position = "{87, 0}";
},
{
name = center;
position = "{126, 365}";
},
{
name = top;
position = "{127, 708}";
},
{
name = topright;
position = "{198, 468}";
}
);
layerId = "CA5CD7F6-F0E6-40F5-9716-481B35A0BC32";
paths = (
{
closed = 1;
nodes = (
"201 0 LINE",
"201 708 LINE",
"61 708 LINE",
"40 648 LINE",
"61 548 LINE",
"61 0 LINE"
);
}
);
width = 261;
},
{
associatedMasterId = "CA5CD7F6-F0E6-40F5-9716-481B35A0BC32";
layerId = "1D3E9B48-D6FA-4791-BE16-0E894ABAA3D3";
width = 600;
}
);
leftMetricsKey = n;
unicode = 006C;
},
{
color = 1;
glyphname = m;
layers = (
{
layerId = "083550D2-F2E8-44E3-BE3D-E8BDF41EDFC4";
paths = (
{
closed = 1;
nodes = (
"240 0 LINE",
"240 322 LINE",
"302 341 LINE",
"348 341 OFFCURVE",
"370 312 OFFCURVE",
"370 262 CURVE SMOOTH",
"370 0 LINE",
"550 0 LINE",
"551 61 LINE",
"550 161 LINE",
"550 288 LINE SMOOTH",
"550 410 OFFCURVE",
"490 482 OFFCURVE",
"370 482 CURVE SMOOTH",
"299 482 OFFCURVE",
"250 442 OFFCURVE",
"229 423 CURVE",
"220 429 LINE",
"220 472 LINE",
"71 472 LINE",
"40 411 LINE",
"60 301 LINE",
"60 0 LINE"
);
},
{
closed = 1;
nodes = (
"855 0 LINE",
"876 61 LINE",
"855 161 LINE",
"855 289 LINE SMOOTH",
"855 411 OFFCURVE",
"795 483 OFFCURVE",
"675 483 CURVE SMOOTH",
"523 483 OFFCURVE",
"498 371 OFFCURVE",
"494 360 CURVE",
"550 282 LINE",
"550 317 OFFCURVE",
"576 342 OFFCURVE",
"607 342 CURVE SMOOTH",
"653 342 OFFCURVE",
"675 313 OFFCURVE",
"675 263 CURVE SMOOTH",
"675 0 LINE"
);
}
);
width = 916;
},
{
layerId = "1A280FA7-9E72-4FC3-84C1-49B7BD56B269";
paths = (
{
closed = 1;
nodes = (
"280 0 LINE",
"280 302 LINE",
"290 312 LINE",
"333 312 OFFCURVE",
"349 293 OFFCURVE",
"349 253 CURVE SMOOTH",
"349 0 LINE",
"570 0 LINE",
"570 288 LINE SMOOTH",
"570 410 OFFCURVE",
"519 482 OFFCURVE",
"410 482 CURVE SMOOTH",
"339 482 OFFCURVE",
"290 442 OFFCURVE",
"269 423 CURVE",
"260 429 LINE",
"260 472 LINE",
"71 472 LINE",
"40 411 LINE",
"60 301 LINE",
"60 0 LINE"
);
},
{
closed = 1;
nodes = (
"865 0 LINE",
"886 61 LINE",
"865 161 LINE",
"865 289 LINE SMOOTH",
"865 411 OFFCURVE",
"795 483 OFFCURVE",
"675 483 CURVE SMOOTH",
"524 483 OFFCURVE",
"488 330 OFFCURVE",
"484 319 CURVE",
"570 251 LINE",
"570 286 OFFCURVE",
"581 311 OFFCURVE",
"607 311 CURVE SMOOTH",
"633 311 OFFCURVE",
"644 294 OFFCURVE",
"644 252 CURVE SMOOTH",
"644 0 LINE"
);
}
);
width = 926;
},
{
associatedMasterId = "083550D2-F2E8-44E3-BE3D-E8BDF41EDFC4";
layerId = "0AAF2CB4-2EBD-42C4-BAB4-4CEC92C737FB";
width = 600;
},
{
layerId = "CA5CD7F6-F0E6-40F5-9716-481B35A0BC32";
paths = (
{
closed = 1;
nodes = (
"200 0 LINE",
"200 352 LINE",
"302 371 LINE",
"348 371 OFFCURVE",
"370 342 OFFCURVE",
"370 292 CURVE SMOOTH",
"370 0 LINE",
"510 0 LINE",
"510 288 LINE SMOOTH",
"510 410 OFFCURVE",
"450 482 OFFCURVE",
"330 482 CURVE SMOOTH",
"259 482 OFFCURVE",
"210 442 OFFCURVE",
"189 423 CURVE",
"180 429 LINE",
"180 472 LINE",
"71 472 LINE",
"40 411 LINE",
"60 301 LINE",
"60 0 LINE"
);
},
{
closed = 1;
nodes = (
"814 0 LINE",
"835 61 LINE",
"814 161 LINE",
"814 289 LINE SMOOTH",
"814 411 OFFCURVE",
"754 483 OFFCURVE",
"634 483 CURVE SMOOTH",
"483 483 OFFCURVE",
"458 371 OFFCURVE",
"454 360 CURVE",
"510 292 LINE",
"510 340 OFFCURVE",
"544 372 OFFCURVE",
"596 372 CURVE SMOOTH",
"647 372 OFFCURVE",
"675 343 OFFCURVE",
"675 293 CURVE SMOOTH",
"675 0 LINE"
);
}
);
width = 875;
},
{
associatedMasterId = "CA5CD7F6-F0E6-40F5-9716-481B35A0BC32";
layerId = "AA49BA8A-CFB6-403A-A391-5D77F108A598";
width = 600;
}
);
leftMetricsKey = n;
rightMetricsKey = n;
unicode = 006D;
},
{
color = 1;
glyphname = n;
layers = (
{
anchors = (
{
name = bottom;
position = "{318, 0}";
},
{
name = top;
position = "{318, 468}";
}
);
layerId = "083550D2-F2E8-44E3-BE3D-E8BDF41EDFC4";
paths = (
{
closed = 1;
nodes = (
"240 0 LINE",
"240 322 LINE",
"302 341 LINE",
"348 341 OFFCURVE",
"370 312 OFFCURVE",
"370 262 CURVE SMOOTH",
"370 0 LINE",
"550 0 LINE",
"571 61 LINE",
"550 161 LINE",
"550 288 LINE SMOOTH",
"550 410 OFFCURVE",
"490 482 OFFCURVE",
"370 482 CURVE SMOOTH",
"299 482 OFFCURVE",
"250 442 OFFCURVE",
"229 423 CURVE",
"220 429 LINE",
"220 472 LINE",
"71 472 LINE",
"40 411 LINE",
"60 301 LINE",
"60 0 LINE"
);
}
);
width = 611;
},
{
anchors = (
{
name = bottom;
position = "{288, 0}";
},
{
name = top;
position = "{298, 468}";
}
);
layerId = "1A280FA7-9E72-4FC3-84C1-49B7BD56B269";
paths = (
{
closed = 1;
nodes = (
"280 0 LINE",
"280 302 LINE",
"290 312 LINE",
"333 312 OFFCURVE",
"349 293 OFFCURVE",
"349 253 CURVE SMOOTH",
"349 0 LINE",
"570 0 LINE",
"570 288 LINE SMOOTH",
"570 410 OFFCURVE",
"519 482 OFFCURVE",
"410 482 CURVE SMOOTH",
"339 482 OFFCURVE",
"290 442 OFFCURVE",
"269 423 CURVE",
"260 429 LINE",
"260 472 LINE",
"71 472 LINE",
"40 411 LINE",
"60 301 LINE",
"60 0 LINE"
);
}
);
width = 610;
},
{
associatedMasterId = "083550D2-F2E8-44E3-BE3D-E8BDF41EDFC4";
layerId = "0AAF2CB4-2EBD-42C4-BAB4-4CEC92C737FB";
width = 600;
},
{
anchors = (
{
name = bottom;
position = "{292, 0}";
},
{
name = top;
position = "{292, 468}";
}
);
layerId = "CA5CD7F6-F0E6-40F5-9716-481B35A0BC32";
paths = (
{
closed = 1;
nodes = (
"200 0 LINE",
"200 352 LINE",
"302 371 LINE",
"348 371 OFFCURVE",
"370 342 OFFCURVE",
"370 292 CURVE SMOOTH",
"370 0 LINE",
"510 0 LINE",
"531 61 LINE",
"510 161 LINE",
"510 288 LINE SMOOTH",
"510 410 OFFCURVE",
"450 482 OFFCURVE",
"330 482 CURVE SMOOTH",
"259 482 OFFCURVE",
"210 442 OFFCURVE",
"189 423 CURVE",
"180 429 LINE",
"180 472 LINE",
"71 472 LINE",
"40 411 LINE",
"60 301 LINE",
"60 0 LINE"
);
}
);
width = 571;
},
{
associatedMasterId = "CA5CD7F6-F0E6-40F5-9716-481B35A0BC32";
layerId = "3BB848BD-AE25-42C8-8590-3368FA6CB332";
width = 600;
}
);
unicode = 006E;
},
{
color = 1;
glyphname = eng;
layers = (
{
layerId = "083550D2-F2E8-44E3-BE3D-E8BDF41EDFC4";
paths = (
{
closed = 1;
nodes = (
"240 0 LINE",
"240 322 LINE",
"302 341 LINE",
"348 341 OFFCURVE",
"370 312 OFFCURVE",
"370 262 CURVE SMOOTH",
"370 0 LINE",
"550 0 LINE",
"550 288 LINE SMOOTH",
"550 410 OFFCURVE",
"490 482 OFFCURVE",
"370 482 CURVE SMOOTH",
"299 482 OFFCURVE",
"250 442 OFFCURVE",
"229 423 CURVE",
"220 429 LINE",
"220 472 LINE",
"71 472 LINE",
"40 411 LINE",
"60 301 LINE",
"60 0 LINE"
);
},
{
closed = 1;
nodes = (
"448 -244 OFFCURVE",
"550 -185 OFFCURVE",
"550 -53 CURVE SMOOTH",
"550 82 LINE",
"370 82 LINE",
"370 -20 LINE SMOOTH",
"370 -66 OFFCURVE",
"362 -81 OFFCURVE",
"328 -81 CURVE",
"240 -57 LINE",
"200 -206 LINE",
"329 -244 LINE"
);
}
);
width = 590;
},
{
layerId = "1A280FA7-9E72-4FC3-84C1-49B7BD56B269";
paths = (
{
closed = 1;
nodes = (
"280 0 LINE",
"280 290 LINE",
"302 309 LINE",
"335 309 OFFCURVE",
"349 296 OFFCURVE",
"349 262 CURVE SMOOTH",
"349 0 LINE",
"570 0 LINE",
"570 288 LINE SMOOTH",
"570 410 OFFCURVE",
"519 482 OFFCURVE",
"410 482 CURVE SMOOTH",
"339 482 OFFCURVE",
"290 442 OFFCURVE",
"269 423 CURVE",
"260 429 LINE",
"260 472 LINE",
"71 472 LINE",
"40 411 LINE",
"60 301 LINE",
"60 0 LINE"
);
},
{
closed = 1;
nodes = (
"481 -244 OFFCURVE",
"570 -172 OFFCURVE",
"570 -13 CURVE SMOOTH",
"570 82 LINE",
"349 82 LINE",
"349 10 LINE SMOOTH",
"349 -28 OFFCURVE",
"338 -49 OFFCURVE",
"308 -49 CURVE",
"220 -36 LINE",
"180 -206 LINE",
"349 -244 LINE"
);
}
);
width = 610;
},
{
layerId = "CA5CD7F6-F0E6-40F5-9716-481B35A0BC32";
paths = (
{
closed = 1;
nodes = (
"200 1 LINE",
"200 353 LINE",
"302 372 LINE",
"348 372 OFFCURVE",
"370 343 OFFCURVE",
"370 293 CURVE SMOOTH",
"370 1 LINE",
"510 1 LINE",
"510 289 LINE SMOOTH",
"510 411 OFFCURVE",
"450 483 OFFCURVE",
"330 483 CURVE SMOOTH",
"259 483 OFFCURVE",
"210 443 OFFCURVE",
"189 424 CURVE",
"180 430 LINE",
"180 473 LINE",
"71 473 LINE",
"40 412 LINE",
"60 302 LINE",
"60 1 LINE"
);
},
{
closed = 1;
nodes = (
"448 -243 OFFCURVE",
"510 -184 OFFCURVE",
"510 -52 CURVE SMOOTH",
"510 83 LINE",
"370 83 LINE",
"370 -50 LINE SMOOTH",
"370 -97 OFFCURVE",
"362 -111 OFFCURVE",
"328 -111 CURVE",
"240 -87 LINE",
"200 -205 LINE",
"329 -243 LINE"
);
}
);
width = 550;
}
);
leftMetricsKey = n;
rightMetricsKey = n;
unicode = 014B;
},
{
color = 1;
glyphname = nhookleft;
layers = (
{
layerId = "083550D2-F2E8-44E3-BE3D-E8BDF41EDFC4";
paths = (
{
closed = 1;
nodes = (
"280 0 LINE",
"280 322 LINE",
"342 341 LINE",
"388 341 OFFCURVE",
"410 312 OFFCURVE",
"410 262 CURVE SMOOTH",
"410 0 LINE",
"590 0 LINE",
"611 61 LINE",
"590 161 LINE",
"590 288 LINE SMOOTH",
"590 410 OFFCURVE",
"530 482 OFFCURVE",
"410 482 CURVE SMOOTH",
"339 482 OFFCURVE",
"290 442 OFFCURVE",
"269 423 CURVE",
"260 429 LINE",
"260 472 LINE",
"111 472 LINE",
"80 411 LINE",
"100 301 LINE",
"100 0 LINE"
);
},
{
closed = 1;
nodes = (
"178 -244 OFFCURVE",
"280 -185 OFFCURVE",
"280 -53 CURVE SMOOTH",
"280 82 LINE",
"100 82 LINE",
"100 -20 LINE SMOOTH",
"100 -66 OFFCURVE",
"92 -81 OFFCURVE",
"58 -81 CURVE",
"-30 -57 LINE",
"-70 -206 LINE",
"59 -244 LINE"
);
}
);
width = 651;
},
{
layerId = "1A280FA7-9E72-4FC3-84C1-49B7BD56B269";
paths = (
{
closed = 1;
nodes = (
"320 0 LINE",
"320 290 LINE",
"342 309 LINE",
"375 309 OFFCURVE",
"389 296 OFFCURVE",
"389 262 CURVE SMOOTH",
"389 0 LINE",
"610 0 LINE",
"631 61 LINE",
"610 161 LINE",
"610 288 LINE SMOOTH",
"610 410 OFFCURVE",
"559 482 OFFCURVE",
"450 482 CURVE SMOOTH",
"379 482 OFFCURVE",
"330 442 OFFCURVE",
"309 423 CURVE",
"300 429 LINE",
"300 472 LINE",
"111 472 LINE",
"80 411 LINE",
"100 301 LINE",
"100 0 LINE"
);
},
{
closed = 1;
nodes = (
"227 -244 OFFCURVE",
"320 -181 OFFCURVE",
"320 -33 CURVE SMOOTH",
"320 82 LINE",
"100 82 LINE",
"100 12 LINE SMOOTH",
"100 -35 OFFCURVE",
"92 -49 OFFCURVE",
"58 -49 CURVE",
"-30 -25 LINE",
"-70 -206 LINE",
"100 -244 LINE"
);
}
);
width = 671;
},
{
layerId = "CA5CD7F6-F0E6-40F5-9716-481B35A0BC32";
paths = (
{
closed = 1;
nodes = (
"240 1 LINE",
"240 353 LINE",
"342 372 LINE",
"388 372 OFFCURVE",
"410 343 OFFCURVE",
"410 293 CURVE SMOOTH",
"410 1 LINE",
"550 1 LINE",
"571 62 LINE",
"550 162 LINE",
"550 289 LINE SMOOTH",
"550 411 OFFCURVE",
"490 483 OFFCURVE",
"370 483 CURVE SMOOTH",
"299 483 OFFCURVE",
"250 443 OFFCURVE",
"229 424 CURVE",
"220 430 LINE",
"220 473 LINE",
"111 473 LINE",
"80 412 LINE",
"100 302 LINE",
"100 1 LINE"
);
},
{
closed = 1;
nodes = (
"178 -243 OFFCURVE",
"240 -184 OFFCURVE",
"240 -52 CURVE SMOOTH",
"240 83 LINE",
"100 83 LINE",
"100 -50 LINE SMOOTH",
"100 -97 OFFCURVE",
"92 -111 OFFCURVE",
"58 -111 CURVE",
"-30 -87 LINE",
"-70 -205 LINE",
"59 -243 LINE"
);
}
);
width = 611;
}
);
leftMetricsKey = j;
rightMetricsKey = n;
unicode = 0272;
},
{
color = 1;
glyphname = o;
layers = (
{
anchors = (
{
name = bottom;
position = "{287, -10}";
},
{
name = center;
position = "{286, 236}";
},
{
name = ogonek;
position = "{383, 10}";
},
{
name = top;
position = "{288, 481}";
},
{
name = topright;
position = "{566, 398}";
}
);
layerId = "083550D2-F2E8-44E3-BE3D-E8BDF41EDFC4";
paths = (
{
closed = 1;
nodes = (
"453 -10 OFFCURVE",
"540 62 OFFCURVE",
"540 236 CURVE SMOOTH",
"540 410 OFFCURVE",
"453 482 OFFCURVE",
"286 482 CURVE SMOOTH",
"123 482 OFFCURVE",
"30 410 OFFCURVE",
"30 236 CURVE SMOOTH",
"30 62 OFFCURVE",
"123 -10 OFFCURVE",
"286 -10 CURVE SMOOTH"
);
},
{
closed = 1;
nodes = (
"230 120 OFFCURVE",
"211 162 OFFCURVE",
"211 236 CURVE SMOOTH",
"211 310 OFFCURVE",
"230 352 OFFCURVE",
"286 352 CURVE SMOOTH",
"340 352 OFFCURVE",
"359 310 OFFCURVE",
"359 236 CURVE SMOOTH",
"359 162 OFFCURVE",
"340 120 OFFCURVE",
"286 120 CURVE SMOOTH"
);
}
);
width = 570;
},
{
anchors = (
{
name = bottom;
position = "{298, -10}";
},
{
name = center;
position = "{288, 234}";
},
{
name = ogonek;
position = "{373, 10}";
},
{
name = top;
position = "{296, 480}";
},
{
name = topright;
position = "{566, 378}";
}
);
layerId = "1A280FA7-9E72-4FC3-84C1-49B7BD56B269";
paths = (
{
closed = 1;
nodes = (
"464 -10 OFFCURVE",
"560 62 OFFCURVE",
"560 236 CURVE SMOOTH",
"560 410 OFFCURVE",
"464 482 OFFCURVE",
"296 482 CURVE SMOOTH",
"133 482 OFFCURVE",
"30 410 OFFCURVE",
"30 236 CURVE SMOOTH",
"30 62 OFFCURVE",
"133 -10 OFFCURVE",
"296 -10 CURVE SMOOTH"
);
},
{
closed = 1;
nodes = (
"271 150 OFFCURVE",
"251 162 OFFCURVE",
"251 236 CURVE SMOOTH",
"251 310 OFFCURVE",
"270 322 OFFCURVE",
"296 322 CURVE SMOOTH",
"322 322 OFFCURVE",
"339 310 OFFCURVE",
"339 236 CURVE SMOOTH",
"339 162 OFFCURVE",
"321 150 OFFCURVE",
"296 150 CURVE SMOOTH"
);
}
);
width = 590;
},
{
associatedMasterId = "083550D2-F2E8-44E3-BE3D-E8BDF41EDFC4";
layerId = "0AAF2CB4-2EBD-42C4-BAB4-4CEC92C737FB";
width = 600;
},
{
anchors = (
{
name = bottom;
position = "{267, -10}";
},
{
name = center;
position = "{248, 236}";
},
{
name = ogonek;
position = "{373, 20}";
},
{
name = top;
position = "{266, 478}";
},
{
name = topright;
position = "{486, 378}";
}
);
layerId = "CA5CD7F6-F0E6-40F5-9716-481B35A0BC32";
paths = (
{
closed = 1;
nodes = (
"434 -10 OFFCURVE",
"501 78 OFFCURVE",
"501 236 CURVE SMOOTH",
"501 394 OFFCURVE",
"434 482 OFFCURVE",
"266 482 CURVE SMOOTH",
"103 482 OFFCURVE",
"30 394 OFFCURVE",
"30 236 CURVE SMOOTH",
"30 78 OFFCURVE",
"103 -10 OFFCURVE",
"266 -10 CURVE SMOOTH"
);
},
{
closed = 1;
nodes = (
"211 90 OFFCURVE",
"171 127 OFFCURVE",
"171 236 CURVE SMOOTH",
"171 345 OFFCURVE",
"210 382 OFFCURVE",
"266 382 CURVE SMOOTH",
"321 382 OFFCURVE",
"360 345 OFFCURVE",
"360 236 CURVE SMOOTH",
"360 127 OFFCURVE",
"320 90 OFFCURVE",
"266 90 CURVE SMOOTH"
);
}
);
width = 531;
},
{
associatedMasterId = "CA5CD7F6-F0E6-40F5-9716-481B35A0BC32";
layerId = "162CFB55-A7FE-4FDF-9D42-BABD7001CBC1";
width = 600;
}
);
unicode = 006F;
},
{
color = 1;
glyphname = oe;
layers = (
{
components = (
{
name = e;
transform = "{1, 0, 0, 1, 329, 0}";
}
);
layerId = "083550D2-F2E8-44E3-BE3D-E8BDF41EDFC4";
paths = (
{
closed = 1;
nodes = (
"424 -10 OFFCURVE",
"509 83 OFFCURVE",
"509 236 CURVE SMOOTH",
"509 384 OFFCURVE",
"426 482 OFFCURVE",
"275 482 CURVE SMOOTH",
"126 482 OFFCURVE",
"30 410 OFFCURVE",
"30 236 CURVE SMOOTH",
"30 62 OFFCURVE",
"126 -10 OFFCURVE",
"275 -10 CURVE SMOOTH"
);
},
{
closed = 1;
nodes = (
"230 120 OFFCURVE",
"211 162 OFFCURVE",
"211 236 CURVE SMOOTH",
"211 310 OFFCURVE",
"229 352 OFFCURVE",
"285 352 CURVE SMOOTH",
"340 352 OFFCURVE",
"359 310 OFFCURVE",
"359 236 CURVE SMOOTH",
"359 162 OFFCURVE",
"339 120 OFFCURVE",
"285 120 CURVE SMOOTH"
);
}
);
width = 908;
},
{
components = (
{
alignment = -1;
name = o;
},
{
name = e;
transform = "{1, 0, 0, 1, 315, 0}";
}
);
layerId = "1A280FA7-9E72-4FC3-84C1-49B7BD56B269";
width = 914;
},
{
associatedMasterId = "083550D2-F2E8-44E3-BE3D-E8BDF41EDFC4";
layerId = "0AAF2CB4-2EBD-42C4-BAB4-4CEC92C737FB";
width = 600;
},
{
components = (
{
alignment = -1;
name = o;
},
{
name = e;
transform = "{1, 0, 0, 1, 330, 0}";
}
);
layerId = "CA5CD7F6-F0E6-40F5-9716-481B35A0BC32";
width = 839;
},
{
associatedMasterId = "CA5CD7F6-F0E6-40F5-9716-481B35A0BC32";
layerId = "AF430EBF-8CD9-4301-97BF-82D9E5C65980";
width = 600;
}
);
leftMetricsKey = o;
rightMetricsKey = e;
unicode = 0153;
},
{
color = 1;
glyphname = p;
layers = (
{
layerId = "083550D2-F2E8-44E3-BE3D-E8BDF41EDFC4";
paths = (
{
closed = 1;
nodes = (
"240 -243 LINE",
"240 15 LINE",
"240 15 OFFCURVE",
"275 -8 OFFCURVE",
"371 -8 CURVE SMOOTH",
"476 -8 OFFCURVE",
"561 62 OFFCURVE",
"561 247 CURVE SMOOTH",
"561 411 OFFCURVE",
"489 484 OFFCURVE",
"371 484 CURVE SMOOTH",
"287 484 OFFCURVE",
"230 425 OFFCURVE",
"230 425 CURVE",
"220 430 LINE",
"220 473 LINE",
"71 473 LINE",
"40 412 LINE",
"60 302 LINE",
"60 -243 LINE"
);
},
{
closed = 1;
nodes = (
"253 129 OFFCURVE",
"240 142 OFFCURVE",
"240 142 CURVE",
"240 321 LINE",
"296 342 LINE",
"345 342 OFFCURVE",
"371 310 OFFCURVE",
"371 238 CURVE SMOOTH",
"371 164 OFFCURVE",
"337 129 OFFCURVE",
"286 129 CURVE SMOOTH"
);
}
);
width = 591;
},
{
layerId = "1A280FA7-9E72-4FC3-84C1-49B7BD56B269";
paths = (
{
closed = 1;
nodes = (
"280 -243 LINE",
"280 15 LINE",
"280 15 OFFCURVE",
"308 -8 OFFCURVE",
"391 -8 CURVE SMOOTH",
"496 -8 OFFCURVE",
"581 62 OFFCURVE",
"581 247 CURVE SMOOTH",
"581 411 OFFCURVE",
"509 484 OFFCURVE",
"391 484 CURVE SMOOTH",
"307 484 OFFCURVE",
"270 425 OFFCURVE",
"270 425 CURVE",
"260 430 LINE",
"260 473 LINE",
"71 473 LINE",
"40 412 LINE",
"60 302 LINE",
"60 -243 LINE"
);
},
{
closed = 1;
nodes = (
"288 161 OFFCURVE",
"280 174 OFFCURVE",
"280 174 CURVE",
"280 300 LINE",
"290 310 LINE",
"340 310 OFFCURVE",
"361 280 OFFCURVE",
"361 228 CURVE SMOOTH",
"361 178 OFFCURVE",
"338 161 OFFCURVE",
"306 161 CURVE SMOOTH"
);
}
);
width = 611;
},
{
associatedMasterId = "083550D2-F2E8-44E3-BE3D-E8BDF41EDFC4";
layerId = "0AAF2CB4-2EBD-42C4-BAB4-4CEC92C737FB";
width = 600;
},
{
layerId = "CA5CD7F6-F0E6-40F5-9716-481B35A0BC32";
paths = (
{
closed = 1;
nodes = (
"200 -243 LINE",
"200 15 LINE",
"215 9 OFFCURVE",
"261 -8 OFFCURVE",
"331 -8 CURVE SMOOTH",
"436 -8 OFFCURVE",
"521 62 OFFCURVE",
"521 247 CURVE SMOOTH",
"521 411 OFFCURVE",
"449 484 OFFCURVE",
"331 484 CURVE SMOOTH",
"247 484 OFFCURVE",
"190 425 OFFCURVE",
"190 425 CURVE",
"180 430 LINE",
"180 473 LINE",
"71 473 LINE",
"40 412 LINE",
"60 302 LINE",
"60 -243 LINE"
);
},
{
closed = 1;
nodes = (
"233 98 OFFCURVE",
"200 111 OFFCURVE",
"200 111 CURVE",
"200 352 LINE",
"276 373 LINE",
"352 373 OFFCURVE",
"371 310 OFFCURVE",
"371 238 CURVE SMOOTH",
"371 164 OFFCURVE",
"344 98 OFFCURVE",
"266 98 CURVE SMOOTH"
);
}
);
width = 551;
},
{
associatedMasterId = "CA5CD7F6-F0E6-40F5-9716-481B35A0BC32";
layerId = "D914797A-3AA2-414A-97FF-76DB3D2D1007";
width = 600;
}
);
leftMetricsKey = n;
rightMetricsKey = o;
unicode = 0070;
},
{
color = 1;
glyphname = thorn;
layers = (
{
layerId = "083550D2-F2E8-44E3-BE3D-E8BDF41EDFC4";
paths = (
{
closed = 1;
nodes = (
"240 -244 LINE",
"240 14 LINE",
"240 14 OFFCURVE",
"275 -9 OFFCURVE",
"371 -9 CURVE SMOOTH",
"476 -9 OFFCURVE",
"561 61 OFFCURVE",
"561 246 CURVE SMOOTH",
"561 410 OFFCURVE",
"489 483 OFFCURVE",
"371 483 CURVE SMOOTH",
"287 483 OFFCURVE",
"230 424 OFFCURVE",
"230 424 CURVE",
"220 429 LINE",
"220 706 LINE",
"71 706 LINE",
"40 645 LINE",
"60 535 LINE",
"60 -244 LINE"
);
},
{
closed = 1;
nodes = (
"253 128 OFFCURVE",
"240 141 OFFCURVE",
"240 141 CURVE",
"240 320 LINE",
"296 341 LINE",
"345 341 OFFCURVE",
"371 309 OFFCURVE",
"371 237 CURVE SMOOTH",
"371 163 OFFCURVE",
"337 128 OFFCURVE",
"286 128 CURVE SMOOTH"
);
}
);
width = 591;
},
{
layerId = "1A280FA7-9E72-4FC3-84C1-49B7BD56B269";
paths = (
{
closed = 1;
nodes = (
"280 -244 LINE",
"280 14 LINE",
"280 14 OFFCURVE",
"308 -9 OFFCURVE",
"391 -9 CURVE SMOOTH",
"496 -9 OFFCURVE",
"581 61 OFFCURVE",
"581 246 CURVE SMOOTH",
"581 410 OFFCURVE",
"509 483 OFFCURVE",
"391 483 CURVE SMOOTH",
"307 483 OFFCURVE",
"270 424 OFFCURVE",
"270 424 CURVE",
"260 429 LINE",
"260 706 LINE",
"71 706 LINE",
"40 645 LINE",
"60 535 LINE",
"60 -244 LINE"
);
},
{
closed = 1;
nodes = (
"288 160 OFFCURVE",
"280 173 OFFCURVE",
"280 173 CURVE",
"280 298 LINE",
"316 309 LINE",
"344 309 OFFCURVE",
"351 288 OFFCURVE",
"351 237 CURVE SMOOTH",
"351 187 OFFCURVE",
"338 160 OFFCURVE",
"306 160 CURVE SMOOTH"
);
}
);
width = 611;
},
{
associatedMasterId = "083550D2-F2E8-44E3-BE3D-E8BDF41EDFC4";
layerId = "0AAF2CB4-2EBD-42C4-BAB4-4CEC92C737FB";
width = 600;
},
{
layerId = "CA5CD7F6-F0E6-40F5-9716-481B35A0BC32";
paths = (
{
closed = 1;
nodes = (
"200 -244 LINE",
"200 14 LINE",
"200 14 OFFCURVE",
"235 -9 OFFCURVE",
"331 -9 CURVE SMOOTH",
"436 -9 OFFCURVE",
"521 61 OFFCURVE",
"521 246 CURVE SMOOTH",
"521 410 OFFCURVE",
"449 483 OFFCURVE",
"331 483 CURVE SMOOTH",
"247 483 OFFCURVE",
"190 424 OFFCURVE",
"190 424 CURVE",
"180 429 LINE",
"180 706 LINE",
"71 706 LINE",
"40 645 LINE",
"60 535 LINE",
"60 -244 LINE"
);
},
{
closed = 1;
nodes = (
"233 97 OFFCURVE",
"200 110 OFFCURVE",
"200 110 CURVE",
"200 351 LINE",
"276 372 LINE",
"352 372 OFFCURVE",
"371 309 OFFCURVE",
"371 237 CURVE SMOOTH",
"371 163 OFFCURVE",
"344 97 OFFCURVE",
"266 97 CURVE SMOOTH"
);
}
);
width = 551;
},
{
associatedMasterId = "CA5CD7F6-F0E6-40F5-9716-481B35A0BC32";
layerId = "4EF9C598-AE41-4C8B-9C56-8F47D132AC15";
width = 600;
}
);
leftMetricsKey = n;
rightMetricsKey = o;
unicode = 00FE;
},
{
color = 1;
glyphname = q;
layers = (
{
layerId = "083550D2-F2E8-44E3-BE3D-E8BDF41EDFC4";
paths = (
{
closed = 1;
nodes = (
"531 -245 LINE",
"551 -187 LINE",
"531 -95 LINE",
"531 473 LINE",
"350 473 LINE",
"350 438 LINE",
"350 438 OFFCURVE",
"315 482 OFFCURVE",
"220 482 CURVE SMOOTH",
"126 482 OFFCURVE",
"30 411 OFFCURVE",
"30 226 CURVE SMOOTH",
"30 57 OFFCURVE",
"126 -10 OFFCURVE",
"220 -10 CURVE SMOOTH",
"304 -10 OFFCURVE",
"350 43 OFFCURVE",
"350 43 CURVE",
"360 38 LINE",
"350 -32 LINE",
"340 -245 LINE"
);
},
{
closed = 1;
nodes = (
"253 131 OFFCURVE",
"220 161 OFFCURVE",
"220 235 CURVE SMOOTH",
"220 309 OFFCURVE",
"246 341 OFFCURVE",
"295 341 CURVE SMOOTH",
"328 341 OFFCURVE",
"350 322 OFFCURVE",
"350 291 CURVE SMOOTH",
"350 145 LINE",
"295 131 LINE"
);
}
);
width = 591;
},
{
layerId = "1A280FA7-9E72-4FC3-84C1-49B7BD56B269";
paths = (
{
closed = 1;
nodes = (
"551 -245 LINE",
"571 -187 LINE",
"551 -95 LINE",
"551 473 LINE",
"330 473 LINE",
"330 438 LINE",
"330 438 OFFCURVE",
"302 482 OFFCURVE",
"220 482 CURVE SMOOTH",
"126 482 OFFCURVE",
"30 411 OFFCURVE",
"30 226 CURVE SMOOTH",
"30 57 OFFCURVE",
"126 -10 OFFCURVE",
"220 -10 CURVE SMOOTH",
"304 -10 OFFCURVE",
"330 43 OFFCURVE",
"330 43 CURVE",
"340 38 LINE",
"330 -32 LINE",
"320 -245 LINE"
);
},
{
closed = 1;
nodes = (
"286 156 OFFCURVE",
"250 179 OFFCURVE",
"250 245 CURVE SMOOTH",
"250 295 OFFCURVE",
"270 311 OFFCURVE",
"295 311 CURVE SMOOTH",
"315 311 OFFCURVE",
"330 292 OFFCURVE",
"330 261 CURVE SMOOTH",
"330 165 LINE",
"320 156 LINE"
);
}
);
width = 611;
},
{
associatedMasterId = "083550D2-F2E8-44E3-BE3D-E8BDF41EDFC4";
layerId = "0AAF2CB4-2EBD-42C4-BAB4-4CEC92C737FB";
width = 600;
},
{
layerId = "CA5CD7F6-F0E6-40F5-9716-481B35A0BC32";
paths = (
{
closed = 1;
nodes = (
"491 -245 LINE",
"511 -187 LINE",
"491 -95 LINE",
"491 473 LINE",
"350 473 LINE",
"350 438 LINE",
"350 438 OFFCURVE",
"315 482 OFFCURVE",
"220 482 CURVE SMOOTH",
"126 482 OFFCURVE",
"30 411 OFFCURVE",
"30 226 CURVE SMOOTH",
"30 57 OFFCURVE",
"126 -10 OFFCURVE",
"220 -10 CURVE SMOOTH",
"304 -10 OFFCURVE",
"350 43 OFFCURVE",
"350 43 CURVE",
"360 38 LINE",
"350 -32 LINE",
"340 -245 LINE"
);
},
{
closed = 1;
nodes = (
"206 101 OFFCURVE",
"180 161 OFFCURVE",
"180 235 CURVE SMOOTH",
"180 309 OFFCURVE",
"199 371 OFFCURVE",
"275 371 CURVE SMOOTH",
"322 371 OFFCURVE",
"350 352 OFFCURVE",
"350 321 CURVE SMOOTH",
"350 115 LINE",
"275 101 LINE"
);
}
);
width = 551;
},
{
associatedMasterId = "CA5CD7F6-F0E6-40F5-9716-481B35A0BC32";
layerId = "73CFFBC2-4478-4CF9-AD65-BB989B06F3F3";
width = 600;
}
);
leftMetricsKey = o;
unicode = 0071;
},
{
color = 1;
glyphname = r;
layers = (
{
anchors = (
{
name = bottom;
position = "{294, 0}";
},
{
name = top;
position = "{204, 478}";
}
);
layerId = "083550D2-F2E8-44E3-BE3D-E8BDF41EDFC4";
paths = (
{
closed = 1;
nodes = (
"239 0 LINE",
"239 334 LINE",
"269 344 LINE",
"401 289 LINE",
"466 417 LINE",
"401 472 LINE",
"386 479 OFFCURVE",
"356 483 OFFCURVE",
"330 483 CURVE SMOOTH",
"261 483 OFFCURVE",
"217 450 OFFCURVE",
"217 450 CURVE",
"197 473 LINE",
"61 473 LINE",
"40 413 LINE",
"61 313 LINE",
"61 0 LINE"
);
}
);
width = 466;
},
{
anchors = (
{
name = bottom;
position = "{254, 0}";
},
{
name = top;
position = "{254, 468}";
}
);
layerId = "1A280FA7-9E72-4FC3-84C1-49B7BD56B269";
paths = (
{
closed = 1;
nodes = (
"279 0 LINE",
"279 304 LINE",
"309 314 LINE",
"441 239 LINE",
"526 377 LINE",
"421 472 LINE",
"406 479 OFFCURVE",
"376 483 OFFCURVE",
"350 483 CURVE SMOOTH",
"294 483 OFFCURVE",
"257 450 OFFCURVE",
"257 450 CURVE",
"237 473 LINE",
"61 473 LINE",
"40 413 LINE",
"61 313 LINE",
"61 0 LINE"
);
}
);
width = 526;
},
{
associatedMasterId = "083550D2-F2E8-44E3-BE3D-E8BDF41EDFC4";
layerId = "0AAF2CB4-2EBD-42C4-BAB4-4CEC92C737FB";
width = 600;
},
{
anchors = (
{
name = bottom;
position = "{124, 0}";
},
{
name = top;
position = "{214, 478}";
}
);
layerId = "CA5CD7F6-F0E6-40F5-9716-481B35A0BC32";
paths = (
{
closed = 1;
nodes = (
"199 0 LINE",
"199 364 LINE",
"234 378 LINE",
"371 309 LINE",
"426 407 LINE",
"361 472 LINE",
"346 479 OFFCURVE",
"316 483 OFFCURVE",
"290 483 CURVE SMOOTH",
"218 483 OFFCURVE",
"177 450 OFFCURVE",
"177 450 CURVE",
"157 473 LINE",
"61 473 LINE",
"40 413 LINE",
"61 313 LINE",
"61 0 LINE"
);
}
);
width = 426;
},
{
associatedMasterId = "CA5CD7F6-F0E6-40F5-9716-481B35A0BC32";
layerId = "A1FBAC82-DE0B-4CF7-AD41-0A2531EBBEFF";
width = 600;
}
);
leftMetricsKey = n;
unicode = 0072;
},
{
color = 1;
glyphname = s;
layers = (
{
anchors = (
{
name = bottom;
position = "{288, 0}";
},
{
name = top;
position = "{288, 468}";
}
);
layerId = "083550D2-F2E8-44E3-BE3D-E8BDF41EDFC4";
paths = (
{
closed = 1;
nodes = (
"396 -10 OFFCURVE",
"470 39 OFFCURVE",
"470 141 CURVE SMOOTH",
"470 249 OFFCURVE",
"353 267 OFFCURVE",
"256 289 CURVE SMOOTH",
"226 296 OFFCURVE",
"210 307 OFFCURVE",
"210 322 CURVE SMOOTH",
"210 336 OFFCURVE",
"222 343 OFFCURVE",
"242 343 CURVE",
"417 305 LINE",
"462 412 LINE",
"369 472 LINE",
"350 475 OFFCURVE",
"301 482 OFFCURVE",
"251 482 CURVE SMOOTH",
"116 482 OFFCURVE",
"30 447 OFFCURVE",
"30 331 CURVE SMOOTH",
"30 237 OFFCURVE",
"115 207 OFFCURVE",
"197 187 CURVE SMOOTH",
"264 171 OFFCURVE",
"283 163 OFFCURVE",
"283 149 CURVE SMOOTH",
"283 138 OFFCURVE",
"275 130 OFFCURVE",
"252 130 CURVE SMOOTH",
"222 130 OFFCURVE",
"121 139 OFFCURVE",
"39 175 CURVE",
"39 36 LINE",
"80 14 OFFCURVE",
"158 -10 OFFCURVE",
"255 -10 CURVE SMOOTH"
);
}
);
width = 500;
},
{
anchors = (
{
name = bottom;
position = "{288, 0}";
},
{
name = top;
position = "{288, 468}";
}
);
layerId = "1A280FA7-9E72-4FC3-84C1-49B7BD56B269";
paths = (
{
closed = 1;
nodes = (
"406 -10 OFFCURVE",
"491 39 OFFCURVE",
"491 140 CURVE SMOOTH",
"491 229 OFFCURVE",
"390 253 OFFCURVE",
"296 279 CURVE SMOOTH",
"266 287 OFFCURVE",
"250 296 OFFCURVE",
"250 308 CURVE SMOOTH",
"250 319 OFFCURVE",
"262 323 OFFCURVE",
"282 323 CURVE",
"438 285 LINE",
"483 422 LINE",
"390 472 LINE",
"371 475 OFFCURVE",
"311 482 OFFCURVE",
"261 482 CURVE SMOOTH",
"126 482 OFFCURVE",
"30 447 OFFCURVE",
"30 331 CURVE SMOOTH",
"30 255 OFFCURVE",
"102 230 OFFCURVE",
"177 207 CURVE SMOOTH",
"240 188 OFFCURVE",
"263 177 OFFCURVE",
"263 166 CURVE SMOOTH",
"263 155 OFFCURVE",
"256 150 OFFCURVE",
"235 150 CURVE SMOOTH",
"176 150 OFFCURVE",
"95 171 OFFCURVE",
"39 205 CURVE",
"39 36 LINE",
"83 13 OFFCURVE",
"152 -10 OFFCURVE",
"265 -10 CURVE SMOOTH"
);
}
);
width = 521;
},
{
associatedMasterId = "083550D2-F2E8-44E3-BE3D-E8BDF41EDFC4";
layerId = "0AAF2CB4-2EBD-42C4-BAB4-4CEC92C737FB";
width = 600;
},
{
anchors = (
{
name = bottom;
position = "{233, -10}";
},
{
name = top;
position = "{220, 480}";
}
);
layerId = "CA5CD7F6-F0E6-40F5-9716-481B35A0BC32";
paths = (
{
closed = 1;
nodes = (
"344 -10 OFFCURVE",
"407 51 OFFCURVE",
"407 133 CURVE SMOOTH",
"407 221 OFFCURVE",
"358 259 OFFCURVE",
"250 291 CURVE SMOOTH",
"196 307 OFFCURVE",
"168 317 OFFCURVE",
"168 345 CURVE SMOOTH",
"168 362 OFFCURVE",
"185 373 OFFCURVE",
"210 373 CURVE",
"360 325 LINE",
"399 422 LINE",
"308 472 LINE",
"283 476 OFFCURVE",
"254 482 OFFCURVE",
"210 482 CURVE SMOOTH",
"102 482 OFFCURVE",
"30 436 OFFCURVE",
"30 341 CURVE SMOOTH",
"30 253 OFFCURVE",
"73 220 OFFCURVE",
"149 193 CURVE SMOOTH",
"214 170 OFFCURVE",
"262 166 OFFCURVE",
"262 131 CURVE SMOOTH",
"262 109 OFFCURVE",
"245 98 OFFCURVE",
"211 98 CURVE SMOOTH",
"153 98 OFFCURVE",
"87 118 OFFCURVE",
"39 144 CURVE",
"39 26 LINE",
"73 7 OFFCURVE",
"128 -10 OFFCURVE",
"214 -10 CURVE SMOOTH"
);
}
);
width = 437;
},
{
associatedMasterId = "CA5CD7F6-F0E6-40F5-9716-481B35A0BC32";
layerId = "6FD7718E-B5C7-4D60-8DCC-39D4432336CB";
width = 600;
}
);
unicode = 0073;
},
{
color = 1;
glyphname = germandbls;
layers = (
{
layerId = "083550D2-F2E8-44E3-BE3D-E8BDF41EDFC4";
paths = (
{
closed = 1;
nodes = (
"619 -10 OFFCURVE",
"692 70 OFFCURVE",
"692 148 CURVE SMOOTH",
"692 215 OFFCURVE",
"658 267 OFFCURVE",
"582 312 CURVE SMOOTH",
"535 340 OFFCURVE",
"517 361 OFFCURVE",
"517 393 CURVE SMOOTH",
"517 455 OFFCURVE",
"562 458 OFFCURVE",
"562 558 CURVE SMOOTH",
"562 648 OFFCURVE",
"496 718 OFFCURVE",
"350 718 CURVE SMOOTH",
"217 718 OFFCURVE",
"107 634 OFFCURVE",
"107 478 CURVE SMOOTH",
"107 0 LINE",
"269 0 LINE",
"269 481 LINE SMOOTH",
"269 559 OFFCURVE",
"295 588 OFFCURVE",
"342 588 CURVE SMOOTH",
"388 588 OFFCURVE",
"410 567 OFFCURVE",
"410 529 CURVE SMOOTH",
"410 473 OFFCURVE",
"349 438 OFFCURVE",
"349 359 CURVE SMOOTH",
"349 308 OFFCURVE",
"370 282 OFFCURVE",
"420 250 CURVE SMOOTH",
"474 215 OFFCURVE",
"510 197 OFFCURVE",
"510 164 CURVE SMOOTH",
"510 145 OFFCURVE",
"496 124 OFFCURVE",
"464 124 CURVE",
"362 172 LINE",
"312 41 LINE",
"395 0 LINE",
"421 -6 OFFCURVE",
"453 -10 OFFCURVE",
"492 -10 CURVE SMOOTH"
);
},
{
closed = 1;
nodes = (
"160 342 LINE",
"160 472 LINE",
"40 472 LINE",
"40 342 LINE"
);
}
);
width = 722;
},
{
layerId = "1A280FA7-9E72-4FC3-84C1-49B7BD56B269";
paths = (
{
closed = 1;
nodes = (
"659 -10 OFFCURVE",
"732 64 OFFCURVE",
"732 158 CURVE SMOOTH",
"732 236 OFFCURVE",
"705 280 OFFCURVE",
"632 322 CURVE SMOOTH",
"580 352 OFFCURVE",
"547 381 OFFCURVE",
"547 413 CURVE SMOOTH",
"547 475 OFFCURVE",
"582 482 OFFCURVE",
"582 557 CURVE SMOOTH",
"582 649 OFFCURVE",
"507 718 OFFCURVE",
"350 718 CURVE SMOOTH",
"191 718 OFFCURVE",
"107 636 OFFCURVE",
"107 478 CURVE SMOOTH",
"107 0 LINE",
"309 0 LINE",
"309 470 LINE SMOOTH",
"309 529 OFFCURVE",
"331 557 OFFCURVE",
"362 557 CURVE SMOOTH",
"395 557 OFFCURVE",
"410 540 OFFCURVE",
"410 508 CURVE SMOOTH",
"410 461 OFFCURVE",
"359 433 OFFCURVE",
"359 369 CURVE SMOOTH",
"359 332 OFFCURVE",
"381 307 OFFCURVE",
"430 270 CURVE SMOOTH",
"481 231 OFFCURVE",
"510 217 OFFCURVE",
"510 184 CURVE SMOOTH",
"510 165 OFFCURVE",
"495 155 OFFCURVE",
"474 155 CURVE",
"372 193 LINE",
"332 71 LINE",
"415 0 LINE",
"441 -6 OFFCURVE",
"493 -10 OFFCURVE",
"532 -10 CURVE SMOOTH"
);
},
{
closed = 1;
nodes = (
"160 342 LINE",
"160 472 LINE",
"40 472 LINE",
"40 342 LINE"
);
}
);
width = 762;
},
{
associatedMasterId = "083550D2-F2E8-44E3-BE3D-E8BDF41EDFC4";
layerId = "0AAF2CB4-2EBD-42C4-BAB4-4CEC92C737FB";
width = 600;
},
{
layerId = "CA5CD7F6-F0E6-40F5-9716-481B35A0BC32";
paths = (
{
closed = 1;
nodes = (
"585 -10 OFFCURVE",
"631 70 OFFCURVE",
"631 148 CURVE SMOOTH",
"631 215 OFFCURVE",
"597 267 OFFCURVE",
"521 312 CURVE SMOOTH",
"474 340 OFFCURVE",
"456 361 OFFCURVE",
"456 393 CURVE SMOOTH",
"456 455 OFFCURVE",
"501 478 OFFCURVE",
"501 578 CURVE SMOOTH",
"501 654 OFFCURVE",
"451 718 OFFCURVE",
"329 718 CURVE SMOOTH",
"196 718 OFFCURVE",
"107 634 OFFCURVE",
"107 478 CURVE SMOOTH",
"107 0 LINE",
"228 0 LINE",
"228 491 LINE SMOOTH",
"228 569 OFFCURVE",
"261 618 OFFCURVE",
"321 618 CURVE SMOOTH",
"365 618 OFFCURVE",
"379 594 OFFCURVE",
"379 559 CURVE SMOOTH",
"379 503 OFFCURVE",
"328 438 OFFCURVE",
"328 359 CURVE SMOOTH",
"328 316 OFFCURVE",
"349 282 OFFCURVE",
"399 250 CURVE SMOOTH",
"453 215 OFFCURVE",
"489 197 OFFCURVE",
"489 143 CURVE SMOOTH",
"489 116 OFFCURVE",
"470 92 OFFCURVE",
"443 92 CURVE",
"331 141 LINE",
"291 41 LINE",
"374 0 LINE",
"400 -6 OFFCURVE",
"432 -10 OFFCURVE",
"471 -10 CURVE SMOOTH"
);
},
{
closed = 1;
nodes = (
"160 342 LINE",
"160 472 LINE",
"40 472 LINE",
"40 342 LINE"
);
}
);
width = 661;
},
{
associatedMasterId = "CA5CD7F6-F0E6-40F5-9716-481B35A0BC32";
layerId = "AC19325C-CD73-4106-AF21-209240F3CACD";
width = 600;
}
);
rightMetricsKey = b;
unicode = 00DF;
},
{
color = 1;
glyphname = t;
layers = (
{
anchors = (
{
name = bottom;
position = "{217, 0}";
},
{
name = center;
position = "{208, 254}";
},
{
name = top;
position = "{205, 608}";
},
{
name = topright;
position = "{373, 468}";
}
);
layerId = "083550D2-F2E8-44E3-BE3D-E8BDF41EDFC4";
paths = (
{
closed = 1;
nodes = (
"324 -10 OFFCURVE",
"402 20 OFFCURVE",
"402 20 CURVE",
"402 129 LINE",
"262 128 LINE",
"262 342 LINE",
"402 342 LINE",
"402 472 LINE",
"262 472 LINE",
"262 617 LINE",
"144 617 LINE",
"73 493 LINE",
"10 444 LINE",
"10 349 LINE",
"83 349 LINE",
"83 131 LINE SMOOTH",
"83 50 OFFCURVE",
"142 -10 OFFCURVE",
"233 -10 CURVE SMOOTH"
);
}
);
width = 432;
},
{
anchors = (
{
name = bottom;
position = "{257, 0}";
},
{
name = center;
position = "{235, 237}";
},
{
name = top;
position = "{224, 618}";
},
{
name = topright;
position = "{383, 468}";
}
);
layerId = "1A280FA7-9E72-4FC3-84C1-49B7BD56B269";
paths = (
{
closed = 1;
nodes = (
"354 -10 OFFCURVE",
"462 20 OFFCURVE",
"462 20 CURVE",
"462 159 LINE",
"312 158 LINE",
"312 312 LINE",
"462 312 LINE",
"462 472 LINE",
"312 472 LINE",
"312 617 LINE",
"154 617 LINE",
"83 493 LINE",
"10 444 LINE",
"10 319 LINE",
"93 319 LINE",
"93 131 LINE SMOOTH",
"93 39 OFFCURVE",
"146 -10 OFFCURVE",
"263 -10 CURVE SMOOTH"
);
}
);
width = 492;
},
{
associatedMasterId = "083550D2-F2E8-44E3-BE3D-E8BDF41EDFC4";
layerId = "0AAF2CB4-2EBD-42C4-BAB4-4CEC92C737FB";
width = 600;
},
{
anchors = (
{
name = bottom;
position = "{207, 0}";
},
{
name = center;
position = "{176, 264}";
},
{
name = top;
position = "{174, 618}";
},
{
name = topright;
position = "{363, 468}";
}
);
layerId = "CA5CD7F6-F0E6-40F5-9716-481B35A0BC32";
paths = (
{
closed = 1;
nodes = (
"294 -10 OFFCURVE",
"342 20 OFFCURVE",
"342 20 CURVE",
"342 99 LINE",
"212 98 LINE",
"212 372 LINE",
"342 372 LINE",
"342 472 LINE",
"212 472 LINE",
"212 617 LINE",
"134 617 LINE",
"63 493 LINE",
"10 444 LINE",
"10 379 LINE",
"73 379 LINE",
"73 111 LINE SMOOTH",
"73 30 OFFCURVE",
"112 -10 OFFCURVE",
"203 -10 CURVE SMOOTH"
);
}
);
width = 362;
},
{
associatedMasterId = "CA5CD7F6-F0E6-40F5-9716-481B35A0BC32";
layerId = "BB20C680-4C72-41B2-A140-F7F8E15498F4";
width = 600;
}
);
unicode = 0074;
},
{
color = 1;
glyphname = u;
layers = (
{
anchors = (
{
name = bottom;
position = "{323, 0}";
},
{
name = ogonek;
position = "{481, 10}";
},
{
name = top;
position = "{289, 483}";
},
{
name = topright;
position = "{570, 473}";
}
);
layerId = "083550D2-F2E8-44E3-BE3D-E8BDF41EDFC4";
paths = (
{
closed = 1;
nodes = (
"261 -10 OFFCURVE",
"325 28 OFFCURVE",
"351 54 CURVE",
"361 49 LINE",
"361 0 LINE",
"530 0 LINE",
"551 61 LINE",
"530 161 LINE",
"530 473 LINE",
"350 473 LINE",
"350 221 LINE SMOOTH",
"350 162 OFFCURVE",
"314 131 OFFCURVE",
"278 131 CURVE SMOOTH",
"239 131 OFFCURVE",
"220 160 OFFCURVE",
"220 210 CURVE SMOOTH",
"220 473 LINE",
"40 473 LINE",
"40 184 LINE SMOOTH",
"40 62 OFFCURVE",
"70 -10 OFFCURVE",
"190 -10 CURVE SMOOTH"
);
}
);
width = 591;
},
{
anchors = (
{
name = bottom;
position = "{293, 0}";
},
{
name = ogonek;
position = "{463, 10}";
},
{
name = top;
position = "{293, 468}";
},
{
name = topright;
position = "{590, 468}";
}
);
layerId = "1A280FA7-9E72-4FC3-84C1-49B7BD56B269";
paths = (
{
closed = 1;
nodes = (
"261 -10 OFFCURVE",
"303 28 OFFCURVE",
"329 54 CURVE",
"339 49 LINE",
"339 0 LINE",
"550 0 LINE",
"571 61 LINE",
"550 161 LINE",
"550 473 LINE",
"328 473 LINE",
"328 253 LINE SMOOTH",
"328 194 OFFCURVE",
"324 163 OFFCURVE",
"288 163 CURVE SMOOTH",
"267 163 OFFCURVE",
"261 187 OFFCURVE",
"261 210 CURVE SMOOTH",
"261 473 LINE",
"40 473 LINE",
"40 184 LINE SMOOTH",
"40 62 OFFCURVE",
"78 -10 OFFCURVE",
"190 -10 CURVE SMOOTH"
);
}
);
width = 611;
},
{
associatedMasterId = "083550D2-F2E8-44E3-BE3D-E8BDF41EDFC4";
layerId = "0AAF2CB4-2EBD-42C4-BAB4-4CEC92C737FB";
width = 600;
},
{
anchors = (
{
name = bottom;
position = "{283, 0}";
},
{
name = ogonek;
position = "{482, 10}";
},
{
name = top;
position = "{283, 468}";
},
{
name = topright;
position = "{540, 480}";
}
);
layerId = "CA5CD7F6-F0E6-40F5-9716-481B35A0BC32";
paths = (
{
closed = 1;
nodes = (
"261 -10 OFFCURVE",
"325 28 OFFCURVE",
"351 54 CURVE",
"361 49 LINE",
"361 0 LINE",
"490 0 LINE",
"511 61 LINE",
"490 161 LINE",
"490 473 LINE",
"350 473 LINE",
"350 221 LINE SMOOTH",
"350 157 OFFCURVE",
"311 101 OFFCURVE",
"248 101 CURVE SMOOTH",
"198 101 OFFCURVE",
"180 125 OFFCURVE",
"180 180 CURVE SMOOTH",
"180 473 LINE",
"40 473 LINE",
"40 184 LINE SMOOTH",
"40 62 OFFCURVE",
"70 -10 OFFCURVE",
"190 -10 CURVE SMOOTH"
);
}
);
width = 551;
},
{
associatedMasterId = "CA5CD7F6-F0E6-40F5-9716-481B35A0BC32";
layerId = "FF4532BD-A4CE-4812-9204-F65549EDE1C0";
width = 600;
}
);
leftMetricsKey = n;
rightMetricsKey = n;
unicode = 0075;
},
{
color = 1;
glyphname = v;
layers = (
{
layerId = "083550D2-F2E8-44E3-BE3D-E8BDF41EDFC4";
paths = (
{
closed = 1;
nodes = (
"366 0 LINE",
"500 342 LINE",
"520 472 LINE",
"331 472 LINE",
"275 160 LINE",
"255 160 LINE",
"200 472 LINE",
"10 472 LINE",
"30 342 LINE",
"156 0 LINE"
);
}
);
width = 530;
},
{
layerId = "1A280FA7-9E72-4FC3-84C1-49B7BD56B269";
paths = (
{
closed = 1;
nodes = (
"406 0 LINE",
"540 342 LINE",
"560 472 LINE",
"331 472 LINE",
"295 180 LINE",
"275 180 LINE",
"240 472 LINE",
"10 472 LINE",
"30 342 LINE",
"156 0 LINE"
);
}
);
width = 570;
},
{
associatedMasterId = "083550D2-F2E8-44E3-BE3D-E8BDF41EDFC4";
layerId = "0AAF2CB4-2EBD-42C4-BAB4-4CEC92C737FB";
width = 600;
},
{
layerId = "CA5CD7F6-F0E6-40F5-9716-481B35A0BC32";
paths = (
{
closed = 1;
nodes = (
"336 0 LINE",
"470 342 LINE",
"490 472 LINE",
"341 472 LINE",
"265 140 LINE",
"245 140 LINE",
"170 472 LINE",
"20 472 LINE",
"40 342 LINE",
"166 0 LINE"
);
}
);
width = 510;
},
{
associatedMasterId = "CA5CD7F6-F0E6-40F5-9716-481B35A0BC32";
layerId = "6323E482-0D95-4F5D-98E0-C98FBAE680F4";
width = 600;
}
);
unicode = 0076;
},
{
color = 1;
glyphname = w;
layers = (
{
anchors = (
{
name = bottom;
position = "{522, 0}";
},
{
name = top;
position = "{452, 468}";
}
);
layerId = "083550D2-F2E8-44E3-BE3D-E8BDF41EDFC4";
paths = (
{
closed = 1;
nodes = (
"377 0 LINE",
"450 322 LINE",
"470 322 LINE",
"542 0 LINE",
"752 0 LINE",
"890 342 LINE",
"910 472 LINE",
"721 472 LINE",
"655 160 LINE",
"635 160 LINE",
"560 472 LINE",
"361 472 LINE",
"285 160 LINE",
"265 160 LINE",
"200 472 LINE",
"10 472 LINE",
"30 342 LINE",
"167 0 LINE"
);
}
);
width = 920;
},
{
anchors = (
{
name = bottom;
position = "{483, 0}";
},
{
name = top;
position = "{482, 468}";
}
);
layerId = "1A280FA7-9E72-4FC3-84C1-49B7BD56B269";
paths = (
{
closed = 1;
nodes = (
"417 0 LINE",
"470 302 LINE",
"490 302 LINE",
"542 0 LINE",
"792 0 LINE",
"930 342 LINE",
"950 472 LINE",
"721 472 LINE",
"675 180 LINE",
"655 180 LINE",
"590 472 LINE",
"371 472 LINE",
"305 180 LINE",
"285 180 LINE",
"240 472 LINE",
"10 472 LINE",
"30 342 LINE",
"167 0 LINE"
);
}
);
width = 960;
},
{
associatedMasterId = "083550D2-F2E8-44E3-BE3D-E8BDF41EDFC4";
layerId = "0AAF2CB4-2EBD-42C4-BAB4-4CEC92C737FB";
width = 600;
},
{
anchors = (
{
name = bottom;
position = "{450, 0}";
},
{
name = top;
position = "{450, 468}";
}
);
layerId = "CA5CD7F6-F0E6-40F5-9716-481B35A0BC32";
paths = (
{
closed = 1;
nodes = (
"357 0 LINE",
"440 342 LINE",
"460 342 LINE",
"542 0 LINE",
"722 0 LINE",
"860 342 LINE",
"880 472 LINE",
"731 472 LINE",
"645 140 LINE",
"625 140 LINE",
"540 472 LINE",
"361 472 LINE",
"275 140 LINE",
"255 140 LINE",
"170 472 LINE",
"20 472 LINE",
"40 342 LINE",
"177 0 LINE"
);
}
);
width = 900;
},
{
associatedMasterId = "CA5CD7F6-F0E6-40F5-9716-481B35A0BC32";
layerId = "82BF1CCC-1407-48E9-8C52-0DE736F86006";
width = 600;
}
);
leftMetricsKey = v;
rightMetricsKey = v;
unicode = 0077;
},
{
color = 1;
glyphname = x;
layers = (
{
layerId = "083550D2-F2E8-44E3-BE3D-E8BDF41EDFC4";
paths = (
{
closed = 1;
nodes = (
"200 0 LINE",
"255 156 LINE",
"275 156 LINE",
"330 0 LINE",
"509 0 LINE",
"509 60 LINE",
"401 238 LINE",
"449 313 LINE",
"520 472 LINE",
"330 472 LINE",
"275 296 LINE",
"255 296 LINE",
"200 472 LINE",
"20 472 LINE",
"20 411 LINE",
"131 238 LINE",
"82 159 LINE",
"10 0 LINE"
);
}
);
width = 530;
},
{
layerId = "1A280FA7-9E72-4FC3-84C1-49B7BD56B269";
paths = (
{
closed = 1;
nodes = (
"240 0 LINE",
"275 136 LINE",
"295 136 LINE",
"330 0 LINE",
"550 0 LINE",
"550 60 LINE",
"441 238 LINE",
"490 313 LINE",
"561 472 LINE",
"330 472 LINE",
"295 316 LINE",
"275 316 LINE",
"240 472 LINE",
"20 472 LINE",
"20 411 LINE",
"131 238 LINE",
"82 159 LINE",
"10 0 LINE"
);
}
);
width = 571;
},
{
associatedMasterId = "083550D2-F2E8-44E3-BE3D-E8BDF41EDFC4";
layerId = "0AAF2CB4-2EBD-42C4-BAB4-4CEC92C737FB";
width = 600;
},
{
layerId = "CA5CD7F6-F0E6-40F5-9716-481B35A0BC32";
paths = (
{
closed = 1;
nodes = (
"170 0 LINE",
"245 176 LINE",
"265 176 LINE",
"340 0 LINE",
"478 0 LINE",
"478 60 LINE",
"370 238 LINE",
"418 313 LINE",
"489 472 LINE",
"340 472 LINE",
"265 276 LINE",
"245 276 LINE",
"170 472 LINE",
"30 472 LINE",
"30 411 LINE",
"141 238 LINE",
"92 159 LINE",
"20 0 LINE"
);
}
);
width = 509;
},
{
associatedMasterId = "CA5CD7F6-F0E6-40F5-9716-481B35A0BC32";
layerId = "A84A5546-F4FE-44C8-B369-9B3A2A25F925";
width = 600;
}
);
leftMetricsKey = v;
rightMetricsKey = v;
unicode = 0078;
},
{
color = 1;
glyphname = y;
layers = (
{
anchors = (
{
name = bottom;
position = "{509, 0}";
},
{
name = top;
position = "{259, 468}";
}
);
layerId = "083550D2-F2E8-44E3-BE3D-E8BDF41EDFC4";
paths = (
{
closed = 1;
nodes = (
"260 -243 OFFCURVE",
"336 -165 OFFCURVE",
"391 1 CURVE SMOOTH",
"450 178 OFFCURVE",
"510 473 OFFCURVE",
"510 473 CURVE SMOOTH",
"320 473 LINE",
"265 143 LINE",
"245 143 LINE",
"190 473 LINE",
"0 473 LINE",
"19 343 LINE",
"129 1 LINE",
"232 1 LINE",
"219 -53 OFFCURVE",
"197 -84 OFFCURVE",
"140 -84 CURVE",
"0 -44 LINE",
"-40 -193 LINE",
"101 -243 LINE"
);
}
);
width = 520;
},
{
anchors = (
{
name = bottom;
position = "{589, 0}";
},
{
name = top;
position = "{316, 473}";
}
);
layerId = "1A280FA7-9E72-4FC3-84C1-49B7BD56B269";
paths = (
{
closed = 1;
nodes = (
"320 -243 OFFCURVE",
"426 -165 OFFCURVE",
"481 1 CURVE SMOOTH",
"540 178 OFFCURVE",
"610 473 OFFCURVE",
"610 473 CURVE SMOOTH",
"380 473 LINE",
"325 163 LINE",
"305 163 LINE",
"250 473 LINE",
"20 473 LINE",
"39 343 LINE",
"169 1 LINE",
"292 1 LINE",
"284 -32 OFFCURVE",
"267 -54 OFFCURVE",
"220 -54 CURVE",
"20 -14 LINE",
"-20 -183 LINE",
"161 -243 LINE"
);
}
);
width = 620;
},
{
associatedMasterId = "083550D2-F2E8-44E3-BE3D-E8BDF41EDFC4";
layerId = "0AAF2CB4-2EBD-42C4-BAB4-4CEC92C737FB";
width = 600;
},
{
anchors = (
{
name = bottom;
position = "{469, 0}";
},
{
name = top;
position = "{254, 473}";
}
);
layerId = "CA5CD7F6-F0E6-40F5-9716-481B35A0BC32";
paths = (
{
closed = 1;
nodes = (
"260 -243 OFFCURVE",
"316 -165 OFFCURVE",
"371 1 CURVE SMOOTH",
"430 178 OFFCURVE",
"490 473 OFFCURVE",
"490 473 CURVE SMOOTH",
"340 473 LINE",
"265 113 LINE",
"245 113 LINE",
"170 473 LINE",
"20 473 LINE",
"39 343 LINE",
"149 1 LINE",
"242 1 LINE",
"229 -53 OFFCURVE",
"197 -114 OFFCURVE",
"140 -114 CURVE",
"0 -74 LINE",
"-40 -193 LINE",
"101 -243 LINE"
);
}
);
width = 510;
},
{
associatedMasterId = "CA5CD7F6-F0E6-40F5-9716-481B35A0BC32";
layerId = "ADA9F323-149C-4E9E-AD00-B7EA8E2528F1";
width = 600;
}
);
rightMetricsKey = v;
unicode = 0079;
},
{
color = 1;
glyphname = z;
layers = (
{
anchors = (
{
name = bottom;
position = "{258, 0}";
},
{
name = top;
position = "{258, 468}";
}
);
layerId = "083550D2-F2E8-44E3-BE3D-E8BDF41EDFC4";
paths = (
{
closed = 1;
nodes = (
"508 0 LINE",
"508 150 LINE",
"302 130 LINE",
"272 130 LINE",
"332 187 LINE",
"490 379 LINE",
"490 473 LINE",
"21 473 LINE",
"21 343 LINE",
"258 343 LINE",
"20 90 LINE",
"20 0 LINE"
);
}
);
width = 528;
},
{
anchors = (
{
name = bottom;
position = "{268, 0}";
},
{
name = top;
position = "{288, 468}";
}
);
layerId = "1A280FA7-9E72-4FC3-84C1-49B7BD56B269";
paths = (
{
closed = 1;
nodes = (
"528 0 LINE",
"528 180 LINE",
"342 160 LINE",
"312 160 LINE",
"372 217 LINE",
"510 379 LINE",
"510 473 LINE",
"21 473 LINE",
"21 313 LINE",
"228 313 LINE",
"20 90 LINE",
"20 0 LINE"
);
}
);
width = 548;
},
{
associatedMasterId = "083550D2-F2E8-44E3-BE3D-E8BDF41EDFC4";
layerId = "0AAF2CB4-2EBD-42C4-BAB4-4CEC92C737FB";
width = 600;
},
{
anchors = (
{
name = bottom;
position = "{268, 0}";
},
{
name = top;
position = "{268, 468}";
}
);
layerId = "CA5CD7F6-F0E6-40F5-9716-481B35A0BC32";
paths = (
{
closed = 1;
nodes = (
"467 0 LINE",
"467 120 LINE",
"231 100 LINE",
"201 100 LINE",
"256 157 LINE",
"449 409 LINE",
"449 473 LINE",
"21 473 LINE",
"21 373 LINE",
"277 373 LINE",
"20 60 LINE",
"20 0 LINE"
);
}
);
width = 487;
},
{
associatedMasterId = "CA5CD7F6-F0E6-40F5-9716-481B35A0BC32";
layerId = "76861296-63B0-48F0-826D-14AEFF5BDA7A";
width = 600;
}
);
unicode = 007A;
},
{
color = 1;
glyphname = fi;
layers = (
{
anchors = (
{
name = caret_1;
position = "{338.5, 0}";
}
);
layerId = "083550D2-F2E8-44E3-BE3D-E8BDF41EDFC4";
paths = (
{
closed = 1;
nodes = (
"253 0 LINE",
"263 61 LINE",
"253 162 LINE",
"253 352 LINE",
"453 352 LINE",
"453 472 LINE",
"253 472 LINE",
"244 483 OFFCURVE",
"232 506 OFFCURVE",
"232 536 CURVE SMOOTH",
"232 576 OFFCURVE",
"253 615 OFFCURVE",
"298 615 CURVE",
"520 501 LINE",
"510 644 LINE",
"383 745 LINE",
"352 753 OFFCURVE",
"306 756 OFFCURVE",
"269 756 CURVE SMOOTH",
"150 756 OFFCURVE",
"63 677 OFFCURVE",
"63 564 CURVE SMOOTH",
"63 540 OFFCURVE",
"66 495 OFFCURVE",
"73 472 CURVE",
"20 424 LINE",
"73 324 LINE",
"73 0 LINE"
);
},
{
closed = 1;
nodes = (
"610 0 LINE",
"610 472 LINE",
"429 472 LINE",
"409 411 LINE",
"430 331 LINE",
"430 0 LINE"
);
},
{
closed = 1;
nodes = (
"647 629 LINE",
"520 756 LINE",
"392 629 LINE",
"520 501 LINE"
);
}
);
width = 677;
},
{
anchors = (
{
name = caret_1;
position = "{359.5, 0}";
}
);
layerId = "1A280FA7-9E72-4FC3-84C1-49B7BD56B269";
paths = (
{
closed = 1;
nodes = (
"293 0 LINE",
"303 61 LINE",
"293 162 LINE",
"293 322 LINE",
"453 322 LINE",
"453 472 LINE",
"293 472 LINE",
"284 483 OFFCURVE",
"272 501 OFFCURVE",
"272 526 CURVE SMOOTH",
"272 566 OFFCURVE",
"293 585 OFFCURVE",
"338 585 CURVE",
"541 501 LINE",
"540 624 LINE",
"403 745 LINE",
"372 753 OFFCURVE",
"306 756 OFFCURVE",
"269 756 CURVE SMOOTH",
"150 756 OFFCURVE",
"63 677 OFFCURVE",
"63 564 CURVE SMOOTH",
"63 540 OFFCURVE",
"66 495 OFFCURVE",
"73 472 CURVE",
"20 424 LINE",
"73 324 LINE",
"73 0 LINE"
);
},
{
closed = 1;
nodes = (
"650 0 LINE",
"650 472 LINE",
"429 472 LINE",
"409 411 LINE",
"430 331 LINE",
"430 0 LINE"
);
},
{
closed = 1;
nodes = (
"689 629 LINE",
"541 756 LINE",
"393 629 LINE",
"541 501 LINE"
);
}
);
width = 718;
},
{
anchors = (
{
name = caret_1;
position = "{317.5, 0}";
}
);
layerId = "CA5CD7F6-F0E6-40F5-9716-481B35A0BC32";
paths = (
{
closed = 1;
nodes = (
"213 0 LINE",
"223 61 LINE",
"213 162 LINE",
"213 382 LINE",
"453 382 LINE",
"453 472 LINE",
"213 472 LINE",
"204 483 OFFCURVE",
"192 523 OFFCURVE",
"192 556 CURVE SMOOTH",
"192 607 OFFCURVE",
"213 645 OFFCURVE",
"258 645 CURVE",
"499 522 LINE",
"499 624 LINE",
"343 745 LINE",
"312 753 OFFCURVE",
"266 756 OFFCURVE",
"229 756 CURVE SMOOTH",
"110 756 OFFCURVE",
"63 677 OFFCURVE",
"63 564 CURVE SMOOTH",
"63 540 OFFCURVE",
"66 495 OFFCURVE",
"73 472 CURVE",
"20 424 LINE",
"73 354 LINE",
"73 0 LINE"
);
},
{
closed = 1;
nodes = (
"568 0 LINE",
"568 472 LINE",
"428 472 LINE",
"408 411 LINE",
"429 331 LINE",
"429 0 LINE"
);
},
{
closed = 1;
nodes = (
"605 629 LINE",
"499 736 LINE",
"392 629 LINE",
"499 522 LINE"
);
}
);
width = 635;
}
);
leftMetricsKey = f;
rightMetricsKey = i;
unicode = FB01;
},
{
color = 1;
glyphname = fl;
layers = (
{
anchors = (
{
name = caret_1;
position = "{337, 0}";
}
);
layerId = "083550D2-F2E8-44E3-BE3D-E8BDF41EDFC4";
paths = (
{
closed = 1;
nodes = (
"253 0 LINE",
"263 61 LINE",
"253 162 LINE",
"253 352 LINE",
"383 352 LINE",
"383 472 LINE",
"253 472 LINE",
"244 483 OFFCURVE",
"232 506 OFFCURVE",
"232 536 CURVE SMOOTH",
"232 576 OFFCURVE",
"253 615 OFFCURVE",
"298 615 CURVE",
"510 555 LINE",
"510 653 LINE",
"383 745 LINE",
"352 753 OFFCURVE",
"306 756 OFFCURVE",
"269 756 CURVE SMOOTH",
"150 756 OFFCURVE",
"63 677 OFFCURVE",
"63 564 CURVE SMOOTH",
"63 540 OFFCURVE",
"66 495 OFFCURVE",
"73 472 CURVE",
"20 424 LINE",
"73 324 LINE",
"73 0 LINE"
);
},
{
closed = 1;
nodes = (
"614 0 LINE",
"614 708 LINE",
"434 708 LINE",
"413 648 LINE",
"434 548 LINE",
"434 0 LINE"
);
}
);
width = 674;
},
{
anchors = (
{
name = caret_1;
position = "{377, 0}";
}
);
layerId = "1A280FA7-9E72-4FC3-84C1-49B7BD56B269";
paths = (
{
closed = 1;
nodes = (
"293 0 LINE",
"303 61 LINE",
"293 162 LINE",
"293 322 LINE",
"413 322 LINE",
"413 472 LINE",
"293 472 LINE",
"284 483 OFFCURVE",
"272 501 OFFCURVE",
"272 526 CURVE SMOOTH",
"272 566 OFFCURVE",
"293 585 OFFCURVE",
"338 585 CURVE",
"530 515 LINE",
"530 677 LINE",
"403 745 LINE",
"372 753 OFFCURVE",
"306 756 OFFCURVE",
"269 756 CURVE SMOOTH",
"150 756 OFFCURVE",
"63 677 OFFCURVE",
"63 564 CURVE SMOOTH",
"63 540 OFFCURVE",
"66 495 OFFCURVE",
"73 472 CURVE",
"20 424 LINE",
"73 324 LINE",
"73 0 LINE"
);
},
{
closed = 1;
nodes = (
"694 0 LINE",
"694 708 LINE",
"474 708 LINE",
"453 648 LINE",
"474 548 LINE",
"474 0 LINE"
);
}
);
width = 754;
},
{
anchors = (
{
name = caret_1;
position = "{317, 0}";
}
);
layerId = "CA5CD7F6-F0E6-40F5-9716-481B35A0BC32";
paths = (
{
closed = 1;
nodes = (
"213 0 LINE",
"223 61 LINE",
"213 162 LINE",
"213 382 LINE",
"353 382 LINE",
"353 472 LINE",
"213 472 LINE",
"204 483 OFFCURVE",
"192 523 OFFCURVE",
"192 556 CURVE SMOOTH",
"192 607 OFFCURVE",
"213 645 OFFCURVE",
"258 645 CURVE",
"473 605 LINE",
"473 692 LINE",
"343 745 LINE",
"312 753 OFFCURVE",
"266 756 OFFCURVE",
"229 756 CURVE SMOOTH",
"110 756 OFFCURVE",
"63 677 OFFCURVE",
"63 564 CURVE SMOOTH",
"63 540 OFFCURVE",
"66 495 OFFCURVE",
"73 472 CURVE",
"20 424 LINE",
"73 354 LINE",
"73 0 LINE"
);
},
{
closed = 1;
nodes = (
"574 0 LINE",
"574 708 LINE",
"434 708 LINE",
"413 648 LINE",
"434 548 LINE",
"434 0 LINE"
);
}
);
width = 634;
}
);
leftMetricsKey = f;
rightMetricsKey = l;
unicode = FB02;
},
{
color = 3;
glyphname = ordfeminine;
layers = (
{
anchors = (
{
name = bottom;
position = "{169, 330}";
},
{
name = ogonek;
position = "{257.5, 334.5}";
},
{
name = top;
position = "{164, 566.5}";
}
);
layerId = "083550D2-F2E8-44E3-BE3D-E8BDF41EDFC4";
paths = (
{
closed = 1;
nodes = (
"156 475 OFFCURVE",
"182 499 OFFCURVE",
"190 507 CURVE",
"195 504 LINE",
"195 480 LINE",
"281 480 LINE",
"291 509 LINE",
"281 560 LINE",
"281 626 LINE SMOOTH",
"281 685 OFFCURVE",
"250 721 OFFCURVE",
"160 721 CURVE SMOOTH",
"104 721 OFFCURVE",
"66 713 OFFCURVE",
"45 706 CURVE",
"45 631 LINE",
"62 640 OFFCURVE",
"111 651 OFFCURVE",
"148 651 CURVE SMOOTH",
"186 651 OFFCURVE",
"190 636 OFFCURVE",
"190 606 CURVE",
"187 603 LINE",
"174 611 OFFCURVE",
"160 620 OFFCURVE",
"125 620 CURVE SMOOTH",
"71 620 OFFCURVE",
"30 596 OFFCURVE",
"30 546 CURVE SMOOTH",
"30 491 OFFCURVE",
"67 475 OFFCURVE",
"110 475 CURVE SMOOTH"
);
},
{
closed = 1;
nodes = (
"132 541 OFFCURVE",
"125 546 OFFCURVE",
"125 557 CURVE SMOOTH",
"125 570 OFFCURVE",
"135 576 OFFCURVE",
"152 576 CURVE SMOOTH",
"178 576 OFFCURVE",
"190 566 OFFCURVE",
"190 557 CURVE SMOOTH",
"190 548 LINE",
"184 545 OFFCURVE",
"171 541 OFFCURVE",
"153 541 CURVE SMOOTH"
);
}
);
width = 331;
},
{
anchors = (
{
name = bottom;
position = "{164, 330}";
},
{
name = ogonek;
position = "{246, 335}";
},
{
name = top;
position = "{165, 569.5}";
}
);
layerId = "1A280FA7-9E72-4FC3-84C1-49B7BD56B269";
paths = (
{
closed = 1;
nodes = (
"143 475 OFFCURVE",
"170 491 OFFCURVE",
"180 507 CURVE",
"185 504 LINE",
"185 480 LINE",
"291 480 LINE",
"301 509 LINE",
"291 560 LINE",
"291 626 LINE SMOOTH",
"291 685 OFFCURVE",
"259 721 OFFCURVE",
"165 721 CURVE SMOOTH",
"109 721 OFFCURVE",
"61 710 OFFCURVE",
"45 706 CURVE",
"45 616 LINE",
"69 628 OFFCURVE",
"111 641 OFFCURVE",
"148 641 CURVE SMOOTH",
"176 641 OFFCURVE",
"180 631 OFFCURVE",
"180 610 CURVE",
"177 608 LINE",
"167 613 OFFCURVE",
"150 620 OFFCURVE",
"120 620 CURVE SMOOTH",
"65 620 OFFCURVE",
"30 595 OFFCURVE",
"30 546 CURVE SMOOTH",
"30 493 OFFCURVE",
"61 475 OFFCURVE",
"105 475 CURVE SMOOTH"
);
},
{
closed = 1;
nodes = (
"148 541 OFFCURVE",
"140 546 OFFCURVE",
"140 557 CURVE SMOOTH",
"140 571 OFFCURVE",
"152 576 OFFCURVE",
"162 576 CURVE SMOOTH",
"174 576 OFFCURVE",
"180 567 OFFCURVE",
"180 557 CURVE SMOOTH",
"180 546 LINE",
"179 545 OFFCURVE",
"172 541 OFFCURVE",
"162 541 CURVE SMOOTH"
);
}
);
width = 341;
},
{
associatedMasterId = "083550D2-F2E8-44E3-BE3D-E8BDF41EDFC4";
layerId = "0AAF2CB4-2EBD-42C4-BAB4-4CEC92C737FB";
width = 600;
},
{
anchors = (
{
name = bottom;
position = "{149, 330}";
},
{
name = ogonek;
position = "{257, 335}";
},
{
name = top;
position = "{149, 564}";
}
);
layerId = "CA5CD7F6-F0E6-40F5-9716-481B35A0BC32";
paths = (
{
closed = 1;
nodes = (
"158 475 OFFCURVE",
"182 496 OFFCURVE",
"190 507 CURVE",
"195 504 LINE",
"195 480 LINE",
"261 480 LINE",
"271 509 LINE",
"261 560 LINE",
"261 626 LINE SMOOTH",
"261 671 OFFCURVE",
"243 721 OFFCURVE",
"160 721 CURVE SMOOTH",
"112 721 OFFCURVE",
"66 713 OFFCURVE",
"45 706 CURVE",
"45 651 LINE",
"66 657 OFFCURVE",
"103 666 OFFCURVE",
"148 666 CURVE SMOOTH",
"186 666 OFFCURVE",
"190 646 OFFCURVE",
"190 616 CURVE",
"187 613 LINE",
"180 616 OFFCURVE",
"160 625 OFFCURVE",
"120 625 CURVE SMOOTH",
"66 625 OFFCURVE",
"30 598 OFFCURVE",
"30 546 CURVE SMOOTH",
"30 497 OFFCURVE",
"66 475 OFFCURVE",
"110 475 CURVE SMOOTH"
);
},
{
closed = 1;
nodes = (
"117 531 OFFCURVE",
"105 538 OFFCURVE",
"105 554 CURVE SMOOTH",
"105 570 OFFCURVE",
"117 581 OFFCURVE",
"142 581 CURVE SMOOTH",
"176 581 OFFCURVE",
"190 565 OFFCURVE",
"190 552 CURVE SMOOTH",
"190 543 LINE",
"182 537 OFFCURVE",
"166 531 OFFCURVE",
"138 531 CURVE SMOOTH"
);
}
);
width = 311;
},
{
associatedMasterId = "CA5CD7F6-F0E6-40F5-9716-481B35A0BC32";
layerId = "53D69DC0-AC8F-45AF-BFB5-D8DB1C6E57BF";
width = 600;
}
);
leftMetricsKey = a;
rightMetricsKey = a;
unicode = 00AA;
},
{
color = 3;
glyphname = ordmasculine;
layers = (
{
anchors = (
{
name = bottom;
position = "{158.5, 325}";
},
{
name = center;
position = "{158, 448}";
},
{
name = ogonek;
position = "{206.5, 335}";
},
{
name = top;
position = "{159, 570.5}";
},
{
name = topright;
position = "{298, 529}";
}
);
layerId = "083550D2-F2E8-44E3-BE3D-E8BDF41EDFC4";
paths = (
{
closed = 1;
nodes = (
"242 475 OFFCURVE",
"285 511 OFFCURVE",
"285 598 CURVE SMOOTH",
"285 685 OFFCURVE",
"242 721 OFFCURVE",
"158 721 CURVE SMOOTH",
"77 721 OFFCURVE",
"30 685 OFFCURVE",
"30 598 CURVE SMOOTH",
"30 511 OFFCURVE",
"77 475 OFFCURVE",
"158 475 CURVE SMOOTH"
);
},
{
closed = 1;
nodes = (
"130 540 OFFCURVE",
"121 561 OFFCURVE",
"121 598 CURVE SMOOTH",
"121 635 OFFCURVE",
"130 656 OFFCURVE",
"158 656 CURVE SMOOTH",
"185 656 OFFCURVE",
"195 635 OFFCURVE",
"195 598 CURVE SMOOTH",
"195 561 OFFCURVE",
"185 540 OFFCURVE",
"158 540 CURVE SMOOTH"
);
}
);
width = 315;
},
{
anchors = (
{
name = bottom;
position = "{164, 325}";
},
{
name = center;
position = "{159, 447}";
},
{
name = ogonek;
position = "{201.5, 335}";
},
{
name = top;
position = "{163, 570}";
},
{
name = topright;
position = "{298, 519}";
}
);
layerId = "1A280FA7-9E72-4FC3-84C1-49B7BD56B269";
paths = (
{
closed = 1;
nodes = (
"247 475 OFFCURVE",
"295 511 OFFCURVE",
"295 598 CURVE SMOOTH",
"295 685 OFFCURVE",
"247 721 OFFCURVE",
"163 721 CURVE SMOOTH",
"82 721 OFFCURVE",
"30 685 OFFCURVE",
"30 598 CURVE SMOOTH",
"30 511 OFFCURVE",
"82 475 OFFCURVE",
"163 475 CURVE SMOOTH"
);
},
{
closed = 1;
nodes = (
"151 555 OFFCURVE",
"141 561 OFFCURVE",
"141 598 CURVE SMOOTH",
"141 635 OFFCURVE",
"150 641 OFFCURVE",
"163 641 CURVE SMOOTH",
"176 641 OFFCURVE",
"185 635 OFFCURVE",
"185 598 CURVE SMOOTH",
"185 561 OFFCURVE",
"176 555 OFFCURVE",
"163 555 CURVE SMOOTH"
);
}
);
width = 325;
},
{
associatedMasterId = "083550D2-F2E8-44E3-BE3D-E8BDF41EDFC4";
layerId = "0AAF2CB4-2EBD-42C4-BAB4-4CEC92C737FB";
width = 600;
},
{
anchors = (
{
name = bottom;
position = "{148.5, 325}";
},
{
name = center;
position = "{139, 448}";
},
{
name = ogonek;
position = "{201.5, 340}";
},
{
name = top;
position = "{148, 569}";
},
{
name = topright;
position = "{258, 519}";
}
);
layerId = "CA5CD7F6-F0E6-40F5-9716-481B35A0BC32";
paths = (
{
closed = 1;
nodes = (
"232 475 OFFCURVE",
"266 519 OFFCURVE",
"266 598 CURVE SMOOTH",
"266 677 OFFCURVE",
"232 721 OFFCURVE",
"148 721 CURVE SMOOTH",
"67 721 OFFCURVE",
"30 677 OFFCURVE",
"30 598 CURVE SMOOTH",
"30 519 OFFCURVE",
"67 475 OFFCURVE",
"148 475 CURVE SMOOTH"
);
},
{
closed = 1;
nodes = (
"121 525 OFFCURVE",
"101 544 OFFCURVE",
"101 598 CURVE SMOOTH",
"101 653 OFFCURVE",
"120 671 OFFCURVE",
"148 671 CURVE SMOOTH",
"176 671 OFFCURVE",
"195 653 OFFCURVE",
"195 598 CURVE SMOOTH",
"195 544 OFFCURVE",
"175 525 OFFCURVE",
"148 525 CURVE SMOOTH"
);
}
);
width = 296;
},
{
associatedMasterId = "CA5CD7F6-F0E6-40F5-9716-481B35A0BC32";
layerId = "ACE0AA75-F0D4-4B91-9137-ED7AE2DB7C36";
width = 600;
}
);
leftMetricsKey = o;
rightMetricsKey = o;
unicode = 00BA;
},
{
color = 1;
glyphname = Delta;
layers = (
{
layerId = "083550D2-F2E8-44E3-BE3D-E8BDF41EDFC4";
paths = (
{
closed = 1;
nodes = (
"729 0 LINE",
"408 755 LINE",
"335 755 LINE",
"10 0 LINE"
);
},
{
closed = 1;
nodes = (
"370 479 LINE",
"372 479 LINE",
"499 159 LINE",
"241 159 LINE"
);
}
);
width = 739;
},
{
layerId = "1A280FA7-9E72-4FC3-84C1-49B7BD56B269";
paths = (
{
closed = 1;
nodes = (
"809 0 LINE",
"448 755 LINE",
"375 755 LINE",
"10 0 LINE"
);
},
{
closed = 1;
nodes = (
"410 449 LINE",
"412 449 LINE",
"519 189 LINE",
"301 189 LINE"
);
}
);
width = 819;
},
{
layerId = "CA5CD7F6-F0E6-40F5-9716-481B35A0BC32";
paths = (
{
closed = 1;
nodes = (
"729 0 LINE",
"408 755 LINE",
"335 755 LINE",
"10 0 LINE"
);
},
{
closed = 1;
nodes = (
"370 519 LINE",
"372 519 LINE",
"529 129 LINE",
"211 129 LINE"
);
}
);
width = 739;
}
);
leftMetricsKey = A;
rightMetricsKey = A;
unicode = 0394;
},
{
color = 1;
glyphname = Omega;
layers = (
{
layerId = "083550D2-F2E8-44E3-BE3D-E8BDF41EDFC4";
paths = (
{
closed = 1;
nodes = (
"388 0 LINE",
"418 117 LINE",
"367 144 OFFCURVE",
"293 227 OFFCURVE",
"293 373 CURVE SMOOTH",
"293 477 OFFCURVE",
"330 548 OFFCURVE",
"442 548 CURVE SMOOTH",
"553 548 OFFCURVE",
"585 480 OFFCURVE",
"585 373 CURVE SMOOTH",
"585 224 OFFCURVE",
"522 150 OFFCURVE",
"463 117 CURVE",
"493 0 LINE",
"790 0 LINE",
"830 170 LINE",
"730 160 LINE",
"670 160 LINE",
"667 171 LINE",
"714 198 OFFCURVE",
"777 273 OFFCURVE",
"777 423 CURVE SMOOTH",
"777 605 OFFCURVE",
"671 718 OFFCURVE",
"442 718 CURVE SMOOTH",
"212 718 OFFCURVE",
"101 604 OFFCURVE",
"101 423 CURVE SMOOTH",
"101 274 OFFCURVE",
"172 200 OFFCURVE",
"212 171 CURVE",
"209 160 LINE",
"151 160 LINE",
"50 170 LINE",
"91 0 LINE"
);
}
);
width = 880;
},
{
layerId = "1A280FA7-9E72-4FC3-84C1-49B7BD56B269";
paths = (
{
closed = 1;
nodes = (
"408 0 LINE",
"438 148 LINE",
"387 175 OFFCURVE",
"333 272 OFFCURVE",
"333 373 CURVE SMOOTH",
"333 427 OFFCURVE",
"350 518 OFFCURVE",
"462 518 CURVE SMOOTH",
"573 518 OFFCURVE",
"585 430 OFFCURVE",
"585 373 CURVE SMOOTH",
"585 269 OFFCURVE",
"542 181 OFFCURVE",
"483 148 CURVE",
"513 0 LINE",
"830 0 LINE",
"870 200 LINE",
"770 190 LINE",
"710 190 LINE",
"707 201 LINE",
"754 228 OFFCURVE",
"817 300 OFFCURVE",
"817 423 CURVE SMOOTH",
"817 605 OFFCURVE",
"691 718 OFFCURVE",
"462 718 CURVE SMOOTH",
"232 718 OFFCURVE",
"101 604 OFFCURVE",
"101 423 CURVE SMOOTH",
"101 301 OFFCURVE",
"172 230 OFFCURVE",
"212 201 CURVE",
"209 190 LINE",
"151 190 LINE",
"50 200 LINE",
"91 0 LINE"
);
}
);
width = 920;
},
{
layerId = "CA5CD7F6-F0E6-40F5-9716-481B35A0BC32";
paths = (
{
closed = 1;
nodes = (
"388 0 LINE",
"418 85 LINE",
"367 112 OFFCURVE",
"273 227 OFFCURVE",
"273 373 CURVE SMOOTH",
"273 504 OFFCURVE",
"330 578 OFFCURVE",
"442 578 CURVE SMOOTH",
"553 578 OFFCURVE",
"605 507 OFFCURVE",
"605 373 CURVE SMOOTH",
"605 224 OFFCURVE",
"522 118 OFFCURVE",
"463 85 CURVE",
"493 0 LINE",
"790 0 LINE",
"830 140 LINE",
"710 130 LINE",
"650 130 LINE",
"647 141 LINE",
"683 162 OFFCURVE",
"757 252 OFFCURVE",
"757 423 CURVE SMOOTH",
"757 568 OFFCURVE",
"671 718 OFFCURVE",
"442 718 CURVE SMOOTH",
"212 718 OFFCURVE",
"121 567 OFFCURVE",
"121 423 CURVE SMOOTH",
"121 243 OFFCURVE",
"203 162 OFFCURVE",
"232 141 CURVE",
"229 130 LINE",
"171 130 LINE",
"50 140 LINE",
"91 0 LINE"
);
}
);
width = 880;
}
);
unicode = 03A9;
},
{
color = 1;
glyphname = mu;
layers = (
{
components = (
{
name = u;
transform = "{1, 0, 0, 1, 0, 3}";
}
);
layerId = "083550D2-F2E8-44E3-BE3D-E8BDF41EDFC4";
paths = (
{
closed = 1;
nodes = (
"181 -200 LINE",
"201 -140 LINE",
"171 193 LINE",
"40 193 LINE",
"40 -200 LINE"
);
}
);
width = 591;
},
{
components = (
{
name = u;
}
);
layerId = "1A280FA7-9E72-4FC3-84C1-49B7BD56B269";
paths = (
{
closed = 1;
nodes = (
"223 -200 LINE",
"243 -140 LINE",
"173 193 LINE",
"40 193 LINE",
"40 -200 LINE"
);
}
);
width = 611;
},
{
components = (
{
name = u;
}
);
layerId = "CA5CD7F6-F0E6-40F5-9716-481B35A0BC32";
paths = (
{
closed = 1;
nodes = (
"139 -200 LINE",
"159 -140 LINE",
"131 193 LINE",
"40 193 LINE",
"40 -200 LINE"
);
}
);
width = 551;
}
);
leftMetricsKey = u;
rightMetricsKey = u;
unicode = 03BC;
},
{
color = 1;
glyphname = pi;
layers = (
{
layerId = "083550D2-F2E8-44E3-BE3D-E8BDF41EDFC4";
paths = (
{
closed = 1;
nodes = (
"289 0 LINE",
"289 546 LINE",
"465 546 LINE",
"464 140 LINE SMOOTH",
"464 44 OFFCURVE",
"506 0 OFFCURVE",
"595 0 CURVE SMOOTH",
"687 0 LINE",
"727 130 LINE",
"645 160 LINE",
"645 585 LINE",
"665 706 LINE",
"50 706 LINE",
"50 546 LINE",
"110 546 LINE",
"110 0 LINE"
);
}
);
width = 777;
},
{
layerId = "1A280FA7-9E72-4FC3-84C1-49B7BD56B269";
paths = (
{
closed = 1;
nodes = (
"330 0 LINE",
"330 516 LINE",
"486 516 LINE",
"485 140 LINE SMOOTH",
"485 44 OFFCURVE",
"527 0 OFFCURVE",
"616 0 CURVE SMOOTH",
"728 0 LINE",
"768 160 LINE",
"686 190 LINE",
"686 585 LINE",
"706 706 LINE",
"50 706 LINE",
"50 516 LINE",
"110 516 LINE",
"110 0 LINE"
);
}
);
width = 818;
},
{
layerId = "CA5CD7F6-F0E6-40F5-9716-481B35A0BC32";
paths = (
{
closed = 1;
nodes = (
"249 0 LINE",
"249 576 LINE",
"465 576 LINE",
"464 140 LINE SMOOTH",
"464 44 OFFCURVE",
"506 0 OFFCURVE",
"595 0 CURVE SMOOTH",
"647 0 LINE",
"687 100 LINE",
"605 130 LINE",
"605 585 LINE",
"625 706 LINE",
"50 706 LINE",
"50 576 LINE",
"110 576 LINE",
"110 0 LINE"
);
}
);
width = 737;
}
);
unicode = 03C0;
},
{
color = 1;
glyphname = zero;
layers = (
{
anchors = (
{
name = center;
position = "{338, 347}";
}
);
layerId = "083550D2-F2E8-44E3-BE3D-E8BDF41EDFC4";
paths = (
{
closed = 1;
nodes = (
"509 -10 OFFCURVE",
"636 87 OFFCURVE",
"636 354 CURVE SMOOTH",
"636 619 OFFCURVE",
"509 718 OFFCURVE",
"338 718 CURVE SMOOTH",
"168 718 OFFCURVE",
"40 621 OFFCURVE",
"40 354 CURVE SMOOTH",
"40 85 OFFCURVE",
"168 -10 OFFCURVE",
"338 -10 CURVE SMOOTH"
);
},
{
closed = 1;
nodes = (
"267 164 OFFCURVE",
"229 215 OFFCURVE",
"229 354 CURVE SMOOTH",
"229 493 OFFCURVE",
"267 544 OFFCURVE",
"338 544 CURVE SMOOTH",
"410 544 OFFCURVE",
"447 495 OFFCURVE",
"447 354 CURVE SMOOTH",
"447 213 OFFCURVE",
"410 164 OFFCURVE",
"338 164 CURVE SMOOTH"
);
}
);
width = 676;
},
{
anchors = (
{
name = center;
position = "{353, 351}";
}
);
layerId = "1A280FA7-9E72-4FC3-84C1-49B7BD56B269";
paths = (
{
closed = 1;
nodes = (
"519 -10 OFFCURVE",
"656 87 OFFCURVE",
"656 354 CURVE SMOOTH",
"656 619 OFFCURVE",
"519 718 OFFCURVE",
"349 718 CURVE SMOOTH",
"179 718 OFFCURVE",
"40 621 OFFCURVE",
"40 354 CURVE SMOOTH",
"40 85 OFFCURVE",
"179 -10 OFFCURVE",
"349 -10 CURVE SMOOTH"
);
},
{
closed = 1;
nodes = (
"291 205 OFFCURVE",
"269 242 OFFCURVE",
"269 354 CURVE SMOOTH",
"269 464 OFFCURVE",
"291 503 OFFCURVE",
"349 503 CURVE SMOOTH",
"407 503 OFFCURVE",
"427 466 OFFCURVE",
"427 354 CURVE SMOOTH",
"427 240 OFFCURVE",
"407 205 OFFCURVE",
"349 205 CURVE SMOOTH"
);
}
);
width = 696;
},
{
associatedMasterId = "083550D2-F2E8-44E3-BE3D-E8BDF41EDFC4";
layerId = "0AAF2CB4-2EBD-42C4-BAB4-4CEC92C737FB";
width = 600;
},
{
anchors = (
{
name = center;
position = "{318, 347}";
}
);
layerId = "CA5CD7F6-F0E6-40F5-9716-481B35A0BC32";
paths = (
{
closed = 1;
nodes = (
"489 -10 OFFCURVE",
"596 87 OFFCURVE",
"596 354 CURVE SMOOTH",
"596 609 OFFCURVE",
"489 718 OFFCURVE",
"318 718 CURVE SMOOTH",
"148 718 OFFCURVE",
"40 611 OFFCURVE",
"40 354 CURVE SMOOTH",
"40 85 OFFCURVE",
"148 -10 OFFCURVE",
"318 -10 CURVE SMOOTH"
);
},
{
closed = 1;
nodes = (
"228 134 OFFCURVE",
"189 194 OFFCURVE",
"189 354 CURVE SMOOTH",
"189 504 OFFCURVE",
"228 574 OFFCURVE",
"318 574 CURVE SMOOTH",
"410 574 OFFCURVE",
"447 506 OFFCURVE",
"447 354 CURVE SMOOTH",
"447 192 OFFCURVE",
"410 134 OFFCURVE",
"318 134 CURVE SMOOTH"
);
}
);
width = 636;
},
{
associatedMasterId = "CA5CD7F6-F0E6-40F5-9716-481B35A0BC32";
layerId = "99FB8DF9-39FF-4204-A798-4B74CC33477F";
width = 600;
}
);
unicode = 0030;
},
{
color = 1;
glyphname = one;
layers = (
{
layerId = "083550D2-F2E8-44E3-BE3D-E8BDF41EDFC4";
paths = (
{
closed = 1;
nodes = (
"334 0 LINE",
"334 548 LINE",
"344 648 LINE",
"334 708 LINE",
"30 668 LINE",
"30 509 LINE",
"150 509 LINE",
"150 0 LINE"
);
}
);
width = 404;
},
{
layerId = "1A280FA7-9E72-4FC3-84C1-49B7BD56B269";
paths = (
{
closed = 1;
nodes = (
"374 0 LINE",
"374 548 LINE",
"384 648 LINE",
"374 708 LINE",
"30 668 LINE",
"30 479 LINE",
"150 479 LINE",
"150 0 LINE"
);
}
);
width = 444;
},
{
associatedMasterId = "083550D2-F2E8-44E3-BE3D-E8BDF41EDFC4";
layerId = "0AAF2CB4-2EBD-42C4-BAB4-4CEC92C737FB";
width = 600;
},
{
layerId = "CA5CD7F6-F0E6-40F5-9716-481B35A0BC32";
paths = (
{
closed = 1;
nodes = (
"294 0 LINE",
"294 548 LINE",
"304 648 LINE",
"294 708 LINE",
"30 648 LINE",
"30 539 LINE",
"150 539 LINE",
"150 0 LINE"
);
}
);
width = 364;
},
{
associatedMasterId = "CA5CD7F6-F0E6-40F5-9716-481B35A0BC32";
layerId = "FE024CEE-45F2-46F5-BEA4-BC847D484EF5";
width = 600;
}
);
unicode = 0031;
},
{
color = 1;
glyphname = two;
layers = (
{
layerId = "083550D2-F2E8-44E3-BE3D-E8BDF41EDFC4";
paths = (
{
closed = 1;
nodes = (
"570 0 LINE",
"570 180 LINE",
"302 160 LINE",
"297 180 LINE",
"371 216 OFFCURVE",
"570 307 OFFCURVE",
"570 496 CURVE SMOOTH",
"570 643 OFFCURVE",
"493 715 OFFCURVE",
"320 715 CURVE SMOOTH",
"197 715 OFFCURVE",
"110 680 OFFCURVE",
"71 659 CURVE",
"71 489 LINE",
"111 509 OFFCURVE",
"205 548 OFFCURVE",
"289 548 CURVE SMOOTH",
"345 548 OFFCURVE",
"374 526 OFFCURVE",
"374 484 CURVE SMOOTH",
"374 406 OFFCURVE",
"328 363 OFFCURVE",
"239 285 CURVE SMOOTH",
"155 211 OFFCURVE",
"40 119 OFFCURVE",
"40 119 CURVE",
"40 0 LINE"
);
}
);
width = 610;
},
{
layerId = "1A280FA7-9E72-4FC3-84C1-49B7BD56B269";
paths = (
{
closed = 1;
nodes = (
"610 0 LINE",
"610 210 LINE",
"322 190 LINE",
"317 210 LINE",
"414 246 OFFCURVE",
"610 328 OFFCURVE",
"610 506 CURVE SMOOTH",
"610 647 OFFCURVE",
"523 715 OFFCURVE",
"350 715 CURVE SMOOTH",
"214 715 OFFCURVE",
"94 684 OFFCURVE",
"61 659 CURVE",
"61 459 LINE",
"111 484 OFFCURVE",
"214 518 OFFCURVE",
"299 518 CURVE SMOOTH",
"347 518 OFFCURVE",
"374 506 OFFCURVE",
"374 464 CURVE SMOOTH",
"374 404 OFFCURVE",
"335 361 OFFCURVE",
"227 280 CURVE SMOOTH",
"125 203 OFFCURVE",
"40 149 OFFCURVE",
"40 149 CURVE",
"40 0 LINE"
);
}
);
width = 650;
},
{
associatedMasterId = "083550D2-F2E8-44E3-BE3D-E8BDF41EDFC4";
layerId = "0AAF2CB4-2EBD-42C4-BAB4-4CEC92C737FB";
width = 600;
},
{
layerId = "CA5CD7F6-F0E6-40F5-9716-481B35A0BC32";
paths = (
{
closed = 1;
nodes = (
"545 0 LINE",
"545 150 LINE",
"277 130 LINE",
"272 150 LINE",
"389 225 OFFCURVE",
"545 341 OFFCURVE",
"545 506 CURVE SMOOTH",
"545 639 OFFCURVE",
"464 715 OFFCURVE",
"295 715 CURVE SMOOTH",
"159 715 OFFCURVE",
"76 669 OFFCURVE",
"56 659 CURVE",
"56 519 LINE",
"107 547 OFFCURVE",
"199 578 OFFCURVE",
"284 578 CURVE SMOOTH",
"359 578 OFFCURVE",
"389 546 OFFCURVE",
"389 494 CURVE SMOOTH",
"389 416 OFFCURVE",
"346 360 OFFCURVE",
"260 279 CURVE SMOOTH",
"179 202 OFFCURVE",
"35 89 OFFCURVE",
"35 89 CURVE",
"35 0 LINE"
);
}
);
width = 585;
},
{
associatedMasterId = "CA5CD7F6-F0E6-40F5-9716-481B35A0BC32";
layerId = "A22EC614-DF3E-4F1F-B3F1-755E2931D2C7";
width = 600;
}
);
unicode = 0032;
},
{
color = 1;
glyphname = three;
layers = (
{
layerId = "083550D2-F2E8-44E3-BE3D-E8BDF41EDFC4";
paths = (
{
closed = 1;
nodes = (
"487 -10 OFFCURVE",
"589 69 OFFCURVE",
"589 229 CURVE SMOOTH",
"589 317 OFFCURVE",
"546 364 OFFCURVE",
"490 389 CURVE",
"523 415 OFFCURVE",
"558 459 OFFCURVE",
"558 528 CURVE SMOOTH",
"558 648 OFFCURVE",
"479 717 OFFCURVE",
"328 717 CURVE SMOOTH",
"205 717 OFFCURVE",
"110 681 OFFCURVE",
"70 661 CURVE",
"70 491 LINE",
"115 511 OFFCURVE",
"206 548 OFFCURVE",
"307 548 CURVE SMOOTH",
"354 548 OFFCURVE",
"380 533 OFFCURVE",
"380 491 CURVE SMOOTH",
"380 457 OFFCURVE",
"350 438 OFFCURVE",
"305 438 CURVE SMOOTH",
"193 438 LINE",
"193 277 LINE",
"317 277 LINE SMOOTH",
"377 277 OFFCURVE",
"400 264 OFFCURVE",
"400 228 CURVE SMOOTH",
"400 188 OFFCURVE",
"367 159 OFFCURVE",
"290 159 CURVE",
"90 214 LINE",
"40 55 LINE",
"166 -2 LINE",
"199 -7 OFFCURVE",
"237 -10 OFFCURVE",
"280 -10 CURVE SMOOTH"
);
}
);
width = 629;
},
{
layerId = "1A280FA7-9E72-4FC3-84C1-49B7BD56B269";
paths = (
{
closed = 1;
nodes = (
"527 -10 OFFCURVE",
"629 69 OFFCURVE",
"629 229 CURVE SMOOTH",
"629 317 OFFCURVE",
"586 364 OFFCURVE",
"530 389 CURVE",
"563 415 OFFCURVE",
"598 459 OFFCURVE",
"598 528 CURVE SMOOTH",
"598 648 OFFCURVE",
"519 717 OFFCURVE",
"368 717 CURVE SMOOTH",
"232 717 OFFCURVE",
"152 692 OFFCURVE",
"80 661 CURVE",
"80 471 LINE",
"155 499 OFFCURVE",
"242 518 OFFCURVE",
"317 518 CURVE SMOOTH",
"358 518 OFFCURVE",
"380 511 OFFCURVE",
"380 485 CURVE SMOOTH",
"380 457 OFFCURVE",
"350 448 OFFCURVE",
"305 448 CURVE SMOOTH",
"193 448 LINE",
"193 266 LINE",
"317 267 LINE SMOOTH",
"377 267 OFFCURVE",
"400 261 OFFCURVE",
"400 233 CURVE SMOOTH",
"400 209 OFFCURVE",
"374 190 OFFCURVE",
"310 190 CURVE",
"100 234 LINE",
"40 55 LINE",
"186 -2 LINE",
"219 -7 OFFCURVE",
"277 -10 OFFCURVE",
"320 -10 CURVE SMOOTH"
);
}
);
width = 669;
},
{
associatedMasterId = "083550D2-F2E8-44E3-BE3D-E8BDF41EDFC4";
layerId = "0AAF2CB4-2EBD-42C4-BAB4-4CEC92C737FB";
width = 600;
},
{
layerId = "CA5CD7F6-F0E6-40F5-9716-481B35A0BC32";
paths = (
{
closed = 1;
nodes = (
"452 -10 OFFCURVE",
"559 77 OFFCURVE",
"559 229 CURVE SMOOTH",
"559 306 OFFCURVE",
"527 353 OFFCURVE",
"470 389 CURVE",
"503 415 OFFCURVE",
"528 459 OFFCURVE",
"528 528 CURVE SMOOTH",
"528 648 OFFCURVE",
"449 717 OFFCURVE",
"298 717 CURVE SMOOTH",
"179 717 OFFCURVE",
"109 686 OFFCURVE",
"70 661 CURVE",
"70 521 LINE",
"107 539 OFFCURVE",
"184 578 OFFCURVE",
"297 578 CURVE SMOOTH",
"357 578 OFFCURVE",
"390 555 OFFCURVE",
"390 511 CURVE SMOOTH",
"390 456 OFFCURVE",
"359 427 OFFCURVE",
"295 427 CURVE SMOOTH",
"193 427 LINE",
"193 298 LINE",
"320 298 LINE SMOOTH",
"377 298 OFFCURVE",
"400 270 OFFCURVE",
"400 228 CURVE SMOOTH",
"400 169 OFFCURVE",
"364 129 OFFCURVE",
"270 129 CURVE",
"80 183 LINE",
"40 44 LINE",
"176 -2 LINE",
"209 -7 OFFCURVE",
"247 -10 OFFCURVE",
"290 -10 CURVE SMOOTH"
);
}
);
width = 599;
},
{
associatedMasterId = "CA5CD7F6-F0E6-40F5-9716-481B35A0BC32";
layerId = "0D6448BF-1F86-48A1-BC6C-4F4AB4E43A84";
width = 600;
}
);
unicode = 0033;
},
{
color = 1;
glyphname = four;
layers = (
{
layerId = "083550D2-F2E8-44E3-BE3D-E8BDF41EDFC4";
paths = (
{
closed = 1;
nodes = (
"556 0 LINE",
"556 100 LINE",
"686 110 LINE",
"686 262 LINE",
"556 262 LINE",
"556 547 LINE",
"576 647 LINE",
"556 708 LINE",
"296 708 LINE",
"10 232 LINE",
"10 100 LINE",
"372 100 LINE",
"372 0 LINE"
);
},
{
closed = 1;
nodes = (
"354 510 LINE",
"372 510 LINE",
"372 262 LINE",
"224 262 LINE"
);
}
);
width = 696;
},
{
layerId = "1A280FA7-9E72-4FC3-84C1-49B7BD56B269";
paths = (
{
closed = 1;
nodes = (
"597 0 LINE",
"597 100 LINE",
"727 110 LINE",
"727 282 LINE",
"597 282 LINE",
"597 547 LINE",
"617 647 LINE",
"597 708 LINE",
"297 708 LINE",
"10 252 LINE",
"10 100 LINE",
"373 100 LINE",
"373 0 LINE"
);
},
{
closed = 1;
nodes = (
"355 460 LINE",
"373 460 LINE",
"373 282 LINE",
"265 282 LINE"
);
}
);
width = 737;
},
{
associatedMasterId = "083550D2-F2E8-44E3-BE3D-E8BDF41EDFC4";
layerId = "0AAF2CB4-2EBD-42C4-BAB4-4CEC92C737FB";
width = 600;
},
{
layerId = "CA5CD7F6-F0E6-40F5-9716-481B35A0BC32";
paths = (
{
closed = 1;
nodes = (
"535 0 LINE",
"535 100 LINE",
"665 110 LINE",
"665 232 LINE",
"535 232 LINE",
"535 547 LINE",
"555 647 LINE",
"535 708 LINE",
"335 708 LINE",
"10 202 LINE",
"10 100 LINE",
"391 100 LINE",
"391 0 LINE"
);
},
{
closed = 1;
nodes = (
"373 530 LINE",
"391 530 LINE",
"391 232 LINE",
"193 232 LINE"
);
}
);
width = 675;
},
{
associatedMasterId = "CA5CD7F6-F0E6-40F5-9716-481B35A0BC32";
layerId = "3C2B4969-48A4-48D0-8AEB-250E4F0A0915";
width = 600;
}
);
unicode = 0034;
},
{
color = 1;
glyphname = five;
layers = (
{
layerId = "083550D2-F2E8-44E3-BE3D-E8BDF41EDFC4";
paths = (
{
closed = 1;
nodes = (
"492 -10 OFFCURVE",
"605 78 OFFCURVE",
"605 233 CURVE SMOOTH",
"605 372 OFFCURVE",
"525 453 OFFCURVE",
"340 453 CURVE SMOOTH",
"273 453 LINE",
"273 549 LINE",
"315 549 LINE",
"565 539 LINE",
"565 708 LINE",
"80 708 LINE",
"80 306 LINE",
"308 306 LINE SMOOTH",
"382 306 OFFCURVE",
"409 281 OFFCURVE",
"409 237 CURVE SMOOTH",
"409 178 OFFCURVE",
"367 158 OFFCURVE",
"297 158 CURVE",
"90 223 LINE",
"40 44 LINE",
"186 -2 LINE",
"223 -7 OFFCURVE",
"266 -10 OFFCURVE",
"317 -10 CURVE SMOOTH"
);
}
);
width = 655;
},
{
layerId = "1A280FA7-9E72-4FC3-84C1-49B7BD56B269";
paths = (
{
closed = 1;
nodes = (
"539 -10 OFFCURVE",
"645 85 OFFCURVE",
"645 243 CURVE SMOOTH",
"645 392 OFFCURVE",
"565 473 OFFCURVE",
"380 473 CURVE SMOOTH",
"313 473 LINE",
"313 549 LINE",
"355 549 LINE",
"605 539 LINE",
"605 708 LINE",
"80 708 LINE",
"80 306 LINE",
"308 306 LINE SMOOTH",
"382 306 OFFCURVE",
"409 280 OFFCURVE",
"409 252 CURVE SMOOTH",
"409 210 OFFCURVE",
"381 188 OFFCURVE",
"317 188 CURVE",
"90 243 LINE",
"40 54 LINE",
"206 -2 LINE",
"243 -7 OFFCURVE",
"286 -10 OFFCURVE",
"337 -10 CURVE SMOOTH"
);
}
);
width = 695;
},
{
associatedMasterId = "083550D2-F2E8-44E3-BE3D-E8BDF41EDFC4";
layerId = "0AAF2CB4-2EBD-42C4-BAB4-4CEC92C737FB";
width = 600;
},
{
layerId = "CA5CD7F6-F0E6-40F5-9716-481B35A0BC32";
paths = (
{
closed = 1;
nodes = (
"457 -10 OFFCURVE",
"555 91 OFFCURVE",
"555 233 CURVE SMOOTH",
"555 372 OFFCURVE",
"475 443 OFFCURVE",
"290 443 CURVE SMOOTH",
"223 443 LINE",
"223 579 LINE",
"265 579 LINE",
"515 569 LINE",
"515 708 LINE",
"70 708 LINE",
"70 326 LINE",
"278 326 LINE SMOOTH",
"373 326 OFFCURVE",
"399 287 OFFCURVE",
"399 227 CURVE SMOOTH",
"399 163 OFFCURVE",
"349 128 OFFCURVE",
"257 128 CURVE",
"80 183 LINE",
"40 44 LINE",
"166 -2 LINE",
"203 -7 OFFCURVE",
"236 -10 OFFCURVE",
"287 -10 CURVE SMOOTH"
);
}
);
width = 605;
},
{
associatedMasterId = "CA5CD7F6-F0E6-40F5-9716-481B35A0BC32";
layerId = "A53D4352-E621-4BE9-9653-B6EC0B126095";
width = 600;
}
);
unicode = 0035;
},
{
color = 1;
glyphname = six;
layers = (
{
layerId = "083550D2-F2E8-44E3-BE3D-E8BDF41EDFC4";
paths = (
{
closed = 1;
nodes = (
"551 -10 OFFCURVE",
"647 80 OFFCURVE",
"647 217 CURVE SMOOTH",
"647 385 OFFCURVE",
"524 435 OFFCURVE",
"382 435 CURVE",
"234 405 LINE",
"234 497 OFFCURVE",
"301 549 OFFCURVE",
"389 549 CURVE",
"550 466 LINE",
"640 611 LINE",
"549 692 LINE",
"519 705 OFFCURVE",
"447 718 OFFCURVE",
"379 718 CURVE SMOOTH",
"208 718 OFFCURVE",
"40 629 OFFCURVE",
"40 333 CURVE SMOOTH",
"40 95 OFFCURVE",
"168 -10 OFFCURVE",
"362 -10 CURVE SMOOTH"
);
},
{
closed = 1;
nodes = (
"296 162 OFFCURVE",
"260 201 OFFCURVE",
"249 250 CURVE",
"263 267 OFFCURVE",
"305 300 OFFCURVE",
"363 300 CURVE SMOOTH",
"428 300 OFFCURVE",
"458 262 OFFCURVE",
"458 223 CURVE SMOOTH",
"458 186 OFFCURVE",
"422 162 OFFCURVE",
"361 162 CURVE SMOOTH"
);
}
);
width = 687;
},
{
layerId = "1A280FA7-9E72-4FC3-84C1-49B7BD56B269";
paths = (
{
closed = 1;
nodes = (
"561 -10 OFFCURVE",
"678 80 OFFCURVE",
"678 217 CURVE SMOOTH",
"678 385 OFFCURVE",
"534 435 OFFCURVE",
"392 435 CURVE",
"286 405 LINE",
"286 473 OFFCURVE",
"312 519 OFFCURVE",
"399 519 CURVE",
"591 456 LINE",
"671 611 LINE",
"580 692 LINE",
"550 705 OFFCURVE",
"457 718 OFFCURVE",
"389 718 CURVE SMOOTH",
"218 718 OFFCURVE",
"50 629 OFFCURVE",
"50 333 CURVE SMOOTH",
"50 95 OFFCURVE",
"178 -10 OFFCURVE",
"372 -10 CURVE SMOOTH"
);
},
{
closed = 1;
nodes = (
"326 192 OFFCURVE",
"292 228 OFFCURVE",
"291 280 CURVE",
"301 292 OFFCURVE",
"335 300 OFFCURVE",
"373 300 CURVE SMOOTH",
"427 300 OFFCURVE",
"448 274 OFFCURVE",
"448 243 CURVE SMOOTH",
"448 218 OFFCURVE",
"430 192 OFFCURVE",
"371 192 CURVE SMOOTH"
);
}
);
width = 728;
},
{
associatedMasterId = "083550D2-F2E8-44E3-BE3D-E8BDF41EDFC4";
layerId = "0AAF2CB4-2EBD-42C4-BAB4-4CEC92C737FB";
width = 600;
},
{
layerId = "CA5CD7F6-F0E6-40F5-9716-481B35A0BC32";
paths = (
{
closed = 1;
nodes = (
"510 -10 OFFCURVE",
"607 80 OFFCURVE",
"607 217 CURVE SMOOTH",
"607 370 OFFCURVE",
"491 434 OFFCURVE",
"352 434 CURVE",
"194 394 LINE",
"199 511 OFFCURVE",
"281 579 OFFCURVE",
"369 579 CURVE",
"520 496 LINE",
"590 610 LINE",
"499 692 LINE",
"469 705 OFFCURVE",
"437 718 OFFCURVE",
"369 718 CURVE SMOOTH",
"209 718 OFFCURVE",
"40 603 OFFCURVE",
"40 333 CURVE SMOOTH",
"40 101 OFFCURVE",
"175 -10 OFFCURVE",
"342 -10 CURVE SMOOTH"
);
},
{
closed = 1;
nodes = (
"253 131 OFFCURVE",
"211 208 OFFCURVE",
"207 273 CURVE",
"229 290 OFFCURVE",
"285 310 OFFCURVE",
"343 310 CURVE SMOOTH",
"411 310 OFFCURVE",
"458 279 OFFCURVE",
"458 223 CURVE SMOOTH",
"458 164 OFFCURVE",
"417 131 OFFCURVE",
"351 131 CURVE SMOOTH"
);
}
);
width = 647;
},
{
associatedMasterId = "CA5CD7F6-F0E6-40F5-9716-481B35A0BC32";
layerId = "FBB1107C-13D9-4E68-9053-B162E15C6671";
width = 600;
}
);
unicode = 0036;
},
{
color = 1;
glyphname = seven;
layers = (
{
layerId = "083550D2-F2E8-44E3-BE3D-E8BDF41EDFC4";
paths = (
{
closed = 1;
nodes = (
"339 0 LINE",
"389 160 LINE",
"554 587 LINE",
"554 708 LINE",
"30 708 LINE",
"30 529 LINE",
"320 549 LINE",
"350 549 LINE",
"297 444 LINE",
"130 0 LINE"
);
}
);
width = 584;
},
{
layerId = "1A280FA7-9E72-4FC3-84C1-49B7BD56B269";
paths = (
{
closed = 1;
nodes = (
"379 0 LINE",
"429 160 LINE",
"594 557 LINE",
"594 708 LINE",
"30 708 LINE",
"30 499 LINE",
"320 519 LINE",
"350 519 LINE",
"297 414 LINE",
"130 0 LINE"
);
}
);
width = 624;
},
{
associatedMasterId = "083550D2-F2E8-44E3-BE3D-E8BDF41EDFC4";
layerId = "0AAF2CB4-2EBD-42C4-BAB4-4CEC92C737FB";
width = 600;
},
{
layerId = "CA5CD7F6-F0E6-40F5-9716-481B35A0BC32";
paths = (
{
closed = 1;
nodes = (
"299 0 LINE",
"349 160 LINE",
"514 607 LINE",
"514 708 LINE",
"30 708 LINE",
"30 559 LINE",
"340 579 LINE",
"370 579 LINE",
"317 474 LINE",
"130 0 LINE"
);
}
);
width = 544;
},
{
associatedMasterId = "CA5CD7F6-F0E6-40F5-9716-481B35A0BC32";
layerId = "95D81C86-F34E-4542-A80A-E462E120C93C";
width = 600;
}
);
unicode = 0037;
},
{
color = 1;
glyphname = eight;
layers = (
{
layerId = "083550D2-F2E8-44E3-BE3D-E8BDF41EDFC4";
paths = (
{
closed = 1;
nodes = (
"487 -10 OFFCURVE",
"636 39 OFFCURVE",
"636 207 CURVE SMOOTH",
"636 294 OFFCURVE",
"603 344 OFFCURVE",
"547 372 CURVE",
"586 403 OFFCURVE",
"606 450 OFFCURVE",
"606 521 CURVE SMOOTH",
"606 647 OFFCURVE",
"509 718 OFFCURVE",
"338 718 CURVE SMOOTH",
"168 718 OFFCURVE",
"70 636 OFFCURVE",
"70 521 CURVE SMOOTH",
"70 457 OFFCURVE",
"90 405 OFFCURVE",
"138 370 CURVE",
"79 342 OFFCURVE",
"40 292 OFFCURVE",
"40 207 CURVE SMOOTH",
"40 38 OFFCURVE",
"194 -10 OFFCURVE",
"340 -10 CURVE SMOOTH"
);
},
{
closed = 1;
nodes = (
"268 160 OFFCURVE",
"235 189 OFFCURVE",
"235 231 CURVE SMOOTH",
"235 259 OFFCURVE",
"248 286 OFFCURVE",
"264 303 CURVE",
"346 297 OFFCURVE",
"447 279 OFFCURVE",
"447 219 CURVE SMOOTH",
"447 187 OFFCURVE",
"412 160 OFFCURVE",
"340 160 CURVE SMOOTH"
);
},
{
closed = 1;
nodes = (
"292 426 OFFCURVE",
"259 452 OFFCURVE",
"259 490 CURVE SMOOTH",
"259 528 OFFCURVE",
"292 548 OFFCURVE",
"340 548 CURVE SMOOTH",
"389 548 OFFCURVE",
"417 524 OFFCURVE",
"417 490 CURVE SMOOTH",
"417 456 OFFCURVE",
"389 426 OFFCURVE",
"340 426 CURVE SMOOTH"
);
}
);
width = 676;
},
{
layerId = "1A280FA7-9E72-4FC3-84C1-49B7BD56B269";
paths = (
{
closed = 1;
nodes = (
"527 -10 OFFCURVE",
"687 44 OFFCURVE",
"687 207 CURVE SMOOTH",
"687 294 OFFCURVE",
"657 333 OFFCURVE",
"598 372 CURVE",
"632 410 OFFCURVE",
"657 444 OFFCURVE",
"657 521 CURVE SMOOTH",
"657 647 OFFCURVE",
"548 718 OFFCURVE",
"378 718 CURVE SMOOTH",
"203 718 OFFCURVE",
"80 636 OFFCURVE",
"80 521 CURVE SMOOTH",
"80 457 OFFCURVE",
"100 405 OFFCURVE",
"148 370 CURVE",
"89 342 OFFCURVE",
"50 285 OFFCURVE",
"50 207 CURVE SMOOTH",
"50 38 OFFCURVE",
"233 -10 OFFCURVE",
"380 -10 CURVE SMOOTH"
);
},
{
closed = 1;
nodes = (
"298 190 OFFCURVE",
"285 217 OFFCURVE",
"285 251 CURVE SMOOTH",
"285 274 OFFCURVE",
"294 298 OFFCURVE",
"303 309 CURVE",
"378 302 OFFCURVE",
"457 287 OFFCURVE",
"457 235 CURVE SMOOTH",
"457 214 OFFCURVE",
"441 190 OFFCURVE",
"370 190 CURVE SMOOTH"
);
},
{
closed = 1;
nodes = (
"322 426 OFFCURVE",
"309 443 OFFCURVE",
"309 470 CURVE SMOOTH",
"309 495 OFFCURVE",
"321 518 OFFCURVE",
"370 518 CURVE SMOOTH",
"419 518 OFFCURVE",
"427 491 OFFCURVE",
"427 470 CURVE SMOOTH",
"427 447 OFFCURVE",
"418 426 OFFCURVE",
"370 426 CURVE SMOOTH"
);
}
);
width = 737;
},
{
associatedMasterId = "083550D2-F2E8-44E3-BE3D-E8BDF41EDFC4";
layerId = "0AAF2CB4-2EBD-42C4-BAB4-4CEC92C737FB";
width = 600;
},
{
layerId = "CA5CD7F6-F0E6-40F5-9716-481B35A0BC32";
paths = (
{
closed = 1;
nodes = (
"468 -10 OFFCURVE",
"595 39 OFFCURVE",
"595 207 CURVE SMOOTH",
"595 289 OFFCURVE",
"552 344 OFFCURVE",
"496 372 CURVE",
"535 403 OFFCURVE",
"565 457 OFFCURVE",
"565 521 CURVE SMOOTH",
"565 647 OFFCURVE",
"490 718 OFFCURVE",
"319 718 CURVE SMOOTH",
"149 718 OFFCURVE",
"70 636 OFFCURVE",
"70 521 CURVE SMOOTH",
"70 450 OFFCURVE",
"100 402 OFFCURVE",
"138 370 CURVE",
"79 342 OFFCURVE",
"40 292 OFFCURVE",
"40 207 CURVE SMOOTH",
"40 38 OFFCURVE",
"175 -10 OFFCURVE",
"321 -10 CURVE SMOOTH"
);
},
{
closed = 1;
nodes = (
"249 130 OFFCURVE",
"195 157 OFFCURVE",
"195 231 CURVE SMOOTH",
"195 265 OFFCURVE",
"215 299 OFFCURVE",
"242 319 CURVE",
"349 298 OFFCURVE",
"448 272 OFFCURVE",
"448 203 CURVE SMOOTH",
"448 153 OFFCURVE",
"393 130 OFFCURVE",
"321 130 CURVE SMOOTH"
);
},
{
closed = 1;
nodes = (
"273 416 OFFCURVE",
"219 438 OFFCURVE",
"219 500 CURVE SMOOTH",
"219 551 OFFCURVE",
"261 578 OFFCURVE",
"321 578 CURVE SMOOTH",
"390 578 OFFCURVE",
"418 545 OFFCURVE",
"418 490 CURVE SMOOTH",
"418 445 OFFCURVE",
"386 416 OFFCURVE",
"321 416 CURVE SMOOTH"
);
}
);
width = 635;
},
{
associatedMasterId = "CA5CD7F6-F0E6-40F5-9716-481B35A0BC32";
layerId = "75F64CCE-CA5D-4434-8900-21585FEAD95A";
width = 600;
}
);
unicode = 0038;
},
